0
SECTION
2
HEADER
9
$ACADVER
1
AC1006
0
ENDSEC
0
SECTION
2
TABLES
0
TABLE
2
LAYER
70
2
0
LAYER
70
0
62
1
6
CONTINUOUS
2
L0D0_0
0
LAYER
70
0
62
2
6
CONTINUOUS
2
L1D0
0
ENDTAB
0
ENDSEC
0
SECTION
2
BLOCKS
0
ENDSEC
0
SECTION
2
ENTITIES
0
POLYLINE
8
L1D0
70
1
40
0
41
0
66
1
0
VERTEX
8
L1D0
10
-22.5
20
-219
0
VERTEX
8
L1D0
10
-22.5
20
-218
0
VERTEX
8
L1D0
10
-24.5
20
-218
0
VERTEX
8
L1D0
10
-24.5
20
-217
0
VERTEX
8
L1D0
10
-26.5
20
-217
0
VERTEX
8
L1D0
10
-26.5
20
-216
0
VERTEX
8
L1D0
10
-29.5
20
-216
0
VERTEX
8
L1D0
10
-29.5
20
-215
0
VERTEX
8
L1D0
10
-31.5
20
-215
0
VERTEX
8
L1D0
10
-31.5
20
-214
0
VERTEX
8
L1D0
10
-33.5
20
-214
0
VERTEX
8
L1D0
10
-33.5
20
-213
0
VERTEX
8
L1D0
10
-36.5
20
-213
0
VERTEX
8
L1D0
10
-36.5
20
-212
0
VERTEX
8
L1D0
10
-38.5
20
-212
0
VERTEX
8
L1D0
10
-38.5
20
-211
0
VERTEX
8
L1D0
10
-41.5
20
-211
0
VERTEX
8
L1D0
10
-41.5
20
-210
0
VERTEX
8
L1D0
10
-43.5
20
-210
0
VERTEX
8
L1D0
10
-43.5
20
-209
0
VERTEX
8
L1D0
10
-45.5
20
-209
0
VERTEX
8
L1D0
10
-45.5
20
-208
0
VERTEX
8
L1D0
10
-48.5
20
-208
0
VERTEX
8
L1D0
10
-48.5
20
-207
0
VERTEX
8
L1D0
10
-50.5
20
-207
0
VERTEX
8
L1D0
10
-50.5
20
-206
0
VERTEX
8
L1D0
10
-52.5
20
-206
0
VERTEX
8
L1D0
10
-52.5
20
-205
0
VERTEX
8
L1D0
10
-55.5
20
-205
0
VERTEX
8
L1D0
10
-55.5
20
-204
0
VERTEX
8
L1D0
10
-57.5
20
-204
0
VERTEX
8
L1D0
10
-57.5
20
-203
0
VERTEX
8
L1D0
10
-60.5
20
-203
0
VERTEX
8
L1D0
10
-60.5
20
-202
0
VERTEX
8
L1D0
10
-62.5
20
-202
0
VERTEX
8
L1D0
10
-62.5
20
-201
0
VERTEX
8
L1D0
10
-64.5
20
-201
0
VERTEX
8
L1D0
10
-64.5
20
-200
0
VERTEX
8
L1D0
10
-67.5
20
-200
0
VERTEX
8
L1D0
10
-67.5
20
-199
0
VERTEX
8
L1D0
10
-69.5
20
-199
0
VERTEX
8
L1D0
10
-69.5
20
-198
0
VERTEX
8
L1D0
10
-71.5
20
-198
0
VERTEX
8
L1D0
10
-71.5
20
-197
0
VERTEX
8
L1D0
10
-74.5
20
-197
0
VERTEX
8
L1D0
10
-74.5
20
-196
0
VERTEX
8
L1D0
10
-76.5
20
-196
0
VERTEX
8
L1D0
10
-76.5
20
-194
0
VERTEX
8
L1D0
10
-75.5
20
-194
0
VERTEX
8
L1D0
10
-75.5
20
-193
0
VERTEX
8
L1D0
10
-73.5
20
-193
0
VERTEX
8
L1D0
10
-73.5
20
-192
0
VERTEX
8
L1D0
10
-71.5
20
-192
0
VERTEX
8
L1D0
10
-71.5
20
-191
0
VERTEX
8
L1D0
10
-69.5
20
-191
0
VERTEX
8
L1D0
10
-69.5
20
-190
0
VERTEX
8
L1D0
10
-67.5
20
-190
0
VERTEX
8
L1D0
10
-67.5
20
-189
0
VERTEX
8
L1D0
10
-66.5
20
-189
0
VERTEX
8
L1D0
10
-66.5
20
-188
0
VERTEX
8
L1D0
10
-64.5
20
-188
0
VERTEX
8
L1D0
10
-64.5
20
-187
0
VERTEX
8
L1D0
10
-62.5
20
-187
0
VERTEX
8
L1D0
10
-62.5
20
-186
0
VERTEX
8
L1D0
10
-60.5
20
-186
0
VERTEX
8
L1D0
10
-60.5
20
-185
0
VERTEX
8
L1D0
10
-58.5
20
-185
0
VERTEX
8
L1D0
10
-58.5
20
-184
0
VERTEX
8
L1D0
10
-56.5
20
-184
0
VERTEX
8
L1D0
10
-56.5
20
-183
0
VERTEX
8
L1D0
10
-55.5
20
-183
0
VERTEX
8
L1D0
10
-55.5
20
-182
0
VERTEX
8
L1D0
10
-31.5
20
-182
0
VERTEX
8
L1D0
10
-31.5
20
-183
0
VERTEX
8
L1D0
10
-33.5
20
-183
0
VERTEX
8
L1D0
10
-33.5
20
-184
0
VERTEX
8
L1D0
10
-35.5
20
-184
0
VERTEX
8
L1D0
10
-35.5
20
-185
0
VERTEX
8
L1D0
10
-36.5
20
-185
0
VERTEX
8
L1D0
10
-36.5
20
-186
0
VERTEX
8
L1D0
10
-38.5
20
-186
0
VERTEX
8
L1D0
10
-38.5
20
-187
0
VERTEX
8
L1D0
10
-40.5
20
-187
0
VERTEX
8
L1D0
10
-40.5
20
-188
0
VERTEX
8
L1D0
10
-42.5
20
-188
0
VERTEX
8
L1D0
10
-42.5
20
-189
0
VERTEX
8
L1D0
10
-44.5
20
-189
0
VERTEX
8
L1D0
10
-44.5
20
-190
0
VERTEX
8
L1D0
10
-46.5
20
-190
0
VERTEX
8
L1D0
10
-46.5
20
-191
0
VERTEX
8
L1D0
10
-47.5
20
-191
0
VERTEX
8
L1D0
10
-47.5
20
-192
0
VERTEX
8
L1D0
10
-49.5
20
-192
0
VERTEX
8
L1D0
10
-49.5
20
-193
0
VERTEX
8
L1D0
10
-51.5
20
-193
0
VERTEX
8
L1D0
10
-51.5
20
-194
0
VERTEX
8
L1D0
10
-49.5
20
-194
0
VERTEX
8
L1D0
10
-49.5
20
-195
0
VERTEX
8
L1D0
10
-47.5
20
-195
0
VERTEX
8
L1D0
10
-47.5
20
-196
0
VERTEX
8
L1D0
10
-44.5
20
-196
0
VERTEX
8
L1D0
10
-44.5
20
-197
0
VERTEX
8
L1D0
10
-42.5
20
-197
0
VERTEX
8
L1D0
10
-42.5
20
-198
0
VERTEX
8
L1D0
10
-40.5
20
-198
0
VERTEX
8
L1D0
10
-40.5
20
-199
0
VERTEX
8
L1D0
10
-37.5
20
-199
0
VERTEX
8
L1D0
10
-37.5
20
-200
0
VERTEX
8
L1D0
10
-35.5
20
-200
0
VERTEX
8
L1D0
10
-35.5
20
-201
0
VERTEX
8
L1D0
10
-32.5
20
-201
0
VERTEX
8
L1D0
10
-32.5
20
-202
0
VERTEX
8
L1D0
10
-30.5
20
-202
0
VERTEX
8
L1D0
10
-30.5
20
-182
0
VERTEX
8
L1D0
10
-53.5
20
-182
0
VERTEX
8
L1D0
10
-53.5
20
-181
0
VERTEX
8
L1D0
10
-51.5
20
-181
0
VERTEX
8
L1D0
10
-51.5
20
-180
0
VERTEX
8
L1D0
10
-49.5
20
-180
0
VERTEX
8
L1D0
10
-49.5
20
-179
0
VERTEX
8
L1D0
10
-47.5
20
-179
0
VERTEX
8
L1D0
10
-47.5
20
-178
0
VERTEX
8
L1D0
10
-46.5
20
-178
0
VERTEX
8
L1D0
10
-46.5
20
-177
0
VERTEX
8
L1D0
10
-44.5
20
-177
0
VERTEX
8
L1D0
10
-44.5
20
-176
0
VERTEX
8
L1D0
10
-42.5
20
-176
0
VERTEX
8
L1D0
10
-42.5
20
-175
0
VERTEX
8
L1D0
10
-40.5
20
-175
0
VERTEX
8
L1D0
10
-40.5
20
-174
0
VERTEX
8
L1D0
10
-38.5
20
-174
0
VERTEX
8
L1D0
10
-38.5
20
-173
0
VERTEX
8
L1D0
10
-37.5
20
-173
0
VERTEX
8
L1D0
10
-37.5
20
-172
0
VERTEX
8
L1D0
10
-35.5
20
-172
0
VERTEX
8
L1D0
10
-35.5
20
-171
0
VERTEX
8
L1D0
10
-33.5
20
-171
0
VERTEX
8
L1D0
10
-33.5
20
-170
0
VERTEX
8
L1D0
10
-31.5
20
-170
0
VERTEX
8
L1D0
10
-31.5
20
-169
0
VERTEX
8
L1D0
10
-29.5
20
-169
0
VERTEX
8
L1D0
10
-29.5
20
-168
0
VERTEX
8
L1D0
10
-28.5
20
-168
0
VERTEX
8
L1D0
10
-28.5
20
-167
0
VERTEX
8
L1D0
10
-26.5
20
-167
0
VERTEX
8
L1D0
10
-26.5
20
-166
0
VERTEX
8
L1D0
10
-24.5
20
-166
0
VERTEX
8
L1D0
10
-24.5
20
-165
0
VERTEX
8
L1D0
10
-22.5
20
-165
0
VERTEX
8
L1D0
10
-22.5
20
-164
0
VERTEX
8
L1D0
10
-20.5
20
-164
0
VERTEX
8
L1D0
10
-20.5
20
-219
0
SEQEND
0
POLYLINE
8
L1D0
70
1
40
0
41
0
66
1
0
VERTEX
8
L1D0
10
-159.5
20
-59
0
VERTEX
8
L1D0
10
-159.5
20
-58
0
VERTEX
8
L1D0
10
-163.5
20
-58
0
VERTEX
8
L1D0
10
-163.5
20
-57
0
VERTEX
8
L1D0
10
-166.5
20
-57
0
VERTEX
8
L1D0
10
-166.5
20
-56
0
VERTEX
8
L1D0
10
-168.5
20
-56
0
VERTEX
8
L1D0
10
-168.5
20
-55
0
VERTEX
8
L1D0
10
-169.5
20
-55
0
VERTEX
8
L1D0
10
-169.5
20
-54
0
VERTEX
8
L1D0
10
-171.5
20
-54
0
VERTEX
8
L1D0
10
-171.5
20
-53
0
VERTEX
8
L1D0
10
-172.5
20
-53
0
VERTEX
8
L1D0
10
-172.5
20
-52
0
VERTEX
8
L1D0
10
-173.5
20
-52
0
VERTEX
8
L1D0
10
-173.5
20
-51
0
VERTEX
8
L1D0
10
-174.5
20
-51
0
VERTEX
8
L1D0
10
-174.5
20
-50
0
VERTEX
8
L1D0
10
-175.5
20
-50
0
VERTEX
8
L1D0
10
-175.5
20
-49
0
VERTEX
8
L1D0
10
-176.5
20
-49
0
VERTEX
8
L1D0
10
-176.5
20
-47
0
VERTEX
8
L1D0
10
-177.5
20
-47
0
VERTEX
8
L1D0
10
-177.5
20
-45
0
VERTEX
8
L1D0
10
-178.5
20
-45
0
VERTEX
8
L1D0
10
-178.5
20
-42
0
VERTEX
8
L1D0
10
-179.5
20
-42
0
VERTEX
8
L1D0
10
-179.5
20
-38
0
VERTEX
8
L1D0
10
-180.5
20
-38
0
VERTEX
8
L1D0
10
-180.5
20
25
0
VERTEX
8
L1D0
10
-158.5
20
25
0
VERTEX
8
L1D0
10
-158.5
20
-31
0
VERTEX
8
L1D0
10
-157.5
20
-31
0
VERTEX
8
L1D0
10
-157.5
20
-35
0
VERTEX
8
L1D0
10
-156.5
20
-35
0
VERTEX
8
L1D0
10
-156.5
20
-37
0
VERTEX
8
L1D0
10
-155.5
20
-37
0
VERTEX
8
L1D0
10
-155.5
20
-38
0
VERTEX
8
L1D0
10
-154.5
20
-38
0
VERTEX
8
L1D0
10
-154.5
20
-39
0
VERTEX
8
L1D0
10
-153.5
20
-39
0
VERTEX
8
L1D0
10
-153.5
20
-40
0
VERTEX
8
L1D0
10
-152.5
20
-40
0
VERTEX
8
L1D0
10
-152.5
20
-41
0
VERTEX
8
L1D0
10
-149.5
20
-41
0
VERTEX
8
L1D0
10
-149.5
20
-42
0
VERTEX
8
L1D0
10
-141.5
20
-42
0
VERTEX
8
L1D0
10
-141.5
20
-41
0
VERTEX
8
L1D0
10
-138.5
20
-41
0
VERTEX
8
L1D0
10
-138.5
20
-40
0
VERTEX
8
L1D0
10
-136.5
20
-40
0
VERTEX
8
L1D0
10
-136.5
20
-39
0
VERTEX
8
L1D0
10
-134.5
20
-39
0
VERTEX
8
L1D0
10
-134.5
20
-38
0
VERTEX
8
L1D0
10
-133.5
20
-38
0
VERTEX
8
L1D0
10
-133.5
20
-37
0
VERTEX
8
L1D0
10
-132.5
20
-37
0
VERTEX
8
L1D0
10
-132.5
20
-36
0
VERTEX
8
L1D0
10
-131.5
20
-36
0
VERTEX
8
L1D0
10
-131.5
20
-34
0
VERTEX
8
L1D0
10
-130.5
20
-34
0
VERTEX
8
L1D0
10
-130.5
20
-32
0
VERTEX
8
L1D0
10
-129.5
20
-32
0
VERTEX
8
L1D0
10
-129.5
20
-28
0
VERTEX
8
L1D0
10
-128.5
20
-28
0
VERTEX
8
L1D0
10
-128.5
20
25
0
VERTEX
8
L1D0
10
-105.5
20
25
0
VERTEX
8
L1D0
10
-105.5
20
-57
0
VERTEX
8
L1D0
10
-126.5
20
-57
0
VERTEX
8
L1D0
10
-126.5
20
-46
0
VERTEX
8
L1D0
10
-127.5
20
-46
0
VERTEX
8
L1D0
10
-127.5
20
-47
0
VERTEX
8
L1D0
10
-128.5
20
-47
0
VERTEX
8
L1D0
10
-128.5
20
-49
0
VERTEX
8
L1D0
10
-129.5
20
-49
0
VERTEX
8
L1D0
10
-129.5
20
-50
0
VERTEX
8
L1D0
10
-130.5
20
-50
0
VERTEX
8
L1D0
10
-130.5
20
-51
0
VERTEX
8
L1D0
10
-132.5
20
-51
0
VERTEX
8
L1D0
10
-132.5
20
-52
0
VERTEX
8
L1D0
10
-133.5
20
-52
0
VERTEX
8
L1D0
10
-133.5
20
-53
0
VERTEX
8
L1D0
10
-134.5
20
-53
0
VERTEX
8
L1D0
10
-134.5
20
-54
0
VERTEX
8
L1D0
10
-136.5
20
-54
0
VERTEX
8
L1D0
10
-136.5
20
-55
0
VERTEX
8
L1D0
10
-138.5
20
-55
0
VERTEX
8
L1D0
10
-138.5
20
-56
0
VERTEX
8
L1D0
10
-140.5
20
-56
0
VERTEX
8
L1D0
10
-140.5
20
-57
0
VERTEX
8
L1D0
10
-143.5
20
-57
0
VERTEX
8
L1D0
10
-143.5
20
-58
0
VERTEX
8
L1D0
10
-147.5
20
-58
0
VERTEX
8
L1D0
10
-147.5
20
-59
0
SEQEND
0
POLYLINE
8
L1D0
70
1
40
0
41
0
66
1
0
VERTEX
8
L1D0
10
-429.5
20
-59
0
VERTEX
8
L1D0
10
-429.5
20
-58
0
VERTEX
8
L1D0
10
-435.5
20
-58
0
VERTEX
8
L1D0
10
-435.5
20
-57
0
VERTEX
8
L1D0
10
-438.5
20
-57
0
VERTEX
8
L1D0
10
-438.5
20
-56
0
VERTEX
8
L1D0
10
-441.5
20
-56
0
VERTEX
8
L1D0
10
-441.5
20
-55
0
VERTEX
8
L1D0
10
-443.5
20
-55
0
VERTEX
8
L1D0
10
-443.5
20
-54
0
VERTEX
8
L1D0
10
-445.5
20
-54
0
VERTEX
8
L1D0
10
-445.5
20
-53
0
VERTEX
8
L1D0
10
-446.5
20
-53
0
VERTEX
8
L1D0
10
-446.5
20
-52
0
VERTEX
8
L1D0
10
-448.5
20
-52
0
VERTEX
8
L1D0
10
-448.5
20
-51
0
VERTEX
8
L1D0
10
-449.5
20
-51
0
VERTEX
8
L1D0
10
-449.5
20
-50
0
VERTEX
8
L1D0
10
-450.5
20
-50
0
VERTEX
8
L1D0
10
-450.5
20
-49
0
VERTEX
8
L1D0
10
-451.5
20
-49
0
VERTEX
8
L1D0
10
-451.5
20
-48
0
VERTEX
8
L1D0
10
-452.5
20
-48
0
VERTEX
8
L1D0
10
-452.5
20
-47
0
VERTEX
8
L1D0
10
-453.5
20
-47
0
VERTEX
8
L1D0
10
-453.5
20
-46
0
VERTEX
8
L1D0
10
-454.5
20
-46
0
VERTEX
8
L1D0
10
-454.5
20
-44
0
VERTEX
8
L1D0
10
-455.5
20
-44
0
VERTEX
8
L1D0
10
-455.5
20
-43
0
VERTEX
8
L1D0
10
-456.5
20
-43
0
VERTEX
8
L1D0
10
-456.5
20
-41
0
VERTEX
8
L1D0
10
-457.5
20
-41
0
VERTEX
8
L1D0
10
-457.5
20
-39
0
VERTEX
8
L1D0
10
-458.5
20
-39
0
VERTEX
8
L1D0
10
-458.5
20
-37
0
VERTEX
8
L1D0
10
-459.5
20
-37
0
VERTEX
8
L1D0
10
-459.5
20
-33
0
VERTEX
8
L1D0
10
-452.5
20
-33
0
VERTEX
8
L1D0
10
-452.5
20
-32
0
VERTEX
8
L1D0
10
-446.5
20
-32
0
VERTEX
8
L1D0
10
-446.5
20
-31
0
VERTEX
8
L1D0
10
-440.5
20
-31
0
VERTEX
8
L1D0
10
-440.5
20
-30
0
VERTEX
8
L1D0
10
-437.5
20
-30
0
VERTEX
8
L1D0
10
-437.5
20
-32
0
VERTEX
8
L1D0
10
-436.5
20
-32
0
VERTEX
8
L1D0
10
-436.5
20
-35
0
VERTEX
8
L1D0
10
-435.5
20
-35
0
VERTEX
8
L1D0
10
-435.5
20
-37
0
VERTEX
8
L1D0
10
-434.5
20
-37
0
VERTEX
8
L1D0
10
-434.5
20
-38
0
VERTEX
8
L1D0
10
-433.5
20
-38
0
VERTEX
8
L1D0
10
-433.5
20
-39
0
VERTEX
8
L1D0
10
-432.5
20
-39
0
VERTEX
8
L1D0
10
-432.5
20
-40
0
VERTEX
8
L1D0
10
-430.5
20
-40
0
VERTEX
8
L1D0
10
-430.5
20
-41
0
VERTEX
8
L1D0
10
-428.5
20
-41
0
VERTEX
8
L1D0
10
-428.5
20
-42
0
VERTEX
8
L1D0
10
-425.5
20
-42
0
VERTEX
8
L1D0
10
-425.5
20
-43
0
VERTEX
8
L1D0
10
-414.5
20
-43
0
VERTEX
8
L1D0
10
-414.5
20
-42
0
VERTEX
8
L1D0
10
-411.5
20
-42
0
VERTEX
8
L1D0
10
-411.5
20
-41
0
VERTEX
8
L1D0
10
-408.5
20
-41
0
VERTEX
8
L1D0
10
-408.5
20
-40
0
VERTEX
8
L1D0
10
-407.5
20
-40
0
VERTEX
8
L1D0
10
-407.5
20
-39
0
VERTEX
8
L1D0
10
-406.5
20
-39
0
VERTEX
8
L1D0
10
-406.5
20
-38
0
VERTEX
8
L1D0
10
-405.5
20
-38
0
VERTEX
8
L1D0
10
-405.5
20
-31
0
VERTEX
8
L1D0
10
-406.5
20
-31
0
VERTEX
8
L1D0
10
-406.5
20
-30
0
VERTEX
8
L1D0
10
-408.5
20
-30
0
VERTEX
8
L1D0
10
-408.5
20
-29
0
VERTEX
8
L1D0
10
-410.5
20
-29
0
VERTEX
8
L1D0
10
-410.5
20
-28
0
VERTEX
8
L1D0
10
-414.5
20
-28
0
VERTEX
8
L1D0
10
-414.5
20
-27
0
VERTEX
8
L1D0
10
-418.5
20
-27
0
VERTEX
8
L1D0
10
-418.5
20
-26
0
VERTEX
8
L1D0
10
-423.5
20
-26
0
VERTEX
8
L1D0
10
-423.5
20
-25
0
VERTEX
8
L1D0
10
-426.5
20
-25
0
VERTEX
8
L1D0
10
-426.5
20
-24
0
VERTEX
8
L1D0
10
-430.5
20
-24
0
VERTEX
8
L1D0
10
-430.5
20
-23
0
VERTEX
8
L1D0
10
-433.5
20
-23
0
VERTEX
8
L1D0
10
-433.5
20
-22
0
VERTEX
8
L1D0
10
-437.5
20
-22
0
VERTEX
8
L1D0
10
-437.5
20
-21
0
VERTEX
8
L1D0
10
-439.5
20
-21
0
VERTEX
8
L1D0
10
-439.5
20
-20
0
VERTEX
8
L1D0
10
-442.5
20
-20
0
VERTEX
8
L1D0
10
-442.5
20
-19
0
VERTEX
8
L1D0
10
-444.5
20
-19
0
VERTEX
8
L1D0
10
-444.5
20
-18
0
VERTEX
8
L1D0
10
-446.5
20
-18
0
VERTEX
8
L1D0
10
-446.5
20
-17
0
VERTEX
8
L1D0
10
-447.5
20
-17
0
VERTEX
8
L1D0
10
-447.5
20
-16
0
VERTEX
8
L1D0
10
-449.5
20
-16
0
VERTEX
8
L1D0
10
-449.5
20
-15
0
VERTEX
8
L1D0
10
-450.5
20
-15
0
VERTEX
8
L1D0
10
-450.5
20
-14
0
VERTEX
8
L1D0
10
-451.5
20
-14
0
VERTEX
8
L1D0
10
-451.5
20
-13
0
VERTEX
8
L1D0
10
-452.5
20
-13
0
VERTEX
8
L1D0
10
-452.5
20
-11
0
VERTEX
8
L1D0
10
-453.5
20
-11
0
VERTEX
8
L1D0
10
-453.5
20
-10
0
VERTEX
8
L1D0
10
-454.5
20
-10
0
VERTEX
8
L1D0
10
-454.5
20
-8
0
VERTEX
8
L1D0
10
-455.5
20
-8
0
VERTEX
8
L1D0
10
-455.5
20
-5
0
VERTEX
8
L1D0
10
-456.5
20
-5
0
VERTEX
8
L1D0
10
-456.5
20
8
0
VERTEX
8
L1D0
10
-455.5
20
8
0
VERTEX
8
L1D0
10
-455.5
20
11
0
VERTEX
8
L1D0
10
-454.5
20
11
0
VERTEX
8
L1D0
10
-454.5
20
13
0
VERTEX
8
L1D0
10
-453.5
20
13
0
VERTEX
8
L1D0
10
-453.5
20
14
0
VERTEX
8
L1D0
10
-452.5
20
14
0
VERTEX
8
L1D0
10
-452.5
20
16
0
VERTEX
8
L1D0
10
-451.5
20
16
0
VERTEX
8
L1D0
10
-451.5
20
17
0
VERTEX
8
L1D0
10
-450.5
20
17
0
VERTEX
8
L1D0
10
-450.5
20
18
0
VERTEX
8
L1D0
10
-449.5
20
18
0
VERTEX
8
L1D0
10
-449.5
20
19
0
VERTEX
8
L1D0
10
-448.5
20
19
0
VERTEX
8
L1D0
10
-448.5
20
20
0
VERTEX
8
L1D0
10
-447.5
20
20
0
VERTEX
8
L1D0
10
-447.5
20
21
0
VERTEX
8
L1D0
10
-445.5
20
21
0
VERTEX
8
L1D0
10
-445.5
20
22
0
VERTEX
8
L1D0
10
-444.5
20
22
0
VERTEX
8
L1D0
10
-444.5
20
23
0
VERTEX
8
L1D0
10
-442.5
20
23
0
VERTEX
8
L1D0
10
-442.5
20
24
0
VERTEX
8
L1D0
10
-439.5
20
24
0
VERTEX
8
L1D0
10
-439.5
20
25
0
VERTEX
8
L1D0
10
-436.5
20
25
0
VERTEX
8
L1D0
10
-436.5
20
26
0
VERTEX
8
L1D0
10
-430.5
20
26
0
VERTEX
8
L1D0
10
-430.5
20
27
0
VERTEX
8
L1D0
10
-413.5
20
27
0
VERTEX
8
L1D0
10
-413.5
20
26
0
VERTEX
8
L1D0
10
-406.5
20
26
0
VERTEX
8
L1D0
10
-406.5
20
25
0
VERTEX
8
L1D0
10
-403.5
20
25
0
VERTEX
8
L1D0
10
-403.5
20
24
0
VERTEX
8
L1D0
10
-400.5
20
24
0
VERTEX
8
L1D0
10
-400.5
20
23
0
VERTEX
8
L1D0
10
-398.5
20
23
0
VERTEX
8
L1D0
10
-398.5
20
22
0
VERTEX
8
L1D0
10
-397.5
20
22
0
VERTEX
8
L1D0
10
-397.5
20
21
0
VERTEX
8
L1D0
10
-395.5
20
21
0
VERTEX
8
L1D0
10
-395.5
20
20
0
VERTEX
8
L1D0
10
-394.5
20
20
0
VERTEX
8
L1D0
10
-394.5
20
19
0
VERTEX
8
L1D0
10
-393.5
20
19
0
VERTEX
8
L1D0
10
-393.5
20
18
0
VERTEX
8
L1D0
10
-392.5
20
18
0
VERTEX
8
L1D0
10
-392.5
20
17
0
VERTEX
8
L1D0
10
-391.5
20
17
0
VERTEX
8
L1D0
10
-391.5
20
16
0
VERTEX
8
L1D0
10
-390.5
20
16
0
VERTEX
8
L1D0
10
-390.5
20
15
0
VERTEX
8
L1D0
10
-389.5
20
15
0
VERTEX
8
L1D0
10
-389.5
20
13
0
VERTEX
8
L1D0
10
-388.5
20
13
0
VERTEX
8
L1D0
10
-388.5
20
11
0
VERTEX
8
L1D0
10
-387.5
20
11
0
VERTEX
8
L1D0
10
-387.5
20
9
0
VERTEX
8
L1D0
10
-386.5
20
9
0
VERTEX
8
L1D0
10
-386.5
20
6
0
VERTEX
8
L1D0
10
-385.5
20
6
0
VERTEX
8
L1D0
10
-385.5
20
5
0
VERTEX
8
L1D0
10
-387.5
20
5
0
VERTEX
8
L1D0
10
-387.5
20
4
0
VERTEX
8
L1D0
10
-392.5
20
4
0
VERTEX
8
L1D0
10
-392.5
20
3
0
VERTEX
8
L1D0
10
-398.5
20
3
0
VERTEX
8
L1D0
10
-398.5
20
2
0
VERTEX
8
L1D0
10
-403.5
20
2
0
VERTEX
8
L1D0
10
-403.5
20
1
0
VERTEX
8
L1D0
10
-406.5
20
1
0
VERTEX
8
L1D0
10
-406.5
20
2
0
VERTEX
8
L1D0
10
-407.5
20
2
0
VERTEX
8
L1D0
10
-407.5
20
5
0
VERTEX
8
L1D0
10
-408.5
20
5
0
VERTEX
8
L1D0
10
-408.5
20
6
0
VERTEX
8
L1D0
10
-409.5
20
6
0
VERTEX
8
L1D0
10
-409.5
20
7
0
VERTEX
8
L1D0
10
-410.5
20
7
0
VERTEX
8
L1D0
10
-410.5
20
8
0
VERTEX
8
L1D0
10
-411.5
20
8
0
VERTEX
8
L1D0
10
-411.5
20
9
0
VERTEX
8
L1D0
10
-413.5
20
9
0
VERTEX
8
L1D0
10
-413.5
20
10
0
VERTEX
8
L1D0
10
-416.5
20
10
0
VERTEX
8
L1D0
10
-416.5
20
11
0
VERTEX
8
L1D0
10
-427.5
20
11
0
VERTEX
8
L1D0
10
-427.5
20
10
0
VERTEX
8
L1D0
10
-431.5
20
10
0
VERTEX
8
L1D0
10
-431.5
20
9
0
VERTEX
8
L1D0
10
-433.5
20
9
0
VERTEX
8
L1D0
10
-433.5
20
8
0
VERTEX
8
L1D0
10
-434.5
20
8
0
VERTEX
8
L1D0
10
-434.5
20
7
0
VERTEX
8
L1D0
10
-435.5
20
7
0
VERTEX
8
L1D0
10
-435.5
20
5
0
VERTEX
8
L1D0
10
-436.5
20
5
0
VERTEX
8
L1D0
10
-436.5
20
3
0
VERTEX
8
L1D0
10
-435.5
20
3
0
VERTEX
8
L1D0
10
-435.5
20
2
0
VERTEX
8
L1D0
10
-434.5
20
2
0
VERTEX
8
L1D0
10
-434.5
20
1
0
VERTEX
8
L1D0
10
-433.5
20
1
0
VERTEX
8
L1D0
10
-433.5
20
0
0
VERTEX
8
L1D0
10
-431.5
20
0
0
VERTEX
8
L1D0
10
-431.5
20
-1
0
VERTEX
8
L1D0
10
-428.5
20
-1
0
VERTEX
8
L1D0
10
-428.5
20
-2
0
VERTEX
8
L1D0
10
-425.5
20
-2
0
VERTEX
8
L1D0
10
-425.5
20
-3
0
VERTEX
8
L1D0
10
-421.5
20
-3
0
VERTEX
8
L1D0
10
-421.5
20
-4
0
VERTEX
8
L1D0
10
-417.5
20
-4
0
VERTEX
8
L1D0
10
-417.5
20
-5
0
VERTEX
8
L1D0
10
-413.5
20
-5
0
VERTEX
8
L1D0
10
-413.5
20
-6
0
VERTEX
8
L1D0
10
-409.5
20
-6
0
VERTEX
8
L1D0
10
-409.5
20
-7
0
VERTEX
8
L1D0
10
-405.5
20
-7
0
VERTEX
8
L1D0
10
-405.5
20
-8
0
VERTEX
8
L1D0
10
-402.5
20
-8
0
VERTEX
8
L1D0
10
-402.5
20
-9
0
VERTEX
8
L1D0
10
-399.5
20
-9
0
VERTEX
8
L1D0
10
-399.5
20
-10
0
VERTEX
8
L1D0
10
-397.5
20
-10
0
VERTEX
8
L1D0
10
-397.5
20
-11
0
VERTEX
8
L1D0
10
-395.5
20
-11
0
VERTEX
8
L1D0
10
-395.5
20
-12
0
VERTEX
8
L1D0
10
-393.5
20
-12
0
VERTEX
8
L1D0
10
-393.5
20
-13
0
VERTEX
8
L1D0
10
-391.5
20
-13
0
VERTEX
8
L1D0
10
-391.5
20
-14
0
VERTEX
8
L1D0
10
-390.5
20
-14
0
VERTEX
8
L1D0
10
-390.5
20
-15
0
VERTEX
8
L1D0
10
-389.5
20
-15
0
VERTEX
8
L1D0
10
-389.5
20
-16
0
VERTEX
8
L1D0
10
-388.5
20
-16
0
VERTEX
8
L1D0
10
-388.5
20
-17
0
VERTEX
8
L1D0
10
-387.5
20
-17
0
VERTEX
8
L1D0
10
-387.5
20
-18
0
VERTEX
8
L1D0
10
-386.5
20
-18
0
VERTEX
8
L1D0
10
-386.5
20
-19
0
VERTEX
8
L1D0
10
-385.5
20
-19
0
VERTEX
8
L1D0
10
-385.5
20
-21
0
VERTEX
8
L1D0
10
-384.5
20
-21
0
VERTEX
8
L1D0
10
-384.5
20
-24
0
VERTEX
8
L1D0
10
-383.5
20
-24
0
VERTEX
8
L1D0
10
-383.5
20
-29
0
VERTEX
8
L1D0
10
-382.5
20
-29
0
VERTEX
8
L1D0
10
-382.5
20
-34
0
VERTEX
8
L1D0
10
-383.5
20
-34
0
VERTEX
8
L1D0
10
-383.5
20
-39
0
VERTEX
8
L1D0
10
-384.5
20
-39
0
VERTEX
8
L1D0
10
-384.5
20
-42
0
VERTEX
8
L1D0
10
-385.5
20
-42
0
VERTEX
8
L1D0
10
-385.5
20
-43
0
VERTEX
8
L1D0
10
-386.5
20
-43
0
VERTEX
8
L1D0
10
-386.5
20
-45
0
VERTEX
8
L1D0
10
-387.5
20
-45
0
VERTEX
8
L1D0
10
-387.5
20
-46
0
VERTEX
8
L1D0
10
-388.5
20
-46
0
VERTEX
8
L1D0
10
-388.5
20
-48
0
VERTEX
8
L1D0
10
-389.5
20
-48
0
VERTEX
8
L1D0
10
-389.5
20
-49
0
VERTEX
8
L1D0
10
-390.5
20
-49
0
VERTEX
8
L1D0
10
-390.5
20
-50
0
VERTEX
8
L1D0
10
-391.5
20
-50
0
VERTEX
8
L1D0
10
-391.5
20
-51
0
VERTEX
8
L1D0
10
-393.5
20
-51
0
VERTEX
8
L1D0
10
-393.5
20
-52
0
VERTEX
8
L1D0
10
-394.5
20
-52
0
VERTEX
8
L1D0
10
-394.5
20
-53
0
VERTEX
8
L1D0
10
-395.5
20
-53
0
VERTEX
8
L1D0
10
-395.5
20
-54
0
VERTEX
8
L1D0
10
-397.5
20
-54
0
VERTEX
8
L1D0
10
-397.5
20
-55
0
VERTEX
8
L1D0
10
-399.5
20
-55
0
VERTEX
8
L1D0
10
-399.5
20
-56
0
VERTEX
8
L1D0
10
-402.5
20
-56
0
VERTEX
8
L1D0
10
-402.5
20
-57
0
VERTEX
8
L1D0
10
-405.5
20
-57
0
VERTEX
8
L1D0
10
-405.5
20
-58
0
VERTEX
8
L1D0
10
-411.5
20
-58
0
VERTEX
8
L1D0
10
-411.5
20
-59
0
SEQEND
0
POLYLINE
8
L1D0
70
1
40
0
41
0
66
1
0
VERTEX
8
L1D0
10
-337.5
20
-59
0
VERTEX
8
L1D0
10
-337.5
20
-58
0
VERTEX
8
L1D0
10
-342.5
20
-58
0
VERTEX
8
L1D0
10
-342.5
20
-57
0
VERTEX
8
L1D0
10
-345.5
20
-57
0
VERTEX
8
L1D0
10
-345.5
20
-56
0
VERTEX
8
L1D0
10
-347.5
20
-56
0
VERTEX
8
L1D0
10
-347.5
20
-55
0
VERTEX
8
L1D0
10
-349.5
20
-55
0
VERTEX
8
L1D0
10
-349.5
20
-54
0
VERTEX
8
L1D0
10
-351.5
20
-54
0
VERTEX
8
L1D0
10
-351.5
20
-53
0
VERTEX
8
L1D0
10
-352.5
20
-53
0
VERTEX
8
L1D0
10
-352.5
20
-52
0
VERTEX
8
L1D0
10
-354.5
20
-52
0
VERTEX
8
L1D0
10
-354.5
20
-51
0
VERTEX
8
L1D0
10
-355.5
20
-51
0
VERTEX
8
L1D0
10
-355.5
20
-50
0
VERTEX
8
L1D0
10
-356.5
20
-50
0
VERTEX
8
L1D0
10
-356.5
20
-49
0
VERTEX
8
L1D0
10
-357.5
20
-49
0
VERTEX
8
L1D0
10
-357.5
20
-48
0
VERTEX
8
L1D0
10
-358.5
20
-48
0
VERTEX
8
L1D0
10
-358.5
20
-47
0
VERTEX
8
L1D0
10
-359.5
20
-47
0
VERTEX
8
L1D0
10
-359.5
20
-46
0
VERTEX
8
L1D0
10
-360.5
20
-46
0
VERTEX
8
L1D0
10
-360.5
20
-45
0
VERTEX
8
L1D0
10
-361.5
20
-45
0
VERTEX
8
L1D0
10
-361.5
20
-43
0
VERTEX
8
L1D0
10
-362.5
20
-43
0
VERTEX
8
L1D0
10
-362.5
20
-42
0
VERTEX
8
L1D0
10
-363.5
20
-42
0
VERTEX
8
L1D0
10
-363.5
20
-40
0
VERTEX
8
L1D0
10
-364.5
20
-40
0
VERTEX
8
L1D0
10
-364.5
20
-38
0
VERTEX
8
L1D0
10
-365.5
20
-38
0
VERTEX
8
L1D0
10
-365.5
20
-36
0
VERTEX
8
L1D0
10
-366.5
20
-36
0
VERTEX
8
L1D0
10
-366.5
20
-33
0
VERTEX
8
L1D0
10
-367.5
20
-33
0
VERTEX
8
L1D0
10
-367.5
20
-29
0
VERTEX
8
L1D0
10
-368.5
20
-29
0
VERTEX
8
L1D0
10
-368.5
20
-23
0
VERTEX
8
L1D0
10
-369.5
20
-23
0
VERTEX
8
L1D0
10
-369.5
20
-9
0
VERTEX
8
L1D0
10
-368.5
20
-9
0
VERTEX
8
L1D0
10
-368.5
20
-3
0
VERTEX
8
L1D0
10
-367.5
20
-3
0
VERTEX
8
L1D0
10
-367.5
20
1
0
VERTEX
8
L1D0
10
-366.5
20
1
0
VERTEX
8
L1D0
10
-366.5
20
4
0
VERTEX
8
L1D0
10
-365.5
20
4
0
VERTEX
8
L1D0
10
-365.5
20
6
0
VERTEX
8
L1D0
10
-364.5
20
6
0
VERTEX
8
L1D0
10
-364.5
20
8
0
VERTEX
8
L1D0
10
-363.5
20
8
0
VERTEX
8
L1D0
10
-363.5
20
10
0
VERTEX
8
L1D0
10
-362.5
20
10
0
VERTEX
8
L1D0
10
-362.5
20
11
0
VERTEX
8
L1D0
10
-361.5
20
11
0
VERTEX
8
L1D0
10
-361.5
20
13
0
VERTEX
8
L1D0
10
-360.5
20
13
0
VERTEX
8
L1D0
10
-360.5
20
14
0
VERTEX
8
L1D0
10
-359.5
20
14
0
VERTEX
8
L1D0
10
-359.5
20
15
0
VERTEX
8
L1D0
10
-358.5
20
15
0
VERTEX
8
L1D0
10
-358.5
20
16
0
VERTEX
8
L1D0
10
-357.5
20
16
0
VERTEX
8
L1D0
10
-357.5
20
17
0
VERTEX
8
L1D0
10
-356.5
20
17
0
VERTEX
8
L1D0
10
-356.5
20
18
0
VERTEX
8
L1D0
10
-355.5
20
18
0
VERTEX
8
L1D0
10
-355.5
20
19
0
VERTEX
8
L1D0
10
-354.5
20
19
0
VERTEX
8
L1D0
10
-354.5
20
20
0
VERTEX
8
L1D0
10
-352.5
20
20
0
VERTEX
8
L1D0
10
-352.5
20
21
0
VERTEX
8
L1D0
10
-351.5
20
21
0
VERTEX
8
L1D0
10
-351.5
20
22
0
VERTEX
8
L1D0
10
-349.5
20
22
0
VERTEX
8
L1D0
10
-349.5
20
23
0
VERTEX
8
L1D0
10
-347.5
20
23
0
VERTEX
8
L1D0
10
-347.5
20
24
0
VERTEX
8
L1D0
10
-344.5
20
24
0
VERTEX
8
L1D0
10
-344.5
20
25
0
VERTEX
8
L1D0
10
-341.5
20
25
0
VERTEX
8
L1D0
10
-341.5
20
26
0
VERTEX
8
L1D0
10
-336.5
20
26
0
VERTEX
8
L1D0
10
-336.5
20
27
0
VERTEX
8
L1D0
10
-321.5
20
27
0
VERTEX
8
L1D0
10
-321.5
20
26
0
VERTEX
8
L1D0
10
-316.5
20
26
0
VERTEX
8
L1D0
10
-316.5
20
25
0
VERTEX
8
L1D0
10
-312.5
20
25
0
VERTEX
8
L1D0
10
-312.5
20
24
0
VERTEX
8
L1D0
10
-310.5
20
24
0
VERTEX
8
L1D0
10
-310.5
20
23
0
VERTEX
8
L1D0
10
-308.5
20
23
0
VERTEX
8
L1D0
10
-308.5
20
22
0
VERTEX
8
L1D0
10
-306.5
20
22
0
VERTEX
8
L1D0
10
-306.5
20
21
0
VERTEX
8
L1D0
10
-305.5
20
21
0
VERTEX
8
L1D0
10
-305.5
20
20
0
VERTEX
8
L1D0
10
-304.5
20
20
0
VERTEX
8
L1D0
10
-304.5
20
19
0
VERTEX
8
L1D0
10
-302.5
20
19
0
VERTEX
8
L1D0
10
-302.5
20
18
0
VERTEX
8
L1D0
10
-301.5
20
18
0
VERTEX
8
L1D0
10
-301.5
20
17
0
VERTEX
8
L1D0
10
-300.5
20
17
0
VERTEX
8
L1D0
10
-300.5
20
15
0
VERTEX
8
L1D0
10
-299.5
20
15
0
VERTEX
8
L1D0
10
-299.5
20
14
0
VERTEX
8
L1D0
10
-298.5
20
14
0
VERTEX
8
L1D0
10
-298.5
20
13
0
VERTEX
8
L1D0
10
-297.5
20
13
0
VERTEX
8
L1D0
10
-297.5
20
11
0
VERTEX
8
L1D0
10
-296.5
20
11
0
VERTEX
8
L1D0
10
-296.5
20
9
0
VERTEX
8
L1D0
10
-295.5
20
9
0
VERTEX
8
L1D0
10
-295.5
20
7
0
VERTEX
8
L1D0
10
-294.5
20
7
0
VERTEX
8
L1D0
10
-294.5
20
5
0
VERTEX
8
L1D0
10
-293.5
20
5
0
VERTEX
8
L1D0
10
-293.5
20
2
0
VERTEX
8
L1D0
10
-292.5
20
2
0
VERTEX
8
L1D0
10
-292.5
20
1
0
VERTEX
8
L1D0
10
-293.5
20
1
0
VERTEX
8
L1D0
10
-293.5
20
0
0
VERTEX
8
L1D0
10
-298.5
20
0
0
VERTEX
8
L1D0
10
-298.5
20
-1
0
VERTEX
8
L1D0
10
-304.5
20
-1
0
VERTEX
8
L1D0
10
-304.5
20
-2
0
VERTEX
8
L1D0
10
-309.5
20
-2
0
VERTEX
8
L1D0
10
-309.5
20
-3
0
VERTEX
8
L1D0
10
-314.5
20
-3
0
VERTEX
8
L1D0
10
-314.5
20
-1
0
VERTEX
8
L1D0
10
-315.5
20
-1
0
VERTEX
8
L1D0
10
-315.5
20
2
0
VERTEX
8
L1D0
10
-316.5
20
2
0
VERTEX
8
L1D0
10
-316.5
20
4
0
VERTEX
8
L1D0
10
-317.5
20
4
0
VERTEX
8
L1D0
10
-317.5
20
5
0
VERTEX
8
L1D0
10
-318.5
20
5
0
VERTEX
8
L1D0
10
-318.5
20
6
0
VERTEX
8
L1D0
10
-319.5
20
6
0
VERTEX
8
L1D0
10
-319.5
20
7
0
VERTEX
8
L1D0
10
-321.5
20
7
0
VERTEX
8
L1D0
10
-321.5
20
8
0
VERTEX
8
L1D0
10
-323.5
20
8
0
VERTEX
8
L1D0
10
-323.5
20
9
0
VERTEX
8
L1D0
10
-335.5
20
9
0
VERTEX
8
L1D0
10
-335.5
20
8
0
VERTEX
8
L1D0
10
-337.5
20
8
0
VERTEX
8
L1D0
10
-337.5
20
7
0
VERTEX
8
L1D0
10
-339.5
20
7
0
VERTEX
8
L1D0
10
-339.5
20
6
0
VERTEX
8
L1D0
10
-340.5
20
6
0
VERTEX
8
L1D0
10
-340.5
20
5
0
VERTEX
8
L1D0
10
-341.5
20
5
0
VERTEX
8
L1D0
10
-341.5
20
4
0
VERTEX
8
L1D0
10
-342.5
20
4
0
VERTEX
8
L1D0
10
-342.5
20
2
0
VERTEX
8
L1D0
10
-343.5
20
2
0
VERTEX
8
L1D0
10
-343.5
20
1
0
VERTEX
8
L1D0
10
-344.5
20
1
0
VERTEX
8
L1D0
10
-344.5
20
-2
0
VERTEX
8
L1D0
10
-345.5
20
-2
0
VERTEX
8
L1D0
10
-345.5
20
-6
0
VERTEX
8
L1D0
10
-346.5
20
-6
0
VERTEX
8
L1D0
10
-346.5
20
-24
0
VERTEX
8
L1D0
10
-345.5
20
-24
0
VERTEX
8
L1D0
10
-345.5
20
-28
0
VERTEX
8
L1D0
10
-344.5
20
-28
0
VERTEX
8
L1D0
10
-344.5
20
-31
0
VERTEX
8
L1D0
10
-343.5
20
-31
0
VERTEX
8
L1D0
10
-343.5
20
-33
0
VERTEX
8
L1D0
10
-342.5
20
-33
0
VERTEX
8
L1D0
10
-342.5
20
-35
0
VERTEX
8
L1D0
10
-341.5
20
-35
0
VERTEX
8
L1D0
10
-341.5
20
-36
0
VERTEX
8
L1D0
10
-340.5
20
-36
0
VERTEX
8
L1D0
10
-340.5
20
-37
0
VERTEX
8
L1D0
10
-339.5
20
-37
0
VERTEX
8
L1D0
10
-339.5
20
-38
0
VERTEX
8
L1D0
10
-337.5
20
-38
0
VERTEX
8
L1D0
10
-337.5
20
-39
0
VERTEX
8
L1D0
10
-335.5
20
-39
0
VERTEX
8
L1D0
10
-335.5
20
-40
0
VERTEX
8
L1D0
10
-332.5
20
-40
0
VERTEX
8
L1D0
10
-332.5
20
-41
0
VERTEX
8
L1D0
10
-324.5
20
-41
0
VERTEX
8
L1D0
10
-324.5
20
-40
0
VERTEX
8
L1D0
10
-322.5
20
-40
0
VERTEX
8
L1D0
10
-322.5
20
-39
0
VERTEX
8
L1D0
10
-320.5
20
-39
0
VERTEX
8
L1D0
10
-320.5
20
-38
0
VERTEX
8
L1D0
10
-318.5
20
-38
0
VERTEX
8
L1D0
10
-318.5
20
-37
0
VERTEX
8
L1D0
10
-317.5
20
-37
0
VERTEX
8
L1D0
10
-317.5
20
-35
0
VERTEX
8
L1D0
10
-316.5
20
-35
0
VERTEX
8
L1D0
10
-316.5
20
-34
0
VERTEX
8
L1D0
10
-315.5
20
-34
0
VERTEX
8
L1D0
10
-315.5
20
-31
0
VERTEX
8
L1D0
10
-314.5
20
-31
0
VERTEX
8
L1D0
10
-314.5
20
-28
0
VERTEX
8
L1D0
10
-313.5
20
-28
0
VERTEX
8
L1D0
10
-313.5
20
-25
0
VERTEX
8
L1D0
10
-312.5
20
-25
0
VERTEX
8
L1D0
10
-312.5
20
-26
0
VERTEX
8
L1D0
10
-306.5
20
-26
0
VERTEX
8
L1D0
10
-306.5
20
-27
0
VERTEX
8
L1D0
10
-300.5
20
-27
0
VERTEX
8
L1D0
10
-300.5
20
-28
0
VERTEX
8
L1D0
10
-294.5
20
-28
0
VERTEX
8
L1D0
10
-294.5
20
-29
0
VERTEX
8
L1D0
10
-291.5
20
-29
0
VERTEX
8
L1D0
10
-291.5
20
-31
0
VERTEX
8
L1D0
10
-292.5
20
-31
0
VERTEX
8
L1D0
10
-292.5
20
-35
0
VERTEX
8
L1D0
10
-293.5
20
-35
0
VERTEX
8
L1D0
10
-293.5
20
-37
0
VERTEX
8
L1D0
10
-294.5
20
-37
0
VERTEX
8
L1D0
10
-294.5
20
-40
0
VERTEX
8
L1D0
10
-295.5
20
-40
0
VERTEX
8
L1D0
10
-295.5
20
-42
0
VERTEX
8
L1D0
10
-296.5
20
-42
0
VERTEX
8
L1D0
10
-296.5
20
-43
0
VERTEX
8
L1D0
10
-297.5
20
-43
0
VERTEX
8
L1D0
10
-297.5
20
-45
0
VERTEX
8
L1D0
10
-298.5
20
-45
0
VERTEX
8
L1D0
10
-298.5
20
-46
0
VERTEX
8
L1D0
10
-299.5
20
-46
0
VERTEX
8
L1D0
10
-299.5
20
-47
0
VERTEX
8
L1D0
10
-300.5
20
-47
0
VERTEX
8
L1D0
10
-300.5
20
-49
0
VERTEX
8
L1D0
10
-301.5
20
-49
0
VERTEX
8
L1D0
10
-301.5
20
-50
0
VERTEX
8
L1D0
10
-302.5
20
-50
0
VERTEX
8
L1D0
10
-302.5
20
-51
0
VERTEX
8
L1D0
10
-304.5
20
-51
0
VERTEX
8
L1D0
10
-304.5
20
-52
0
VERTEX
8
L1D0
10
-305.5
20
-52
0
VERTEX
8
L1D0
10
-305.5
20
-53
0
VERTEX
8
L1D0
10
-307.5
20
-53
0
VERTEX
8
L1D0
10
-307.5
20
-54
0
VERTEX
8
L1D0
10
-308.5
20
-54
0
VERTEX
8
L1D0
10
-308.5
20
-55
0
VERTEX
8
L1D0
10
-310.5
20
-55
0
VERTEX
8
L1D0
10
-310.5
20
-56
0
VERTEX
8
L1D0
10
-313.5
20
-56
0
VERTEX
8
L1D0
10
-313.5
20
-57
0
VERTEX
8
L1D0
10
-316.5
20
-57
0
VERTEX
8
L1D0
10
-316.5
20
-58
0
VERTEX
8
L1D0
10
-321.5
20
-58
0
VERTEX
8
L1D0
10
-321.5
20
-59
0
SEQEND
0
POLYLINE
8
L1D0
70
1
40
0
41
0
66
1
0
VERTEX
8
L1D0
10
-61.5
20
-59
0
VERTEX
8
L1D0
10
-61.5
20
-58
0
VERTEX
8
L1D0
10
-66.5
20
-58
0
VERTEX
8
L1D0
10
-66.5
20
-57
0
VERTEX
8
L1D0
10
-70.5
20
-57
0
VERTEX
8
L1D0
10
-70.5
20
-56
0
VERTEX
8
L1D0
10
-73.5
20
-56
0
VERTEX
8
L1D0
10
-73.5
20
-55
0
VERTEX
8
L1D0
10
-75.5
20
-55
0
VERTEX
8
L1D0
10
-75.5
20
-54
0
VERTEX
8
L1D0
10
-76.5
20
-54
0
VERTEX
8
L1D0
10
-76.5
20
-53
0
VERTEX
8
L1D0
10
-78.5
20
-53
0
VERTEX
8
L1D0
10
-78.5
20
-52
0
VERTEX
8
L1D0
10
-79.5
20
-52
0
VERTEX
8
L1D0
10
-79.5
20
-51
0
VERTEX
8
L1D0
10
-81.5
20
-51
0
VERTEX
8
L1D0
10
-81.5
20
-50
0
VERTEX
8
L1D0
10
-82.5
20
-50
0
VERTEX
8
L1D0
10
-82.5
20
-49
0
VERTEX
8
L1D0
10
-83.5
20
-49
0
VERTEX
8
L1D0
10
-83.5
20
-48
0
VERTEX
8
L1D0
10
-84.5
20
-48
0
VERTEX
8
L1D0
10
-84.5
20
-47
0
VERTEX
8
L1D0
10
-85.5
20
-47
0
VERTEX
8
L1D0
10
-85.5
20
-46
0
VERTEX
8
L1D0
10
-86.5
20
-46
0
VERTEX
8
L1D0
10
-86.5
20
-44
0
VERTEX
8
L1D0
10
-87.5
20
-44
0
VERTEX
8
L1D0
10
-87.5
20
-43
0
VERTEX
8
L1D0
10
-88.5
20
-43
0
VERTEX
8
L1D0
10
-88.5
20
-41
0
VERTEX
8
L1D0
10
-89.5
20
-41
0
VERTEX
8
L1D0
10
-89.5
20
-39
0
VERTEX
8
L1D0
10
-90.5
20
-39
0
VERTEX
8
L1D0
10
-90.5
20
-36
0
VERTEX
8
L1D0
10
-91.5
20
-36
0
VERTEX
8
L1D0
10
-91.5
20
-33
0
VERTEX
8
L1D0
10
-84.5
20
-33
0
VERTEX
8
L1D0
10
-84.5
20
-32
0
VERTEX
8
L1D0
10
-78.5
20
-32
0
VERTEX
8
L1D0
10
-78.5
20
-31
0
VERTEX
8
L1D0
10
-71.5
20
-31
0
VERTEX
8
L1D0
10
-71.5
20
-30
0
VERTEX
8
L1D0
10
-69.5
20
-30
0
VERTEX
8
L1D0
10
-69.5
20
-32
0
VERTEX
8
L1D0
10
-68.5
20
-32
0
VERTEX
8
L1D0
10
-68.5
20
-34
0
VERTEX
8
L1D0
10
-67.5
20
-34
0
VERTEX
8
L1D0
10
-67.5
20
-36
0
VERTEX
8
L1D0
10
-66.5
20
-36
0
VERTEX
8
L1D0
10
-66.5
20
-38
0
VERTEX
8
L1D0
10
-65.5
20
-38
0
VERTEX
8
L1D0
10
-65.5
20
-39
0
VERTEX
8
L1D0
10
-64.5
20
-39
0
VERTEX
8
L1D0
10
-64.5
20
-40
0
VERTEX
8
L1D0
10
-62.5
20
-40
0
VERTEX
8
L1D0
10
-62.5
20
-41
0
VERTEX
8
L1D0
10
-60.5
20
-41
0
VERTEX
8
L1D0
10
-60.5
20
-42
0
VERTEX
8
L1D0
10
-57.5
20
-42
0
VERTEX
8
L1D0
10
-57.5
20
-43
0
VERTEX
8
L1D0
10
-46.5
20
-43
0
VERTEX
8
L1D0
10
-46.5
20
-42
0
VERTEX
8
L1D0
10
-42.5
20
-42
0
VERTEX
8
L1D0
10
-42.5
20
-41
0
VERTEX
8
L1D0
10
-40.5
20
-41
0
VERTEX
8
L1D0
10
-40.5
20
-40
0
VERTEX
8
L1D0
10
-39.5
20
-40
0
VERTEX
8
L1D0
10
-39.5
20
-39
0
VERTEX
8
L1D0
10
-38.5
20
-39
0
VERTEX
8
L1D0
10
-38.5
20
-38
0
VERTEX
8
L1D0
10
-37.5
20
-38
0
VERTEX
8
L1D0
10
-37.5
20
-31
0
VERTEX
8
L1D0
10
-38.5
20
-31
0
VERTEX
8
L1D0
10
-38.5
20
-30
0
VERTEX
8
L1D0
10
-40.5
20
-30
0
VERTEX
8
L1D0
10
-40.5
20
-29
0
VERTEX
8
L1D0
10
-42.5
20
-29
0
VERTEX
8
L1D0
10
-42.5
20
-28
0
VERTEX
8
L1D0
10
-46.5
20
-28
0
VERTEX
8
L1D0
10
-46.5
20
-27
0
VERTEX
8
L1D0
10
-50.5
20
-27
0
VERTEX
8
L1D0
10
-50.5
20
-26
0
VERTEX
8
L1D0
10
-54.5
20
-26
0
VERTEX
8
L1D0
10
-54.5
20
-25
0
VERTEX
8
L1D0
10
-58.5
20
-25
0
VERTEX
8
L1D0
10
-58.5
20
-24
0
VERTEX
8
L1D0
10
-62.5
20
-24
0
VERTEX
8
L1D0
10
-62.5
20
-23
0
VERTEX
8
L1D0
10
-65.5
20
-23
0
VERTEX
8
L1D0
10
-65.5
20
-22
0
VERTEX
8
L1D0
10
-68.5
20
-22
0
VERTEX
8
L1D0
10
-68.5
20
-21
0
VERTEX
8
L1D0
10
-71.5
20
-21
0
VERTEX
8
L1D0
10
-71.5
20
-20
0
VERTEX
8
L1D0
10
-74.5
20
-20
0
VERTEX
8
L1D0
10
-74.5
20
-19
0
VERTEX
8
L1D0
10
-76.5
20
-19
0
VERTEX
8
L1D0
10
-76.5
20
-18
0
VERTEX
8
L1D0
10
-78.5
20
-18
0
VERTEX
8
L1D0
10
-78.5
20
-17
0
VERTEX
8
L1D0
10
-79.5
20
-17
0
VERTEX
8
L1D0
10
-79.5
20
-16
0
VERTEX
8
L1D0
10
-80.5
20
-16
0
VERTEX
8
L1D0
10
-80.5
20
-15
0
VERTEX
8
L1D0
10
-82.5
20
-15
0
VERTEX
8
L1D0
10
-82.5
20
-14
0
VERTEX
8
L1D0
10
-83.5
20
-14
0
VERTEX
8
L1D0
10
-83.5
20
-12
0
VERTEX
8
L1D0
10
-84.5
20
-12
0
VERTEX
8
L1D0
10
-84.5
20
-11
0
VERTEX
8
L1D0
10
-85.5
20
-11
0
VERTEX
8
L1D0
10
-85.5
20
-9
0
VERTEX
8
L1D0
10
-86.5
20
-9
0
VERTEX
8
L1D0
10
-86.5
20
-7
0
VERTEX
8
L1D0
10
-87.5
20
-7
0
VERTEX
8
L1D0
10
-87.5
20
-4
0
VERTEX
8
L1D0
10
-88.5
20
-4
0
VERTEX
8
L1D0
10
-88.5
20
7
0
VERTEX
8
L1D0
10
-87.5
20
7
0
VERTEX
8
L1D0
10
-87.5
20
11
0
VERTEX
8
L1D0
10
-86.5
20
11
0
VERTEX
8
L1D0
10
-86.5
20
13
0
VERTEX
8
L1D0
10
-85.5
20
13
0
VERTEX
8
L1D0
10
-85.5
20
14
0
VERTEX
8
L1D0
10
-84.5
20
14
0
VERTEX
8
L1D0
10
-84.5
20
16
0
VERTEX
8
L1D0
10
-83.5
20
16
0
VERTEX
8
L1D0
10
-83.5
20
17
0
VERTEX
8
L1D0
10
-82.5
20
17
0
VERTEX
8
L1D0
10
-82.5
20
18
0
VERTEX
8
L1D0
10
-81.5
20
18
0
VERTEX
8
L1D0
10
-81.5
20
19
0
VERTEX
8
L1D0
10
-80.5
20
19
0
VERTEX
8
L1D0
10
-80.5
20
20
0
VERTEX
8
L1D0
10
-79.5
20
20
0
VERTEX
8
L1D0
10
-79.5
20
21
0
VERTEX
8
L1D0
10
-77.5
20
21
0
VERTEX
8
L1D0
10
-77.5
20
22
0
VERTEX
8
L1D0
10
-76.5
20
22
0
VERTEX
8
L1D0
10
-76.5
20
23
0
VERTEX
8
L1D0
10
-74.5
20
23
0
VERTEX
8
L1D0
10
-74.5
20
24
0
VERTEX
8
L1D0
10
-71.5
20
24
0
VERTEX
8
L1D0
10
-71.5
20
25
0
VERTEX
8
L1D0
10
-68.5
20
25
0
VERTEX
8
L1D0
10
-68.5
20
26
0
VERTEX
8
L1D0
10
-62.5
20
26
0
VERTEX
8
L1D0
10
-62.5
20
27
0
VERTEX
8
L1D0
10
-44.5
20
27
0
VERTEX
8
L1D0
10
-44.5
20
26
0
VERTEX
8
L1D0
10
-38.5
20
26
0
VERTEX
8
L1D0
10
-38.5
20
25
0
VERTEX
8
L1D0
10
-35.5
20
25
0
VERTEX
8
L1D0
10
-35.5
20
24
0
VERTEX
8
L1D0
10
-32.5
20
24
0
VERTEX
8
L1D0
10
-32.5
20
23
0
VERTEX
8
L1D0
10
-30.5
20
23
0
VERTEX
8
L1D0
10
-30.5
20
22
0
VERTEX
8
L1D0
10
-28.5
20
22
0
VERTEX
8
L1D0
10
-28.5
20
21
0
VERTEX
8
L1D0
10
-27.5
20
21
0
VERTEX
8
L1D0
10
-27.5
20
20
0
VERTEX
8
L1D0
10
-26.5
20
20
0
VERTEX
8
L1D0
10
-26.5
20
19
0
VERTEX
8
L1D0
10
-25.5
20
19
0
VERTEX
8
L1D0
10
-25.5
20
18
0
VERTEX
8
L1D0
10
-24.5
20
18
0
VERTEX
8
L1D0
10
-24.5
20
17
0
VERTEX
8
L1D0
10
-23.5
20
17
0
VERTEX
8
L1D0
10
-23.5
20
16
0
VERTEX
8
L1D0
10
-22.5
20
16
0
VERTEX
8
L1D0
10
-22.5
20
15
0
VERTEX
8
L1D0
10
-21.5
20
15
0
VERTEX
8
L1D0
10
-21.5
20
13
0
VERTEX
8
L1D0
10
-20.5
20
13
0
VERTEX
8
L1D0
10
-20.5
20
12
0
VERTEX
8
L1D0
10
-19.5
20
12
0
VERTEX
8
L1D0
10
-19.5
20
10
0
VERTEX
8
L1D0
10
-18.5
20
10
0
VERTEX
8
L1D0
10
-18.5
20
7
0
VERTEX
8
L1D0
10
-17.5
20
7
0
VERTEX
8
L1D0
10
-17.5
20
5
0
VERTEX
8
L1D0
10
-19.5
20
5
0
VERTEX
8
L1D0
10
-19.5
20
4
0
VERTEX
8
L1D0
10
-24.5
20
4
0
VERTEX
8
L1D0
10
-24.5
20
3
0
VERTEX
8
L1D0
10
-30.5
20
3
0
VERTEX
8
L1D0
10
-30.5
20
2
0
VERTEX
8
L1D0
10
-35.5
20
2
0
VERTEX
8
L1D0
10
-35.5
20
1
0
VERTEX
8
L1D0
10
-38.5
20
1
0
VERTEX
8
L1D0
10
-38.5
20
3
0
VERTEX
8
L1D0
10
-39.5
20
3
0
VERTEX
8
L1D0
10
-39.5
20
5
0
VERTEX
8
L1D0
10
-40.5
20
5
0
VERTEX
8
L1D0
10
-40.5
20
6
0
VERTEX
8
L1D0
10
-41.5
20
6
0
VERTEX
8
L1D0
10
-41.5
20
7
0
VERTEX
8
L1D0
10
-42.5
20
7
0
VERTEX
8
L1D0
10
-42.5
20
8
0
VERTEX
8
L1D0
10
-43.5
20
8
0
VERTEX
8
L1D0
10
-43.5
20
9
0
VERTEX
8
L1D0
10
-45.5
20
9
0
VERTEX
8
L1D0
10
-45.5
20
10
0
VERTEX
8
L1D0
10
-48.5
20
10
0
VERTEX
8
L1D0
10
-48.5
20
11
0
VERTEX
8
L1D0
10
-59.5
20
11
0
VERTEX
8
L1D0
10
-59.5
20
10
0
VERTEX
8
L1D0
10
-63.5
20
10
0
VERTEX
8
L1D0
10
-63.5
20
9
0
VERTEX
8
L1D0
10
-65.5
20
9
0
VERTEX
8
L1D0
10
-65.5
20
8
0
VERTEX
8
L1D0
10
-66.5
20
8
0
VERTEX
8
L1D0
10
-66.5
20
7
0
VERTEX
8
L1D0
10
-67.5
20
7
0
VERTEX
8
L1D0
10
-67.5
20
2
0
VERTEX
8
L1D0
10
-66.5
20
2
0
VERTEX
8
L1D0
10
-66.5
20
1
0
VERTEX
8
L1D0
10
-65.5
20
1
0
VERTEX
8
L1D0
10
-65.5
20
0
0
VERTEX
8
L1D0
10
-63.5
20
0
0
VERTEX
8
L1D0
10
-63.5
20
-1
0
VERTEX
8
L1D0
10
-60.5
20
-1
0
VERTEX
8
L1D0
10
-60.5
20
-2
0
VERTEX
8
L1D0
10
-57.5
20
-2
0
VERTEX
8
L1D0
10
-57.5
20
-3
0
VERTEX
8
L1D0
10
-53.5
20
-3
0
VERTEX
8
L1D0
10
-53.5
20
-4
0
VERTEX
8
L1D0
10
-49.5
20
-4
0
VERTEX
8
L1D0
10
-49.5
20
-5
0
VERTEX
8
L1D0
10
-45.5
20
-5
0
VERTEX
8
L1D0
10
-45.5
20
-6
0
VERTEX
8
L1D0
10
-41.5
20
-6
0
VERTEX
8
L1D0
10
-41.5
20
-7
0
VERTEX
8
L1D0
10
-37.5
20
-7
0
VERTEX
8
L1D0
10
-37.5
20
-8
0
VERTEX
8
L1D0
10
-34.5
20
-8
0
VERTEX
8
L1D0
10
-34.5
20
-9
0
VERTEX
8
L1D0
10
-31.5
20
-9
0
VERTEX
8
L1D0
10
-31.5
20
-10
0
VERTEX
8
L1D0
10
-29.5
20
-10
0
VERTEX
8
L1D0
10
-29.5
20
-11
0
VERTEX
8
L1D0
10
-27.5
20
-11
0
VERTEX
8
L1D0
10
-27.5
20
-12
0
VERTEX
8
L1D0
10
-25.5
20
-12
0
VERTEX
8
L1D0
10
-25.5
20
-13
0
VERTEX
8
L1D0
10
-23.5
20
-13
0
VERTEX
8
L1D0
10
-23.5
20
-14
0
VERTEX
8
L1D0
10
-22.5
20
-14
0
VERTEX
8
L1D0
10
-22.5
20
-15
0
VERTEX
8
L1D0
10
-20.5
20
-15
0
VERTEX
8
L1D0
10
-20.5
20
-16
0
VERTEX
8
L1D0
10
-19.5
20
-16
0
VERTEX
8
L1D0
10
-19.5
20
-18
0
VERTEX
8
L1D0
10
-18.5
20
-18
0
VERTEX
8
L1D0
10
-18.5
20
-19
0
VERTEX
8
L1D0
10
-17.5
20
-19
0
VERTEX
8
L1D0
10
-17.5
20
-21
0
VERTEX
8
L1D0
10
-16.5
20
-21
0
VERTEX
8
L1D0
10
-16.5
20
-23
0
VERTEX
8
L1D0
10
-15.5
20
-23
0
VERTEX
8
L1D0
10
-15.5
20
-27
0
VERTEX
8
L1D0
10
-14.5
20
-27
0
VERTEX
8
L1D0
10
-14.5
20
-35
0
VERTEX
8
L1D0
10
-15.5
20
-35
0
VERTEX
8
L1D0
10
-15.5
20
-39
0
VERTEX
8
L1D0
10
-16.5
20
-39
0
VERTEX
8
L1D0
10
-16.5
20
-42
0
VERTEX
8
L1D0
10
-17.5
20
-42
0
VERTEX
8
L1D0
10
-17.5
20
-44
0
VERTEX
8
L1D0
10
-18.5
20
-44
0
VERTEX
8
L1D0
10
-18.5
20
-45
0
VERTEX
8
L1D0
10
-19.5
20
-45
0
VERTEX
8
L1D0
10
-19.5
20
-47
0
VERTEX
8
L1D0
10
-20.5
20
-47
0
VERTEX
8
L1D0
10
-20.5
20
-48
0
VERTEX
8
L1D0
10
-21.5
20
-48
0
VERTEX
8
L1D0
10
-21.5
20
-49
0
VERTEX
8
L1D0
10
-22.5
20
-49
0
VERTEX
8
L1D0
10
-22.5
20
-50
0
VERTEX
8
L1D0
10
-23.5
20
-50
0
VERTEX
8
L1D0
10
-23.5
20
-51
0
VERTEX
8
L1D0
10
-24.5
20
-51
0
VERTEX
8
L1D0
10
-24.5
20
-52
0
VERTEX
8
L1D0
10
-26.5
20
-52
0
VERTEX
8
L1D0
10
-26.5
20
-53
0
VERTEX
8
L1D0
10
-27.5
20
-53
0
VERTEX
8
L1D0
10
-27.5
20
-54
0
VERTEX
8
L1D0
10
-29.5
20
-54
0
VERTEX
8
L1D0
10
-29.5
20
-55
0
VERTEX
8
L1D0
10
-31.5
20
-55
0
VERTEX
8
L1D0
10
-31.5
20
-56
0
VERTEX
8
L1D0
10
-34.5
20
-56
0
VERTEX
8
L1D0
10
-34.5
20
-57
0
VERTEX
8
L1D0
10
-37.5
20
-57
0
VERTEX
8
L1D0
10
-37.5
20
-58
0
VERTEX
8
L1D0
10
-42.5
20
-58
0
VERTEX
8
L1D0
10
-42.5
20
-59
0
SEQEND
0
POLYLINE
8
L1D0
70
1
40
0
41
0
66
1
0
VERTEX
8
L1D0
10
81.5
20
-59
0
VERTEX
8
L1D0
10
81.5
20
-58
0
VERTEX
8
L1D0
10
76.5
20
-58
0
VERTEX
8
L1D0
10
76.5
20
-57
0
VERTEX
8
L1D0
10
73.5
20
-57
0
VERTEX
8
L1D0
10
73.5
20
-56
0
VERTEX
8
L1D0
10
70.5
20
-56
0
VERTEX
8
L1D0
10
70.5
20
-55
0
VERTEX
8
L1D0
10
68.5
20
-55
0
VERTEX
8
L1D0
10
68.5
20
-54
0
VERTEX
8
L1D0
10
67.5
20
-54
0
VERTEX
8
L1D0
10
67.5
20
-53
0
VERTEX
8
L1D0
10
65.5
20
-53
0
VERTEX
8
L1D0
10
65.5
20
-52
0
VERTEX
8
L1D0
10
64.5
20
-52
0
VERTEX
8
L1D0
10
64.5
20
-51
0
VERTEX
8
L1D0
10
62.5
20
-51
0
VERTEX
8
L1D0
10
62.5
20
-50
0
VERTEX
8
L1D0
10
61.5
20
-50
0
VERTEX
8
L1D0
10
61.5
20
-49
0
VERTEX
8
L1D0
10
60.5
20
-49
0
VERTEX
8
L1D0
10
60.5
20
-48
0
VERTEX
8
L1D0
10
59.5
20
-48
0
VERTEX
8
L1D0
10
59.5
20
-46
0
VERTEX
8
L1D0
10
58.5
20
-46
0
VERTEX
8
L1D0
10
58.5
20
-45
0
VERTEX
8
L1D0
10
57.5
20
-45
0
VERTEX
8
L1D0
10
57.5
20
-44
0
VERTEX
8
L1D0
10
56.5
20
-44
0
VERTEX
8
L1D0
10
56.5
20
-42
0
VERTEX
8
L1D0
10
55.5
20
-42
0
VERTEX
8
L1D0
10
55.5
20
-40
0
VERTEX
8
L1D0
10
54.5
20
-40
0
VERTEX
8
L1D0
10
54.5
20
-38
0
VERTEX
8
L1D0
10
53.5
20
-38
0
VERTEX
8
L1D0
10
53.5
20
-36
0
VERTEX
8
L1D0
10
52.5
20
-36
0
VERTEX
8
L1D0
10
52.5
20
-33
0
VERTEX
8
L1D0
10
51.5
20
-33
0
VERTEX
8
L1D0
10
51.5
20
-29
0
VERTEX
8
L1D0
10
50.5
20
-29
0
VERTEX
8
L1D0
10
50.5
20
-21
0
VERTEX
8
L1D0
10
49.5
20
-21
0
VERTEX
8
L1D0
10
49.5
20
-12
0
VERTEX
8
L1D0
10
50.5
20
-12
0
VERTEX
8
L1D0
10
50.5
20
-4
0
VERTEX
8
L1D0
10
51.5
20
-4
0
VERTEX
8
L1D0
10
51.5
20
0
0
VERTEX
8
L1D0
10
52.5
20
0
0
VERTEX
8
L1D0
10
52.5
20
3
0
VERTEX
8
L1D0
10
53.5
20
3
0
VERTEX
8
L1D0
10
53.5
20
5
0
VERTEX
8
L1D0
10
54.5
20
5
0
VERTEX
8
L1D0
10
54.5
20
8
0
VERTEX
8
L1D0
10
55.5
20
8
0
VERTEX
8
L1D0
10
55.5
20
9
0
VERTEX
8
L1D0
10
56.5
20
9
0
VERTEX
8
L1D0
10
56.5
20
10
0
VERTEX
8
L1D0
10
85.5
20
10
0
VERTEX
8
L1D0
10
85.5
20
9
0
VERTEX
8
L1D0
10
82.5
20
9
0
VERTEX
8
L1D0
10
82.5
20
8
0
VERTEX
8
L1D0
10
80.5
20
8
0
VERTEX
8
L1D0
10
80.5
20
7
0
VERTEX
8
L1D0
10
79.5
20
7
0
VERTEX
8
L1D0
10
79.5
20
6
0
VERTEX
8
L1D0
10
78.5
20
6
0
VERTEX
8
L1D0
10
78.5
20
5
0
VERTEX
8
L1D0
10
77.5
20
5
0
VERTEX
8
L1D0
10
77.5
20
4
0
VERTEX
8
L1D0
10
76.5
20
4
0
VERTEX
8
L1D0
10
76.5
20
3
0
VERTEX
8
L1D0
10
75.5
20
3
0
VERTEX
8
L1D0
10
75.5
20
1
0
VERTEX
8
L1D0
10
74.5
20
1
0
VERTEX
8
L1D0
10
74.5
20
-1
0
VERTEX
8
L1D0
10
73.5
20
-1
0
VERTEX
8
L1D0
10
73.5
20
-6
0
VERTEX
8
L1D0
10
72.5
20
-6
0
VERTEX
8
L1D0
10
72.5
20
-9
0
VERTEX
8
L1D0
10
104.5
20
-9
0
VERTEX
8
L1D0
10
104.5
20
-3
0
VERTEX
8
L1D0
10
103.5
20
-3
0
VERTEX
8
L1D0
10
103.5
20
0
0
VERTEX
8
L1D0
10
102.5
20
0
0
VERTEX
8
L1D0
10
102.5
20
2
0
VERTEX
8
L1D0
10
101.5
20
2
0
VERTEX
8
L1D0
10
101.5
20
4
0
VERTEX
8
L1D0
10
100.5
20
4
0
VERTEX
8
L1D0
10
100.5
20
5
0
VERTEX
8
L1D0
10
99.5
20
5
0
VERTEX
8
L1D0
10
99.5
20
6
0
VERTEX
8
L1D0
10
98.5
20
6
0
VERTEX
8
L1D0
10
98.5
20
7
0
VERTEX
8
L1D0
10
97.5
20
7
0
VERTEX
8
L1D0
10
97.5
20
8
0
VERTEX
8
L1D0
10
95.5
20
8
0
VERTEX
8
L1D0
10
95.5
20
9
0
VERTEX
8
L1D0
10
92.5
20
9
0
VERTEX
8
L1D0
10
92.5
20
10
0
VERTEX
8
L1D0
10
56.5
20
10
0
VERTEX
8
L1D0
10
56.5
20
11
0
VERTEX
8
L1D0
10
57.5
20
11
0
VERTEX
8
L1D0
10
57.5
20
12
0
VERTEX
8
L1D0
10
58.5
20
12
0
VERTEX
8
L1D0
10
58.5
20
14
0
VERTEX
8
L1D0
10
59.5
20
14
0
VERTEX
8
L1D0
10
59.5
20
15
0
VERTEX
8
L1D0
10
60.5
20
15
0
VERTEX
8
L1D0
10
60.5
20
16
0
VERTEX
8
L1D0
10
61.5
20
16
0
VERTEX
8
L1D0
10
61.5
20
17
0
VERTEX
8
L1D0
10
62.5
20
17
0
VERTEX
8
L1D0
10
62.5
20
18
0
VERTEX
8
L1D0
10
63.5
20
18
0
VERTEX
8
L1D0
10
63.5
20
19
0
VERTEX
8
L1D0
10
64.5
20
19
0
VERTEX
8
L1D0
10
64.5
20
20
0
VERTEX
8
L1D0
10
66.5
20
20
0
VERTEX
8
L1D0
10
66.5
20
21
0
VERTEX
8
L1D0
10
67.5
20
21
0
VERTEX
8
L1D0
10
67.5
20
22
0
VERTEX
8
L1D0
10
69.5
20
22
0
VERTEX
8
L1D0
10
69.5
20
23
0
VERTEX
8
L1D0
10
71.5
20
23
0
VERTEX
8
L1D0
10
71.5
20
24
0
VERTEX
8
L1D0
10
73.5
20
24
0
VERTEX
8
L1D0
10
73.5
20
25
0
VERTEX
8
L1D0
10
76.5
20
25
0
VERTEX
8
L1D0
10
76.5
20
26
0
VERTEX
8
L1D0
10
81.5
20
26
0
VERTEX
8
L1D0
10
81.5
20
27
0
VERTEX
8
L1D0
10
94.5
20
27
0
VERTEX
8
L1D0
10
94.5
20
26
0
VERTEX
8
L1D0
10
99.5
20
26
0
VERTEX
8
L1D0
10
99.5
20
25
0
VERTEX
8
L1D0
10
102.5
20
25
0
VERTEX
8
L1D0
10
102.5
20
24
0
VERTEX
8
L1D0
10
105.5
20
24
0
VERTEX
8
L1D0
10
105.5
20
23
0
VERTEX
8
L1D0
10
107.5
20
23
0
VERTEX
8
L1D0
10
107.5
20
22
0
VERTEX
8
L1D0
10
108.5
20
22
0
VERTEX
8
L1D0
10
108.5
20
21
0
VERTEX
8
L1D0
10
110.5
20
21
0
VERTEX
8
L1D0
10
110.5
20
20
0
VERTEX
8
L1D0
10
111.5
20
20
0
VERTEX
8
L1D0
10
111.5
20
19
0
VERTEX
8
L1D0
10
112.5
20
19
0
VERTEX
8
L1D0
10
112.5
20
18
0
VERTEX
8
L1D0
10
114.5
20
18
0
VERTEX
8
L1D0
10
114.5
20
17
0
VERTEX
8
L1D0
10
115.5
20
17
0
VERTEX
8
L1D0
10
115.5
20
16
0
VERTEX
8
L1D0
10
116.5
20
16
0
VERTEX
8
L1D0
10
116.5
20
14
0
VERTEX
8
L1D0
10
117.5
20
14
0
VERTEX
8
L1D0
10
117.5
20
13
0
VERTEX
8
L1D0
10
118.5
20
13
0
VERTEX
8
L1D0
10
118.5
20
12
0
VERTEX
8
L1D0
10
119.5
20
12
0
VERTEX
8
L1D0
10
119.5
20
10
0
VERTEX
8
L1D0
10
120.5
20
10
0
VERTEX
8
L1D0
10
120.5
20
9
0
VERTEX
8
L1D0
10
121.5
20
9
0
VERTEX
8
L1D0
10
121.5
20
7
0
VERTEX
8
L1D0
10
122.5
20
7
0
VERTEX
8
L1D0
10
122.5
20
4
0
VERTEX
8
L1D0
10
123.5
20
4
0
VERTEX
8
L1D0
10
123.5
20
1
0
VERTEX
8
L1D0
10
124.5
20
1
0
VERTEX
8
L1D0
10
124.5
20
-2
0
VERTEX
8
L1D0
10
125.5
20
-2
0
VERTEX
8
L1D0
10
125.5
20
-8
0
VERTEX
8
L1D0
10
126.5
20
-8
0
VERTEX
8
L1D0
10
126.5
20
-23
0
VERTEX
8
L1D0
10
72.5
20
-23
0
VERTEX
8
L1D0
10
72.5
20
-27
0
VERTEX
8
L1D0
10
73.5
20
-27
0
VERTEX
8
L1D0
10
73.5
20
-31
0
VERTEX
8
L1D0
10
74.5
20
-31
0
VERTEX
8
L1D0
10
74.5
20
-33
0
VERTEX
8
L1D0
10
75.5
20
-33
0
VERTEX
8
L1D0
10
75.5
20
-35
0
VERTEX
8
L1D0
10
76.5
20
-35
0
VERTEX
8
L1D0
10
76.5
20
-36
0
VERTEX
8
L1D0
10
77.5
20
-36
0
VERTEX
8
L1D0
10
77.5
20
-37
0
VERTEX
8
L1D0
10
78.5
20
-37
0
VERTEX
8
L1D0
10
78.5
20
-38
0
VERTEX
8
L1D0
10
79.5
20
-38
0
VERTEX
8
L1D0
10
79.5
20
-39
0
VERTEX
8
L1D0
10
80.5
20
-39
0
VERTEX
8
L1D0
10
80.5
20
-40
0
VERTEX
8
L1D0
10
82.5
20
-40
0
VERTEX
8
L1D0
10
82.5
20
-41
0
VERTEX
8
L1D0
10
84.5
20
-41
0
VERTEX
8
L1D0
10
84.5
20
-42
0
VERTEX
8
L1D0
10
95.5
20
-42
0
VERTEX
8
L1D0
10
95.5
20
-41
0
VERTEX
8
L1D0
10
97.5
20
-41
0
VERTEX
8
L1D0
10
97.5
20
-40
0
VERTEX
8
L1D0
10
98.5
20
-40
0
VERTEX
8
L1D0
10
98.5
20
-39
0
VERTEX
8
L1D0
10
99.5
20
-39
0
VERTEX
8
L1D0
10
99.5
20
-38
0
VERTEX
8
L1D0
10
100.5
20
-38
0
VERTEX
8
L1D0
10
100.5
20
-37
0
VERTEX
8
L1D0
10
101.5
20
-37
0
VERTEX
8
L1D0
10
101.5
20
-35
0
VERTEX
8
L1D0
10
102.5
20
-35
0
VERTEX
8
L1D0
10
102.5
20
-32
0
VERTEX
8
L1D0
10
103.5
20
-32
0
VERTEX
8
L1D0
10
103.5
20
-31
0
VERTEX
8
L1D0
10
108.5
20
-31
0
VERTEX
8
L1D0
10
108.5
20
-32
0
VERTEX
8
L1D0
10
114.5
20
-32
0
VERTEX
8
L1D0
10
114.5
20
-33
0
VERTEX
8
L1D0
10
120.5
20
-33
0
VERTEX
8
L1D0
10
120.5
20
-34
0
VERTEX
8
L1D0
10
125.5
20
-34
0
VERTEX
8
L1D0
10
125.5
20
-37
0
VERTEX
8
L1D0
10
124.5
20
-37
0
VERTEX
8
L1D0
10
124.5
20
-39
0
VERTEX
8
L1D0
10
123.5
20
-39
0
VERTEX
8
L1D0
10
123.5
20
-41
0
VERTEX
8
L1D0
10
122.5
20
-41
0
VERTEX
8
L1D0
10
122.5
20
-43
0
VERTEX
8
L1D0
10
121.5
20
-43
0
VERTEX
8
L1D0
10
121.5
20
-44
0
VERTEX
8
L1D0
10
120.5
20
-44
0
VERTEX
8
L1D0
10
120.5
20
-46
0
VERTEX
8
L1D0
10
119.5
20
-46
0
VERTEX
8
L1D0
10
119.5
20
-47
0
VERTEX
8
L1D0
10
118.5
20
-47
0
VERTEX
8
L1D0
10
118.5
20
-48
0
VERTEX
8
L1D0
10
117.5
20
-48
0
VERTEX
8
L1D0
10
117.5
20
-49
0
VERTEX
8
L1D0
10
116.5
20
-49
0
VERTEX
8
L1D0
10
116.5
20
-50
0
VERTEX
8
L1D0
10
115.5
20
-50
0
VERTEX
8
L1D0
10
115.5
20
-51
0
VERTEX
8
L1D0
10
114.5
20
-51
0
VERTEX
8
L1D0
10
114.5
20
-52
0
VERTEX
8
L1D0
10
112.5
20
-52
0
VERTEX
8
L1D0
10
112.5
20
-53
0
VERTEX
8
L1D0
10
111.5
20
-53
0
VERTEX
8
L1D0
10
111.5
20
-54
0
VERTEX
8
L1D0
10
109.5
20
-54
0
VERTEX
8
L1D0
10
109.5
20
-55
0
VERTEX
8
L1D0
10
107.5
20
-55
0
VERTEX
8
L1D0
10
107.5
20
-56
0
VERTEX
8
L1D0
10
105.5
20
-56
0
VERTEX
8
L1D0
10
105.5
20
-57
0
VERTEX
8
L1D0
10
102.5
20
-57
0
VERTEX
8
L1D0
10
102.5
20
-58
0
VERTEX
8
L1D0
10
97.5
20
-58
0
VERTEX
8
L1D0
10
97.5
20
-59
0
SEQEND
0
POLYLINE
8
L1D0
70
1
40
0
41
0
66
1
0
VERTEX
8
L1D0
10
142.5
20
-57
0
VERTEX
8
L1D0
10
142.5
20
25
0
VERTEX
8
L1D0
10
163.5
20
25
0
VERTEX
8
L1D0
10
163.5
20
15
0
VERTEX
8
L1D0
10
164.5
20
15
0
VERTEX
8
L1D0
10
164.5
20
16
0
VERTEX
8
L1D0
10
165.5
20
16
0
VERTEX
8
L1D0
10
165.5
20
18
0
VERTEX
8
L1D0
10
166.5
20
18
0
VERTEX
8
L1D0
10
166.5
20
19
0
VERTEX
8
L1D0
10
167.5
20
19
0
VERTEX
8
L1D0
10
167.5
20
20
0
VERTEX
8
L1D0
10
168.5
20
20
0
VERTEX
8
L1D0
10
168.5
20
21
0
VERTEX
8
L1D0
10
169.5
20
21
0
VERTEX
8
L1D0
10
169.5
20
22
0
VERTEX
8
L1D0
10
170.5
20
22
0
VERTEX
8
L1D0
10
170.5
20
23
0
VERTEX
8
L1D0
10
171.5
20
23
0
VERTEX
8
L1D0
10
171.5
20
24
0
VERTEX
8
L1D0
10
172.5
20
24
0
VERTEX
8
L1D0
10
172.5
20
25
0
VERTEX
8
L1D0
10
174.5
20
25
0
VERTEX
8
L1D0
10
174.5
20
26
0
VERTEX
8
L1D0
10
177.5
20
26
0
VERTEX
8
L1D0
10
177.5
20
27
0
VERTEX
8
L1D0
10
187.5
20
27
0
VERTEX
8
L1D0
10
187.5
20
26
0
VERTEX
8
L1D0
10
190.5
20
26
0
VERTEX
8
L1D0
10
190.5
20
25
0
VERTEX
8
L1D0
10
193.5
20
25
0
VERTEX
8
L1D0
10
193.5
20
24
0
VERTEX
8
L1D0
10
195.5
20
24
0
VERTEX
8
L1D0
10
195.5
20
23
0
VERTEX
8
L1D0
10
196.5
20
23
0
VERTEX
8
L1D0
10
196.5
20
21
0
VERTEX
8
L1D0
10
195.5
20
21
0
VERTEX
8
L1D0
10
195.5
20
18
0
VERTEX
8
L1D0
10
194.5
20
18
0
VERTEX
8
L1D0
10
194.5
20
15
0
VERTEX
8
L1D0
10
193.5
20
15
0
VERTEX
8
L1D0
10
193.5
20
13
0
VERTEX
8
L1D0
10
192.5
20
13
0
VERTEX
8
L1D0
10
192.5
20
10
0
VERTEX
8
L1D0
10
191.5
20
10
0
VERTEX
8
L1D0
10
191.5
20
7
0
VERTEX
8
L1D0
10
190.5
20
7
0
VERTEX
8
L1D0
10
190.5
20
4
0
VERTEX
8
L1D0
10
187.5
20
4
0
VERTEX
8
L1D0
10
187.5
20
5
0
VERTEX
8
L1D0
10
185.5
20
5
0
VERTEX
8
L1D0
10
185.5
20
6
0
VERTEX
8
L1D0
10
183.5
20
6
0
VERTEX
8
L1D0
10
183.5
20
7
0
VERTEX
8
L1D0
10
175.5
20
7
0
VERTEX
8
L1D0
10
175.5
20
6
0
VERTEX
8
L1D0
10
173.5
20
6
0
VERTEX
8
L1D0
10
173.5
20
5
0
VERTEX
8
L1D0
10
171.5
20
5
0
VERTEX
8
L1D0
10
171.5
20
4
0
VERTEX
8
L1D0
10
170.5
20
4
0
VERTEX
8
L1D0
10
170.5
20
3
0
VERTEX
8
L1D0
10
169.5
20
3
0
VERTEX
8
L1D0
10
169.5
20
1
0
VERTEX
8
L1D0
10
168.5
20
1
0
VERTEX
8
L1D0
10
168.5
20
-1
0
VERTEX
8
L1D0
10
167.5
20
-1
0
VERTEX
8
L1D0
10
167.5
20
-4
0
VERTEX
8
L1D0
10
166.5
20
-4
0
VERTEX
8
L1D0
10
166.5
20
-10
0
VERTEX
8
L1D0
10
165.5
20
-10
0
VERTEX
8
L1D0
10
165.5
20
-57
0
SEQEND
0
POLYLINE
8
L1D0
70
1
40
0
41
0
66
1
0
VERTEX
8
L1D0
10
298.5
20
-59
0
VERTEX
8
L1D0
10
298.5
20
-58
0
VERTEX
8
L1D0
10
294.5
20
-58
0
VERTEX
8
L1D0
10
294.5
20
-57
0
VERTEX
8
L1D0
10
292.5
20
-57
0
VERTEX
8
L1D0
10
292.5
20
-56
0
VERTEX
8
L1D0
10
290.5
20
-56
0
VERTEX
8
L1D0
10
290.5
20
-55
0
VERTEX
8
L1D0
10
288.5
20
-55
0
VERTEX
8
L1D0
10
288.5
20
-54
0
VERTEX
8
L1D0
10
287.5
20
-54
0
VERTEX
8
L1D0
10
287.5
20
-53
0
VERTEX
8
L1D0
10
286.5
20
-53
0
VERTEX
8
L1D0
10
286.5
20
-52
0
VERTEX
8
L1D0
10
285.5
20
-52
0
VERTEX
8
L1D0
10
285.5
20
-51
0
VERTEX
8
L1D0
10
284.5
20
-51
0
VERTEX
8
L1D0
10
284.5
20
-50
0
VERTEX
8
L1D0
10
283.5
20
-50
0
VERTEX
8
L1D0
10
283.5
20
-49
0
VERTEX
8
L1D0
10
282.5
20
-49
0
VERTEX
8
L1D0
10
282.5
20
-47
0
VERTEX
8
L1D0
10
281.5
20
-47
0
VERTEX
8
L1D0
10
281.5
20
-46
0
VERTEX
8
L1D0
10
280.5
20
-46
0
VERTEX
8
L1D0
10
280.5
20
-43
0
VERTEX
8
L1D0
10
279.5
20
-43
0
VERTEX
8
L1D0
10
279.5
20
-40
0
VERTEX
8
L1D0
10
278.5
20
-40
0
VERTEX
8
L1D0
10
278.5
20
-30
0
VERTEX
8
L1D0
10
279.5
20
-30
0
VERTEX
8
L1D0
10
279.5
20
-26
0
VERTEX
8
L1D0
10
280.5
20
-26
0
VERTEX
8
L1D0
10
280.5
20
-24
0
VERTEX
8
L1D0
10
281.5
20
-24
0
VERTEX
8
L1D0
10
281.5
20
-22
0
VERTEX
8
L1D0
10
282.5
20
-22
0
VERTEX
8
L1D0
10
282.5
20
-21
0
VERTEX
8
L1D0
10
283.5
20
-21
0
VERTEX
8
L1D0
10
283.5
20
-19
0
VERTEX
8
L1D0
10
284.5
20
-19
0
VERTEX
8
L1D0
10
284.5
20
-18
0
VERTEX
8
L1D0
10
328.5
20
-18
0
VERTEX
8
L1D0
10
328.5
20
-19
0
VERTEX
8
L1D0
10
324.5
20
-19
0
VERTEX
8
L1D0
10
324.5
20
-20
0
VERTEX
8
L1D0
10
320.5
20
-20
0
VERTEX
8
L1D0
10
320.5
20
-21
0
VERTEX
8
L1D0
10
316.5
20
-21
0
VERTEX
8
L1D0
10
316.5
20
-22
0
VERTEX
8
L1D0
10
311.5
20
-22
0
VERTEX
8
L1D0
10
311.5
20
-23
0
VERTEX
8
L1D0
10
308.5
20
-23
0
VERTEX
8
L1D0
10
308.5
20
-24
0
VERTEX
8
L1D0
10
306.5
20
-24
0
VERTEX
8
L1D0
10
306.5
20
-25
0
VERTEX
8
L1D0
10
304.5
20
-25
0
VERTEX
8
L1D0
10
304.5
20
-26
0
VERTEX
8
L1D0
10
303.5
20
-26
0
VERTEX
8
L1D0
10
303.5
20
-27
0
VERTEX
8
L1D0
10
302.5
20
-27
0
VERTEX
8
L1D0
10
302.5
20
-28
0
VERTEX
8
L1D0
10
301.5
20
-28
0
VERTEX
8
L1D0
10
301.5
20
-30
0
VERTEX
8
L1D0
10
300.5
20
-30
0
VERTEX
8
L1D0
10
300.5
20
-35
0
VERTEX
8
L1D0
10
301.5
20
-35
0
VERTEX
8
L1D0
10
301.5
20
-37
0
VERTEX
8
L1D0
10
302.5
20
-37
0
VERTEX
8
L1D0
10
302.5
20
-39
0
VERTEX
8
L1D0
10
303.5
20
-39
0
VERTEX
8
L1D0
10
303.5
20
-40
0
VERTEX
8
L1D0
10
304.5
20
-40
0
VERTEX
8
L1D0
10
304.5
20
-41
0
VERTEX
8
L1D0
10
305.5
20
-41
0
VERTEX
8
L1D0
10
305.5
20
-42
0
VERTEX
8
L1D0
10
307.5
20
-42
0
VERTEX
8
L1D0
10
307.5
20
-43
0
VERTEX
8
L1D0
10
317.5
20
-43
0
VERTEX
8
L1D0
10
317.5
20
-42
0
VERTEX
8
L1D0
10
320.5
20
-42
0
VERTEX
8
L1D0
10
320.5
20
-41
0
VERTEX
8
L1D0
10
321.5
20
-41
0
VERTEX
8
L1D0
10
321.5
20
-40
0
VERTEX
8
L1D0
10
323.5
20
-40
0
VERTEX
8
L1D0
10
323.5
20
-39
0
VERTEX
8
L1D0
10
324.5
20
-39
0
VERTEX
8
L1D0
10
324.5
20
-38
0
VERTEX
8
L1D0
10
325.5
20
-38
0
VERTEX
8
L1D0
10
325.5
20
-37
0
VERTEX
8
L1D0
10
326.5
20
-37
0
VERTEX
8
L1D0
10
326.5
20
-36
0
VERTEX
8
L1D0
10
327.5
20
-36
0
VERTEX
8
L1D0
10
327.5
20
-34
0
VERTEX
8
L1D0
10
328.5
20
-34
0
VERTEX
8
L1D0
10
328.5
20
-30
0
VERTEX
8
L1D0
10
329.5
20
-30
0
VERTEX
8
L1D0
10
329.5
20
-18
0
VERTEX
8
L1D0
10
285.5
20
-18
0
VERTEX
8
L1D0
10
285.5
20
-17
0
VERTEX
8
L1D0
10
286.5
20
-17
0
VERTEX
8
L1D0
10
286.5
20
-16
0
VERTEX
8
L1D0
10
288.5
20
-16
0
VERTEX
8
L1D0
10
288.5
20
-15
0
VERTEX
8
L1D0
10
289.5
20
-15
0
VERTEX
8
L1D0
10
289.5
20
-14
0
VERTEX
8
L1D0
10
291.5
20
-14
0
VERTEX
8
L1D0
10
291.5
20
-13
0
VERTEX
8
L1D0
10
294.5
20
-13
0
VERTEX
8
L1D0
10
294.5
20
-12
0
VERTEX
8
L1D0
10
297.5
20
-12
0
VERTEX
8
L1D0
10
297.5
20
-11
0
VERTEX
8
L1D0
10
300.5
20
-11
0
VERTEX
8
L1D0
10
300.5
20
-10
0
VERTEX
8
L1D0
10
304.5
20
-10
0
VERTEX
8
L1D0
10
304.5
20
-9
0
VERTEX
8
L1D0
10
309.5
20
-9
0
VERTEX
8
L1D0
10
309.5
20
-8
0
VERTEX
8
L1D0
10
314.5
20
-8
0
VERTEX
8
L1D0
10
314.5
20
-7
0
VERTEX
8
L1D0
10
319.5
20
-7
0
VERTEX
8
L1D0
10
319.5
20
-6
0
VERTEX
8
L1D0
10
323.5
20
-6
0
VERTEX
8
L1D0
10
323.5
20
-5
0
VERTEX
8
L1D0
10
326.5
20
-5
0
VERTEX
8
L1D0
10
326.5
20
-4
0
VERTEX
8
L1D0
10
329.5
20
-4
0
VERTEX
8
L1D0
10
329.5
20
3
0
VERTEX
8
L1D0
10
328.5
20
3
0
VERTEX
8
L1D0
10
328.5
20
5
0
VERTEX
8
L1D0
10
327.5
20
5
0
VERTEX
8
L1D0
10
327.5
20
7
0
VERTEX
8
L1D0
10
326.5
20
7
0
VERTEX
8
L1D0
10
326.5
20
8
0
VERTEX
8
L1D0
10
324.5
20
8
0
VERTEX
8
L1D0
10
324.5
20
9
0
VERTEX
8
L1D0
10
320.5
20
9
0
VERTEX
8
L1D0
10
320.5
20
10
0
VERTEX
8
L1D0
10
310.5
20
10
0
VERTEX
8
L1D0
10
310.5
20
9
0
VERTEX
8
L1D0
10
307.5
20
9
0
VERTEX
8
L1D0
10
307.5
20
8
0
VERTEX
8
L1D0
10
305.5
20
8
0
VERTEX
8
L1D0
10
305.5
20
7
0
VERTEX
8
L1D0
10
304.5
20
7
0
VERTEX
8
L1D0
10
304.5
20
6
0
VERTEX
8
L1D0
10
303.5
20
6
0
VERTEX
8
L1D0
10
303.5
20
4
0
VERTEX
8
L1D0
10
302.5
20
4
0
VERTEX
8
L1D0
10
302.5
20
2
0
VERTEX
8
L1D0
10
301.5
20
2
0
VERTEX
8
L1D0
10
301.5
20
0
0
VERTEX
8
L1D0
10
295.5
20
0
0
VERTEX
8
L1D0
10
295.5
20
1
0
VERTEX
8
L1D0
10
289.5
20
1
0
VERTEX
8
L1D0
10
289.5
20
2
0
VERTEX
8
L1D0
10
283.5
20
2
0
VERTEX
8
L1D0
10
283.5
20
3
0
VERTEX
8
L1D0
10
280.5
20
3
0
VERTEX
8
L1D0
10
280.5
20
4
0
VERTEX
8
L1D0
10
281.5
20
4
0
VERTEX
8
L1D0
10
281.5
20
7
0
VERTEX
8
L1D0
10
282.5
20
7
0
VERTEX
8
L1D0
10
282.5
20
10
0
VERTEX
8
L1D0
10
283.5
20
10
0
VERTEX
8
L1D0
10
283.5
20
12
0
VERTEX
8
L1D0
10
284.5
20
12
0
VERTEX
8
L1D0
10
284.5
20
13
0
VERTEX
8
L1D0
10
285.5
20
13
0
VERTEX
8
L1D0
10
285.5
20
15
0
VERTEX
8
L1D0
10
286.5
20
15
0
VERTEX
8
L1D0
10
286.5
20
16
0
VERTEX
8
L1D0
10
287.5
20
16
0
VERTEX
8
L1D0
10
287.5
20
17
0
VERTEX
8
L1D0
10
288.5
20
17
0
VERTEX
8
L1D0
10
288.5
20
18
0
VERTEX
8
L1D0
10
289.5
20
18
0
VERTEX
8
L1D0
10
289.5
20
19
0
VERTEX
8
L1D0
10
290.5
20
19
0
VERTEX
8
L1D0
10
290.5
20
20
0
VERTEX
8
L1D0
10
291.5
20
20
0
VERTEX
8
L1D0
10
291.5
20
21
0
VERTEX
8
L1D0
10
292.5
20
21
0
VERTEX
8
L1D0
10
292.5
20
22
0
VERTEX
8
L1D0
10
294.5
20
22
0
VERTEX
8
L1D0
10
294.5
20
23
0
VERTEX
8
L1D0
10
296.5
20
23
0
VERTEX
8
L1D0
10
296.5
20
24
0
VERTEX
8
L1D0
10
298.5
20
24
0
VERTEX
8
L1D0
10
298.5
20
25
0
VERTEX
8
L1D0
10
302.5
20
25
0
VERTEX
8
L1D0
10
302.5
20
26
0
VERTEX
8
L1D0
10
308.5
20
26
0
VERTEX
8
L1D0
10
308.5
20
27
0
VERTEX
8
L1D0
10
326.5
20
27
0
VERTEX
8
L1D0
10
326.5
20
26
0
VERTEX
8
L1D0
10
332.5
20
26
0
VERTEX
8
L1D0
10
332.5
20
25
0
VERTEX
8
L1D0
10
335.5
20
25
0
VERTEX
8
L1D0
10
335.5
20
24
0
VERTEX
8
L1D0
10
338.5
20
24
0
VERTEX
8
L1D0
10
338.5
20
23
0
VERTEX
8
L1D0
10
340.5
20
23
0
VERTEX
8
L1D0
10
340.5
20
22
0
VERTEX
8
L1D0
10
341.5
20
22
0
VERTEX
8
L1D0
10
341.5
20
21
0
VERTEX
8
L1D0
10
343.5
20
21
0
VERTEX
8
L1D0
10
343.5
20
20
0
VERTEX
8
L1D0
10
344.5
20
20
0
VERTEX
8
L1D0
10
344.5
20
19
0
VERTEX
8
L1D0
10
345.5
20
19
0
VERTEX
8
L1D0
10
345.5
20
18
0
VERTEX
8
L1D0
10
346.5
20
18
0
VERTEX
8
L1D0
10
346.5
20
17
0
VERTEX
8
L1D0
10
347.5
20
17
0
VERTEX
8
L1D0
10
347.5
20
15
0
VERTEX
8
L1D0
10
348.5
20
15
0
VERTEX
8
L1D0
10
348.5
20
13
0
VERTEX
8
L1D0
10
349.5
20
13
0
VERTEX
8
L1D0
10
349.5
20
10
0
VERTEX
8
L1D0
10
350.5
20
10
0
VERTEX
8
L1D0
10
350.5
20
2
0
VERTEX
8
L1D0
10
351.5
20
2
0
VERTEX
8
L1D0
10
351.5
20
-26
0
VERTEX
8
L1D0
10
350.5
20
-26
0
VERTEX
8
L1D0
10
350.5
20
-34
0
VERTEX
8
L1D0
10
351.5
20
-34
0
VERTEX
8
L1D0
10
351.5
20
-46
0
VERTEX
8
L1D0
10
352.5
20
-46
0
VERTEX
8
L1D0
10
352.5
20
-50
0
VERTEX
8
L1D0
10
353.5
20
-50
0
VERTEX
8
L1D0
10
353.5
20
-52
0
VERTEX
8
L1D0
10
354.5
20
-52
0
VERTEX
8
L1D0
10
354.5
20
-55
0
VERTEX
8
L1D0
10
355.5
20
-55
0
VERTEX
8
L1D0
10
355.5
20
-57
0
VERTEX
8
L1D0
10
333.5
20
-57
0
VERTEX
8
L1D0
10
333.5
20
-54
0
VERTEX
8
L1D0
10
332.5
20
-54
0
VERTEX
8
L1D0
10
332.5
20
-51
0
VERTEX
8
L1D0
10
331.5
20
-51
0
VERTEX
8
L1D0
10
331.5
20
-49
0
VERTEX
8
L1D0
10
330.5
20
-49
0
VERTEX
8
L1D0
10
330.5
20
-50
0
VERTEX
8
L1D0
10
329.5
20
-50
0
VERTEX
8
L1D0
10
329.5
20
-51
0
VERTEX
8
L1D0
10
327.5
20
-51
0
VERTEX
8
L1D0
10
327.5
20
-52
0
VERTEX
8
L1D0
10
326.5
20
-52
0
VERTEX
8
L1D0
10
326.5
20
-53
0
VERTEX
8
L1D0
10
324.5
20
-53
0
VERTEX
8
L1D0
10
324.5
20
-54
0
VERTEX
8
L1D0
10
323.5
20
-54
0
VERTEX
8
L1D0
10
323.5
20
-55
0
VERTEX
8
L1D0
10
321.5
20
-55
0
VERTEX
8
L1D0
10
321.5
20
-56
0
VERTEX
8
L1D0
10
319.5
20
-56
0
VERTEX
8
L1D0
10
319.5
20
-57
0
VERTEX
8
L1D0
10
316.5
20
-57
0
VERTEX
8
L1D0
10
316.5
20
-58
0
VERTEX
8
L1D0
10
312.5
20
-58
0
VERTEX
8
L1D0
10
312.5
20
-59
0
SEQEND
0
POLYLINE
8
L1D0
70
1
40
0
41
0
66
1
0
VERTEX
8
L1D0
10
19.5
20
-59
0
VERTEX
8
L1D0
10
19.5
20
-58
0
VERTEX
8
L1D0
10
16.5
20
-58
0
VERTEX
8
L1D0
10
16.5
20
-57
0
VERTEX
8
L1D0
10
14.5
20
-57
0
VERTEX
8
L1D0
10
14.5
20
-56
0
VERTEX
8
L1D0
10
12.5
20
-56
0
VERTEX
8
L1D0
10
12.5
20
-55
0
VERTEX
8
L1D0
10
10.5
20
-55
0
VERTEX
8
L1D0
10
10.5
20
-54
0
VERTEX
8
L1D0
10
9.5
20
-54
0
VERTEX
8
L1D0
10
9.5
20
-53
0
VERTEX
8
L1D0
10
8.5
20
-53
0
VERTEX
8
L1D0
10
8.5
20
-51
0
VERTEX
8
L1D0
10
7.5
20
-51
0
VERTEX
8
L1D0
10
7.5
20
-49
0
VERTEX
8
L1D0
10
6.5
20
-49
0
VERTEX
8
L1D0
10
6.5
20
-46
0
VERTEX
8
L1D0
10
5.5
20
-46
0
VERTEX
8
L1D0
10
5.5
20
-40
0
VERTEX
8
L1D0
10
4.5
20
-40
0
VERTEX
8
L1D0
10
4.5
20
7
0
VERTEX
8
L1D0
10
-5.5
20
7
0
VERTEX
8
L1D0
10
-5.5
20
25
0
VERTEX
8
L1D0
10
4.5
20
25
0
VERTEX
8
L1D0
10
4.5
20
41
0
VERTEX
8
L1D0
10
5.5
20
41
0
VERTEX
8
L1D0
10
5.5
20
42
0
VERTEX
8
L1D0
10
6.5
20
42
0
VERTEX
8
L1D0
10
6.5
20
43
0
VERTEX
8
L1D0
10
8.5
20
43
0
VERTEX
8
L1D0
10
8.5
20
44
0
VERTEX
8
L1D0
10
10.5
20
44
0
VERTEX
8
L1D0
10
10.5
20
45
0
VERTEX
8
L1D0
10
11.5
20
45
0
VERTEX
8
L1D0
10
11.5
20
46
0
VERTEX
8
L1D0
10
13.5
20
46
0
VERTEX
8
L1D0
10
13.5
20
47
0
VERTEX
8
L1D0
10
15.5
20
47
0
VERTEX
8
L1D0
10
15.5
20
48
0
VERTEX
8
L1D0
10
16.5
20
48
0
VERTEX
8
L1D0
10
16.5
20
49
0
VERTEX
8
L1D0
10
18.5
20
49
0
VERTEX
8
L1D0
10
18.5
20
50
0
VERTEX
8
L1D0
10
20.5
20
50
0
VERTEX
8
L1D0
10
20.5
20
51
0
VERTEX
8
L1D0
10
21.5
20
51
0
VERTEX
8
L1D0
10
21.5
20
52
0
VERTEX
8
L1D0
10
23.5
20
52
0
VERTEX
8
L1D0
10
23.5
20
53
0
VERTEX
8
L1D0
10
25.5
20
53
0
VERTEX
8
L1D0
10
25.5
20
54
0
VERTEX
8
L1D0
10
26.5
20
54
0
VERTEX
8
L1D0
10
26.5
20
25
0
VERTEX
8
L1D0
10
41.5
20
25
0
VERTEX
8
L1D0
10
41.5
20
7
0
VERTEX
8
L1D0
10
26.5
20
7
0
VERTEX
8
L1D0
10
26.5
20
-34
0
VERTEX
8
L1D0
10
27.5
20
-34
0
VERTEX
8
L1D0
10
27.5
20
-38
0
VERTEX
8
L1D0
10
28.5
20
-38
0
VERTEX
8
L1D0
10
28.5
20
-39
0
VERTEX
8
L1D0
10
29.5
20
-39
0
VERTEX
8
L1D0
10
29.5
20
-40
0
VERTEX
8
L1D0
10
31.5
20
-40
0
VERTEX
8
L1D0
10
31.5
20
-41
0
VERTEX
8
L1D0
10
33.5
20
-41
0
VERTEX
8
L1D0
10
33.5
20
-40
0
VERTEX
8
L1D0
10
38.5
20
-40
0
VERTEX
8
L1D0
10
38.5
20
-39
0
VERTEX
8
L1D0
10
40.5
20
-39
0
VERTEX
8
L1D0
10
40.5
20
-38
0
VERTEX
8
L1D0
10
41.5
20
-38
0
VERTEX
8
L1D0
10
41.5
20
-43
0
VERTEX
8
L1D0
10
42.5
20
-43
0
VERTEX
8
L1D0
10
42.5
20
-52
0
VERTEX
8
L1D0
10
43.5
20
-52
0
VERTEX
8
L1D0
10
43.5
20
-56
0
VERTEX
8
L1D0
10
41.5
20
-56
0
VERTEX
8
L1D0
10
41.5
20
-57
0
VERTEX
8
L1D0
10
38.5
20
-57
0
VERTEX
8
L1D0
10
38.5
20
-58
0
VERTEX
8
L1D0
10
33.5
20
-58
0
VERTEX
8
L1D0
10
33.5
20
-59
0
SEQEND
0
POLYLINE
8
L1D0
70
1
40
0
41
0
66
1
0
VERTEX
8
L1D0
10
-276.5
20
-57
0
VERTEX
8
L1D0
10
-276.5
20
56
0
VERTEX
8
L1D0
10
-254.5
20
56
0
VERTEX
8
L1D0
10
-254.5
20
16
0
VERTEX
8
L1D0
10
-253.5
20
16
0
VERTEX
8
L1D0
10
-253.5
20
17
0
VERTEX
8
L1D0
10
-252.5
20
17
0
VERTEX
8
L1D0
10
-252.5
20
18
0
VERTEX
8
L1D0
10
-251.5
20
18
0
VERTEX
8
L1D0
10
-251.5
20
19
0
VERTEX
8
L1D0
10
-250.5
20
19
0
VERTEX
8
L1D0
10
-250.5
20
20
0
VERTEX
8
L1D0
10
-249.5
20
20
0
VERTEX
8
L1D0
10
-249.5
20
21
0
VERTEX
8
L1D0
10
-247.5
20
21
0
VERTEX
8
L1D0
10
-247.5
20
22
0
VERTEX
8
L1D0
10
-246.5
20
22
0
VERTEX
8
L1D0
10
-246.5
20
23
0
VERTEX
8
L1D0
10
-244.5
20
23
0
VERTEX
8
L1D0
10
-244.5
20
24
0
VERTEX
8
L1D0
10
-242.5
20
24
0
VERTEX
8
L1D0
10
-242.5
20
25
0
VERTEX
8
L1D0
10
-239.5
20
25
0
VERTEX
8
L1D0
10
-239.5
20
26
0
VERTEX
8
L1D0
10
-235.5
20
26
0
VERTEX
8
L1D0
10
-235.5
20
27
0
VERTEX
8
L1D0
10
-224.5
20
27
0
VERTEX
8
L1D0
10
-224.5
20
26
0
VERTEX
8
L1D0
10
-219.5
20
26
0
VERTEX
8
L1D0
10
-219.5
20
25
0
VERTEX
8
L1D0
10
-217.5
20
25
0
VERTEX
8
L1D0
10
-217.5
20
24
0
VERTEX
8
L1D0
10
-214.5
20
24
0
VERTEX
8
L1D0
10
-214.5
20
23
0
VERTEX
8
L1D0
10
-213.5
20
23
0
VERTEX
8
L1D0
10
-213.5
20
22
0
VERTEX
8
L1D0
10
-211.5
20
22
0
VERTEX
8
L1D0
10
-211.5
20
21
0
VERTEX
8
L1D0
10
-210.5
20
21
0
VERTEX
8
L1D0
10
-210.5
20
20
0
VERTEX
8
L1D0
10
-209.5
20
20
0
VERTEX
8
L1D0
10
-209.5
20
19
0
VERTEX
8
L1D0
10
-208.5
20
19
0
VERTEX
8
L1D0
10
-208.5
20
18
0
VERTEX
8
L1D0
10
-207.5
20
18
0
VERTEX
8
L1D0
10
-207.5
20
17
0
VERTEX
8
L1D0
10
-206.5
20
17
0
VERTEX
8
L1D0
10
-206.5
20
15
0
VERTEX
8
L1D0
10
-205.5
20
15
0
VERTEX
8
L1D0
10
-205.5
20
13
0
VERTEX
8
L1D0
10
-204.5
20
13
0
VERTEX
8
L1D0
10
-204.5
20
11
0
VERTEX
8
L1D0
10
-203.5
20
11
0
VERTEX
8
L1D0
10
-203.5
20
7
0
VERTEX
8
L1D0
10
-202.5
20
7
0
VERTEX
8
L1D0
10
-202.5
20
-4
0
VERTEX
8
L1D0
10
-201.5
20
-4
0
VERTEX
8
L1D0
10
-201.5
20
-57
0
VERTEX
8
L1D0
10
-224.5
20
-57
0
VERTEX
8
L1D0
10
-224.5
20
1
0
VERTEX
8
L1D0
10
-225.5
20
1
0
VERTEX
8
L1D0
10
-225.5
20
4
0
VERTEX
8
L1D0
10
-226.5
20
4
0
VERTEX
8
L1D0
10
-226.5
20
6
0
VERTEX
8
L1D0
10
-227.5
20
6
0
VERTEX
8
L1D0
10
-227.5
20
7
0
VERTEX
8
L1D0
10
-229.5
20
7
0
VERTEX
8
L1D0
10
-229.5
20
8
0
VERTEX
8
L1D0
10
-230.5
20
8
0
VERTEX
8
L1D0
10
-230.5
20
9
0
VERTEX
8
L1D0
10
-233.5
20
9
0
VERTEX
8
L1D0
10
-233.5
20
10
0
VERTEX
8
L1D0
10
-241.5
20
10
0
VERTEX
8
L1D0
10
-241.5
20
9
0
VERTEX
8
L1D0
10
-244.5
20
9
0
VERTEX
8
L1D0
10
-244.5
20
8
0
VERTEX
8
L1D0
10
-246.5
20
8
0
VERTEX
8
L1D0
10
-246.5
20
7
0
VERTEX
8
L1D0
10
-247.5
20
7
0
VERTEX
8
L1D0
10
-247.5
20
6
0
VERTEX
8
L1D0
10
-249.5
20
6
0
VERTEX
8
L1D0
10
-249.5
20
4
0
VERTEX
8
L1D0
10
-250.5
20
4
0
VERTEX
8
L1D0
10
-250.5
20
3
0
VERTEX
8
L1D0
10
-251.5
20
3
0
VERTEX
8
L1D0
10
-251.5
20
1
0
VERTEX
8
L1D0
10
-252.5
20
1
0
VERTEX
8
L1D0
10
-252.5
20
-1
0
VERTEX
8
L1D0
10
-253.5
20
-1
0
VERTEX
8
L1D0
10
-253.5
20
-5
0
VERTEX
8
L1D0
10
-254.5
20
-5
0
VERTEX
8
L1D0
10
-254.5
20
-57
0
SEQEND
0
POLYLINE
8
L1D0
70
1
40
0
41
0
66
1
0
VERTEX
8
L1D0
10
411.5
20
-59
0
VERTEX
8
L1D0
10
411.5
20
-58
0
VERTEX
8
L1D0
10
407.5
20
-58
0
VERTEX
8
L1D0
10
407.5
20
-57
0
VERTEX
8
L1D0
10
404.5
20
-57
0
VERTEX
8
L1D0
10
404.5
20
-56
0
VERTEX
8
L1D0
10
402.5
20
-56
0
VERTEX
8
L1D0
10
402.5
20
-55
0
VERTEX
8
L1D0
10
401.5
20
-55
0
VERTEX
8
L1D0
10
401.5
20
-54
0
VERTEX
8
L1D0
10
399.5
20
-54
0
VERTEX
8
L1D0
10
399.5
20
-53
0
VERTEX
8
L1D0
10
398.5
20
-53
0
VERTEX
8
L1D0
10
398.5
20
-52
0
VERTEX
8
L1D0
10
396.5
20
-52
0
VERTEX
8
L1D0
10
396.5
20
-51
0
VERTEX
8
L1D0
10
395.5
20
-51
0
VERTEX
8
L1D0
10
395.5
20
-50
0
VERTEX
8
L1D0
10
394.5
20
-50
0
VERTEX
8
L1D0
10
394.5
20
-49
0
VERTEX
8
L1D0
10
393.5
20
-49
0
VERTEX
8
L1D0
10
393.5
20
-47
0
VERTEX
8
L1D0
10
392.5
20
-47
0
VERTEX
8
L1D0
10
392.5
20
-46
0
VERTEX
8
L1D0
10
391.5
20
-46
0
VERTEX
8
L1D0
10
391.5
20
-57
0
VERTEX
8
L1D0
10
371.5
20
-57
0
VERTEX
8
L1D0
10
371.5
20
10
0
VERTEX
8
L1D0
10
407.5
20
10
0
VERTEX
8
L1D0
10
407.5
20
9
0
VERTEX
8
L1D0
10
404.5
20
9
0
VERTEX
8
L1D0
10
404.5
20
8
0
VERTEX
8
L1D0
10
402.5
20
8
0
VERTEX
8
L1D0
10
402.5
20
7
0
VERTEX
8
L1D0
10
400.5
20
7
0
VERTEX
8
L1D0
10
400.5
20
6
0
VERTEX
8
L1D0
10
399.5
20
6
0
VERTEX
8
L1D0
10
399.5
20
5
0
VERTEX
8
L1D0
10
398.5
20
5
0
VERTEX
8
L1D0
10
398.5
20
4
0
VERTEX
8
L1D0
10
397.5
20
4
0
VERTEX
8
L1D0
10
397.5
20
3
0
VERTEX
8
L1D0
10
396.5
20
3
0
VERTEX
8
L1D0
10
396.5
20
1
0
VERTEX
8
L1D0
10
395.5
20
1
0
VERTEX
8
L1D0
10
395.5
20
-1
0
VERTEX
8
L1D0
10
394.5
20
-1
0
VERTEX
8
L1D0
10
394.5
20
-5
0
VERTEX
8
L1D0
10
393.5
20
-5
0
VERTEX
8
L1D0
10
393.5
20
-12
0
VERTEX
8
L1D0
10
392.5
20
-12
0
VERTEX
8
L1D0
10
392.5
20
-17
0
VERTEX
8
L1D0
10
393.5
20
-17
0
VERTEX
8
L1D0
10
393.5
20
-25
0
VERTEX
8
L1D0
10
394.5
20
-25
0
VERTEX
8
L1D0
10
394.5
20
-29
0
VERTEX
8
L1D0
10
395.5
20
-29
0
VERTEX
8
L1D0
10
395.5
20
-31
0
VERTEX
8
L1D0
10
396.5
20
-31
0
VERTEX
8
L1D0
10
396.5
20
-33
0
VERTEX
8
L1D0
10
397.5
20
-33
0
VERTEX
8
L1D0
10
397.5
20
-34
0
VERTEX
8
L1D0
10
398.5
20
-34
0
VERTEX
8
L1D0
10
398.5
20
-36
0
VERTEX
8
L1D0
10
399.5
20
-36
0
VERTEX
8
L1D0
10
399.5
20
-37
0
VERTEX
8
L1D0
10
400.5
20
-37
0
VERTEX
8
L1D0
10
400.5
20
-38
0
VERTEX
8
L1D0
10
402.5
20
-38
0
VERTEX
8
L1D0
10
402.5
20
-39
0
VERTEX
8
L1D0
10
403.5
20
-39
0
VERTEX
8
L1D0
10
403.5
20
-40
0
VERTEX
8
L1D0
10
406.5
20
-40
0
VERTEX
8
L1D0
10
406.5
20
-41
0
VERTEX
8
L1D0
10
416.5
20
-41
0
VERTEX
8
L1D0
10
416.5
20
-40
0
VERTEX
8
L1D0
10
418.5
20
-40
0
VERTEX
8
L1D0
10
418.5
20
-39
0
VERTEX
8
L1D0
10
420.5
20
-39
0
VERTEX
8
L1D0
10
420.5
20
-38
0
VERTEX
8
L1D0
10
421.5
20
-38
0
VERTEX
8
L1D0
10
421.5
20
-37
0
VERTEX
8
L1D0
10
422.5
20
-37
0
VERTEX
8
L1D0
10
422.5
20
-36
0
VERTEX
8
L1D0
10
423.5
20
-36
0
VERTEX
8
L1D0
10
423.5
20
-35
0
VERTEX
8
L1D0
10
424.5
20
-35
0
VERTEX
8
L1D0
10
424.5
20
-34
0
VERTEX
8
L1D0
10
425.5
20
-34
0
VERTEX
8
L1D0
10
425.5
20
-32
0
VERTEX
8
L1D0
10
426.5
20
-32
0
VERTEX
8
L1D0
10
426.5
20
-29
0
VERTEX
8
L1D0
10
427.5
20
-29
0
VERTEX
8
L1D0
10
427.5
20
-25
0
VERTEX
8
L1D0
10
428.5
20
-25
0
VERTEX
8
L1D0
10
428.5
20
-7
0
VERTEX
8
L1D0
10
427.5
20
-7
0
VERTEX
8
L1D0
10
427.5
20
-3
0
VERTEX
8
L1D0
10
426.5
20
-3
0
VERTEX
8
L1D0
10
426.5
20
0
0
VERTEX
8
L1D0
10
425.5
20
0
0
VERTEX
8
L1D0
10
425.5
20
2
0
VERTEX
8
L1D0
10
424.5
20
2
0
VERTEX
8
L1D0
10
424.5
20
3
0
VERTEX
8
L1D0
10
423.5
20
3
0
VERTEX
8
L1D0
10
423.5
20
5
0
VERTEX
8
L1D0
10
422.5
20
5
0
VERTEX
8
L1D0
10
422.5
20
6
0
VERTEX
8
L1D0
10
420.5
20
6
0
VERTEX
8
L1D0
10
420.5
20
7
0
VERTEX
8
L1D0
10
419.5
20
7
0
VERTEX
8
L1D0
10
419.5
20
8
0
VERTEX
8
L1D0
10
417.5
20
8
0
VERTEX
8
L1D0
10
417.5
20
9
0
VERTEX
8
L1D0
10
414.5
20
9
0
VERTEX
8
L1D0
10
414.5
20
10
0
VERTEX
8
L1D0
10
371.5
20
10
0
VERTEX
8
L1D0
10
371.5
20
56
0
VERTEX
8
L1D0
10
393.5
20
56
0
VERTEX
8
L1D0
10
393.5
20
17
0
VERTEX
8
L1D0
10
394.5
20
17
0
VERTEX
8
L1D0
10
394.5
20
18
0
VERTEX
8
L1D0
10
395.5
20
18
0
VERTEX
8
L1D0
10
395.5
20
19
0
VERTEX
8
L1D0
10
396.5
20
19
0
VERTEX
8
L1D0
10
396.5
20
20
0
VERTEX
8
L1D0
10
397.5
20
20
0
VERTEX
8
L1D0
10
397.5
20
21
0
VERTEX
8
L1D0
10
399.5
20
21
0
VERTEX
8
L1D0
10
399.5
20
22
0
VERTEX
8
L1D0
10
400.5
20
22
0
VERTEX
8
L1D0
10
400.5
20
23
0
VERTEX
8
L1D0
10
402.5
20
23
0
VERTEX
8
L1D0
10
402.5
20
24
0
VERTEX
8
L1D0
10
404.5
20
24
0
VERTEX
8
L1D0
10
404.5
20
25
0
VERTEX
8
L1D0
10
407.5
20
25
0
VERTEX
8
L1D0
10
407.5
20
26
0
VERTEX
8
L1D0
10
411.5
20
26
0
VERTEX
8
L1D0
10
411.5
20
27
0
VERTEX
8
L1D0
10
422.5
20
27
0
VERTEX
8
L1D0
10
422.5
20
26
0
VERTEX
8
L1D0
10
427.5
20
26
0
VERTEX
8
L1D0
10
427.5
20
25
0
VERTEX
8
L1D0
10
429.5
20
25
0
VERTEX
8
L1D0
10
429.5
20
24
0
VERTEX
8
L1D0
10
432.5
20
24
0
VERTEX
8
L1D0
10
432.5
20
23
0
VERTEX
8
L1D0
10
433.5
20
23
0
VERTEX
8
L1D0
10
433.5
20
22
0
VERTEX
8
L1D0
10
435.5
20
22
0
VERTEX
8
L1D0
10
435.5
20
21
0
VERTEX
8
L1D0
10
436.5
20
21
0
VERTEX
8
L1D0
10
436.5
20
20
0
VERTEX
8
L1D0
10
438.5
20
20
0
VERTEX
8
L1D0
10
438.5
20
19
0
VERTEX
8
L1D0
10
439.5
20
19
0
VERTEX
8
L1D0
10
439.5
20
18
0
VERTEX
8
L1D0
10
440.5
20
18
0
VERTEX
8
L1D0
10
440.5
20
17
0
VERTEX
8
L1D0
10
441.5
20
17
0
VERTEX
8
L1D0
10
441.5
20
16
0
VERTEX
8
L1D0
10
442.5
20
16
0
VERTEX
8
L1D0
10
442.5
20
14
0
VERTEX
8
L1D0
10
443.5
20
14
0
VERTEX
8
L1D0
10
443.5
20
13
0
VERTEX
8
L1D0
10
444.5
20
13
0
VERTEX
8
L1D0
10
444.5
20
12
0
VERTEX
8
L1D0
10
445.5
20
12
0
VERTEX
8
L1D0
10
445.5
20
10
0
VERTEX
8
L1D0
10
446.5
20
10
0
VERTEX
8
L1D0
10
446.5
20
8
0
VERTEX
8
L1D0
10
447.5
20
8
0
VERTEX
8
L1D0
10
447.5
20
6
0
VERTEX
8
L1D0
10
448.5
20
6
0
VERTEX
8
L1D0
10
448.5
20
3
0
VERTEX
8
L1D0
10
449.5
20
3
0
VERTEX
8
L1D0
10
449.5
20
-1
0
VERTEX
8
L1D0
10
450.5
20
-1
0
VERTEX
8
L1D0
10
450.5
20
-7
0
VERTEX
8
L1D0
10
451.5
20
-7
0
VERTEX
8
L1D0
10
451.5
20
-24
0
VERTEX
8
L1D0
10
450.5
20
-24
0
VERTEX
8
L1D0
10
450.5
20
-30
0
VERTEX
8
L1D0
10
449.5
20
-30
0
VERTEX
8
L1D0
10
449.5
20
-34
0
VERTEX
8
L1D0
10
448.5
20
-34
0
VERTEX
8
L1D0
10
448.5
20
-37
0
VERTEX
8
L1D0
10
447.5
20
-37
0
VERTEX
8
L1D0
10
447.5
20
-39
0
VERTEX
8
L1D0
10
446.5
20
-39
0
VERTEX
8
L1D0
10
446.5
20
-41
0
VERTEX
8
L1D0
10
445.5
20
-41
0
VERTEX
8
L1D0
10
445.5
20
-43
0
VERTEX
8
L1D0
10
444.5
20
-43
0
VERTEX
8
L1D0
10
444.5
20
-44
0
VERTEX
8
L1D0
10
443.5
20
-44
0
VERTEX
8
L1D0
10
443.5
20
-46
0
VERTEX
8
L1D0
10
442.5
20
-46
0
VERTEX
8
L1D0
10
442.5
20
-47
0
VERTEX
8
L1D0
10
441.5
20
-47
0
VERTEX
8
L1D0
10
441.5
20
-48
0
VERTEX
8
L1D0
10
440.5
20
-48
0
VERTEX
8
L1D0
10
440.5
20
-49
0
VERTEX
8
L1D0
10
439.5
20
-49
0
VERTEX
8
L1D0
10
439.5
20
-50
0
VERTEX
8
L1D0
10
438.5
20
-50
0
VERTEX
8
L1D0
10
438.5
20
-51
0
VERTEX
8
L1D0
10
437.5
20
-51
0
VERTEX
8
L1D0
10
437.5
20
-52
0
VERTEX
8
L1D0
10
436.5
20
-52
0
VERTEX
8
L1D0
10
436.5
20
-53
0
VERTEX
8
L1D0
10
434.5
20
-53
0
VERTEX
8
L1D0
10
434.5
20
-54
0
VERTEX
8
L1D0
10
433.5
20
-54
0
VERTEX
8
L1D0
10
433.5
20
-55
0
VERTEX
8
L1D0
10
431.5
20
-55
0
VERTEX
8
L1D0
10
431.5
20
-56
0
VERTEX
8
L1D0
10
429.5
20
-56
0
VERTEX
8
L1D0
10
429.5
20
-57
0
VERTEX
8
L1D0
10
427.5
20
-57
0
VERTEX
8
L1D0
10
427.5
20
-58
0
VERTEX
8
L1D0
10
423.5
20
-58
0
VERTEX
8
L1D0
10
423.5
20
-59
0
SEQEND
0
POLYLINE
8
L1D0
70
1
40
0
41
0
66
1
0
VERTEX
8
L1D0
10
329.5
20
164
0
VERTEX
8
L1D0
10
329.5
20
201
0
VERTEX
8
L1D0
10
339.5
20
201
0
VERTEX
8
L1D0
10
339.5
20
181
0
VERTEX
8
L1D0
10
341.5
20
181
0
VERTEX
8
L1D0
10
341.5
20
182
0
VERTEX
8
L1D0
10
344.5
20
182
0
VERTEX
8
L1D0
10
344.5
20
183
0
VERTEX
8
L1D0
10
346.5
20
183
0
VERTEX
8
L1D0
10
346.5
20
184
0
VERTEX
8
L1D0
10
349.5
20
184
0
VERTEX
8
L1D0
10
349.5
20
185
0
VERTEX
8
L1D0
10
351.5
20
185
0
VERTEX
8
L1D0
10
351.5
20
186
0
VERTEX
8
L1D0
10
353.5
20
186
0
VERTEX
8
L1D0
10
353.5
20
187
0
VERTEX
8
L1D0
10
356.5
20
187
0
VERTEX
8
L1D0
10
356.5
20
188
0
VERTEX
8
L1D0
10
358.5
20
188
0
VERTEX
8
L1D0
10
358.5
20
189
0
VERTEX
8
L1D0
10
360.5
20
189
0
VERTEX
8
L1D0
10
360.5
20
190
0
VERTEX
8
L1D0
10
358.5
20
190
0
VERTEX
8
L1D0
10
358.5
20
191
0
VERTEX
8
L1D0
10
356.5
20
191
0
VERTEX
8
L1D0
10
356.5
20
192
0
VERTEX
8
L1D0
10
355.5
20
192
0
VERTEX
8
L1D0
10
355.5
20
193
0
VERTEX
8
L1D0
10
353.5
20
193
0
VERTEX
8
L1D0
10
353.5
20
194
0
VERTEX
8
L1D0
10
351.5
20
194
0
VERTEX
8
L1D0
10
351.5
20
195
0
VERTEX
8
L1D0
10
349.5
20
195
0
VERTEX
8
L1D0
10
349.5
20
196
0
VERTEX
8
L1D0
10
347.5
20
196
0
VERTEX
8
L1D0
10
347.5
20
197
0
VERTEX
8
L1D0
10
345.5
20
197
0
VERTEX
8
L1D0
10
345.5
20
198
0
VERTEX
8
L1D0
10
344.5
20
198
0
VERTEX
8
L1D0
10
344.5
20
199
0
VERTEX
8
L1D0
10
342.5
20
199
0
VERTEX
8
L1D0
10
342.5
20
200
0
VERTEX
8
L1D0
10
340.5
20
200
0
VERTEX
8
L1D0
10
340.5
20
201
0
VERTEX
8
L1D0
10
329.5
20
201
0
VERTEX
8
L1D0
10
329.5
20
219
0
VERTEX
8
L1D0
10
331.5
20
219
0
VERTEX
8
L1D0
10
331.5
20
218
0
VERTEX
8
L1D0
10
333.5
20
218
0
VERTEX
8
L1D0
10
333.5
20
217
0
VERTEX
8
L1D0
10
335.5
20
217
0
VERTEX
8
L1D0
10
335.5
20
216
0
VERTEX
8
L1D0
10
337.5
20
216
0
VERTEX
8
L1D0
10
337.5
20
215
0
VERTEX
8
L1D0
10
338.5
20
215
0
VERTEX
8
L1D0
10
338.5
20
214
0
VERTEX
8
L1D0
10
340.5
20
214
0
VERTEX
8
L1D0
10
340.5
20
213
0
VERTEX
8
L1D0
10
342.5
20
213
0
VERTEX
8
L1D0
10
342.5
20
212
0
VERTEX
8
L1D0
10
344.5
20
212
0
VERTEX
8
L1D0
10
344.5
20
211
0
VERTEX
8
L1D0
10
346.5
20
211
0
VERTEX
8
L1D0
10
346.5
20
210
0
VERTEX
8
L1D0
10
347.5
20
210
0
VERTEX
8
L1D0
10
347.5
20
209
0
VERTEX
8
L1D0
10
349.5
20
209
0
VERTEX
8
L1D0
10
349.5
20
208
0
VERTEX
8
L1D0
10
351.5
20
208
0
VERTEX
8
L1D0
10
351.5
20
207
0
VERTEX
8
L1D0
10
353.5
20
207
0
VERTEX
8
L1D0
10
353.5
20
206
0
VERTEX
8
L1D0
10
355.5
20
206
0
VERTEX
8
L1D0
10
355.5
20
205
0
VERTEX
8
L1D0
10
356.5
20
205
0
VERTEX
8
L1D0
10
356.5
20
204
0
VERTEX
8
L1D0
10
358.5
20
204
0
VERTEX
8
L1D0
10
358.5
20
203
0
VERTEX
8
L1D0
10
360.5
20
203
0
VERTEX
8
L1D0
10
360.5
20
202
0
VERTEX
8
L1D0
10
362.5
20
202
0
VERTEX
8
L1D0
10
362.5
20
201
0
VERTEX
8
L1D0
10
364.5
20
201
0
VERTEX
8
L1D0
10
364.5
20
200
0
VERTEX
8
L1D0
10
365.5
20
200
0
VERTEX
8
L1D0
10
365.5
20
199
0
VERTEX
8
L1D0
10
367.5
20
199
0
VERTEX
8
L1D0
10
367.5
20
198
0
VERTEX
8
L1D0
10
369.5
20
198
0
VERTEX
8
L1D0
10
369.5
20
197
0
VERTEX
8
L1D0
10
371.5
20
197
0
VERTEX
8
L1D0
10
371.5
20
196
0
VERTEX
8
L1D0
10
373.5
20
196
0
VERTEX
8
L1D0
10
373.5
20
195
0
VERTEX
8
L1D0
10
375.5
20
195
0
VERTEX
8
L1D0
10
375.5
20
194
0
VERTEX
8
L1D0
10
376.5
20
194
0
VERTEX
8
L1D0
10
376.5
20
193
0
VERTEX
8
L1D0
10
378.5
20
193
0
VERTEX
8
L1D0
10
378.5
20
192
0
VERTEX
8
L1D0
10
380.5
20
192
0
VERTEX
8
L1D0
10
380.5
20
191
0
VERTEX
8
L1D0
10
382.5
20
191
0
VERTEX
8
L1D0
10
382.5
20
190
0
VERTEX
8
L1D0
10
384.5
20
190
0
VERTEX
8
L1D0
10
384.5
20
189
0
VERTEX
8
L1D0
10
385.5
20
189
0
VERTEX
8
L1D0
10
385.5
20
187
0
VERTEX
8
L1D0
10
383.5
20
187
0
VERTEX
8
L1D0
10
383.5
20
186
0
VERTEX
8
L1D0
10
380.5
20
186
0
VERTEX
8
L1D0
10
380.5
20
185
0
VERTEX
8
L1D0
10
378.5
20
185
0
VERTEX
8
L1D0
10
378.5
20
184
0
VERTEX
8
L1D0
10
376.5
20
184
0
VERTEX
8
L1D0
10
376.5
20
183
0
VERTEX
8
L1D0
10
373.5
20
183
0
VERTEX
8
L1D0
10
373.5
20
182
0
VERTEX
8
L1D0
10
371.5
20
182
0
VERTEX
8
L1D0
10
371.5
20
181
0
VERTEX
8
L1D0
10
369.5
20
181
0
VERTEX
8
L1D0
10
369.5
20
180
0
VERTEX
8
L1D0
10
366.5
20
180
0
VERTEX
8
L1D0
10
366.5
20
179
0
VERTEX
8
L1D0
10
364.5
20
179
0
VERTEX
8
L1D0
10
364.5
20
178
0
VERTEX
8
L1D0
10
361.5
20
178
0
VERTEX
8
L1D0
10
361.5
20
177
0
VERTEX
8
L1D0
10
359.5
20
177
0
VERTEX
8
L1D0
10
359.5
20
176
0
VERTEX
8
L1D0
10
357.5
20
176
0
VERTEX
8
L1D0
10
357.5
20
175
0
VERTEX
8
L1D0
10
354.5
20
175
0
VERTEX
8
L1D0
10
354.5
20
174
0
VERTEX
8
L1D0
10
352.5
20
174
0
VERTEX
8
L1D0
10
352.5
20
173
0
VERTEX
8
L1D0
10
350.5
20
173
0
VERTEX
8
L1D0
10
350.5
20
172
0
VERTEX
8
L1D0
10
347.5
20
172
0
VERTEX
8
L1D0
10
347.5
20
171
0
VERTEX
8
L1D0
10
345.5
20
171
0
VERTEX
8
L1D0
10
345.5
20
170
0
VERTEX
8
L1D0
10
342.5
20
170
0
VERTEX
8
L1D0
10
342.5
20
169
0
VERTEX
8
L1D0
10
340.5
20
169
0
VERTEX
8
L1D0
10
340.5
20
168
0
VERTEX
8
L1D0
10
338.5
20
168
0
VERTEX
8
L1D0
10
338.5
20
167
0
VERTEX
8
L1D0
10
335.5
20
167
0
VERTEX
8
L1D0
10
335.5
20
166
0
VERTEX
8
L1D0
10
333.5
20
166
0
VERTEX
8
L1D0
10
333.5
20
165
0
VERTEX
8
L1D0
10
331.5
20
165
0
VERTEX
8
L1D0
10
331.5
20
164
0
SEQEND
0
POLYLINE
8
L1D0
70
1
40
0
41
0
66
1
0
VERTEX
8
L1D0
10
-19.5
20
152
0
VERTEX
8
L1D0
10
-19.5
20
229
0
VERTEX
8
L1D0
10
-6.5
20
229
0
VERTEX
8
L1D0
10
-6.5
20
201
0
VERTEX
8
L1D0
10
268.5
20
201
0
VERTEX
8
L1D0
10
268.5
20
227
0
VERTEX
8
L1D0
10
282.5
20
227
0
VERTEX
8
L1D0
10
282.5
20
155
0
VERTEX
8
L1D0
10
268.5
20
155
0
VERTEX
8
L1D0
10
268.5
20
186
0
VERTEX
8
L1D0
10
-6.5
20
186
0
VERTEX
8
L1D0
10
-6.5
20
152
0
SEQEND
0
POLYLINE
8
L1D0
70
1
40
0
41
0
66
1
0
VERTEX
8
L1D0
10
26.5
20
-228
0
VERTEX
8
L1D0
10
26.5
20
-156
0
VERTEX
8
L1D0
10
40.5
20
-156
0
VERTEX
8
L1D0
10
40.5
20
-184
0
VERTEX
8
L1D0
10
361.5
20
-184
0
VERTEX
8
L1D0
10
361.5
20
-183
0
VERTEX
8
L1D0
10
366.5
20
-183
0
VERTEX
8
L1D0
10
366.5
20
-182
0
VERTEX
8
L1D0
10
369.5
20
-182
0
VERTEX
8
L1D0
10
369.5
20
-181
0
VERTEX
8
L1D0
10
371.5
20
-181
0
VERTEX
8
L1D0
10
371.5
20
-180
0
VERTEX
8
L1D0
10
372.5
20
-180
0
VERTEX
8
L1D0
10
372.5
20
-179
0
VERTEX
8
L1D0
10
374.5
20
-179
0
VERTEX
8
L1D0
10
374.5
20
-178
0
VERTEX
8
L1D0
10
375.5
20
-178
0
VERTEX
8
L1D0
10
375.5
20
-176
0
VERTEX
8
L1D0
10
376.5
20
-176
0
VERTEX
8
L1D0
10
376.5
20
-174
0
VERTEX
8
L1D0
10
377.5
20
-174
0
VERTEX
8
L1D0
10
377.5
20
-171
0
VERTEX
8
L1D0
10
378.5
20
-171
0
VERTEX
8
L1D0
10
378.5
20
-166
0
VERTEX
8
L1D0
10
379.5
20
-166
0
VERTEX
8
L1D0
10
379.5
20
-111
0
VERTEX
8
L1D0
10
-559.5
20
-111
0
VERTEX
8
L1D0
10
-559.5
20
-110
0
VERTEX
8
L1D0
10
-562.5
20
-110
0
VERTEX
8
L1D0
10
-562.5
20
-109
0
VERTEX
8
L1D0
10
-565.5
20
-109
0
VERTEX
8
L1D0
10
-565.5
20
-108
0
VERTEX
8
L1D0
10
-567.5
20
-108
0
VERTEX
8
L1D0
10
-567.5
20
-107
0
VERTEX
8
L1D0
10
-569.5
20
-107
0
VERTEX
8
L1D0
10
-569.5
20
-106
0
VERTEX
8
L1D0
10
-570.5
20
-106
0
VERTEX
8
L1D0
10
-570.5
20
-105
0
VERTEX
8
L1D0
10
-572.5
20
-105
0
VERTEX
8
L1D0
10
-572.5
20
-104
0
VERTEX
8
L1D0
10
-573.5
20
-104
0
VERTEX
8
L1D0
10
-573.5
20
-103
0
VERTEX
8
L1D0
10
-574.5
20
-103
0
VERTEX
8
L1D0
10
-574.5
20
-102
0
VERTEX
8
L1D0
10
-575.5
20
-102
0
VERTEX
8
L1D0
10
-575.5
20
-101
0
VERTEX
8
L1D0
10
-576.5
20
-101
0
VERTEX
8
L1D0
10
-576.5
20
-100
0
VERTEX
8
L1D0
10
-577.5
20
-100
0
VERTEX
8
L1D0
10
-577.5
20
-98
0
VERTEX
8
L1D0
10
-578.5
20
-98
0
VERTEX
8
L1D0
10
-578.5
20
-97
0
VERTEX
8
L1D0
10
-579.5
20
-97
0
VERTEX
8
L1D0
10
-579.5
20
-95
0
VERTEX
8
L1D0
10
-580.5
20
-95
0
VERTEX
8
L1D0
10
-580.5
20
-93
0
VERTEX
8
L1D0
10
-581.5
20
-93
0
VERTEX
8
L1D0
10
-581.5
20
-91
0
VERTEX
8
L1D0
10
-582.5
20
-91
0
VERTEX
8
L1D0
10
-582.5
20
-87
0
VERTEX
8
L1D0
10
-583.5
20
-87
0
VERTEX
8
L1D0
10
-583.5
20
-35
0
VERTEX
8
L1D0
10
-637.5
20
-35
0
VERTEX
8
L1D0
10
-637.5
20
-17
0
VERTEX
8
L1D0
10
-518.5
20
-17
0
VERTEX
8
L1D0
10
-518.5
20
-35
0
VERTEX
8
L1D0
10
-568.5
20
-35
0
VERTEX
8
L1D0
10
-568.5
20
-78
0
VERTEX
8
L1D0
10
-567.5
20
-78
0
VERTEX
8
L1D0
10
-567.5
20
-83
0
VERTEX
8
L1D0
10
-566.5
20
-83
0
VERTEX
8
L1D0
10
-566.5
20
-85
0
VERTEX
8
L1D0
10
-565.5
20
-85
0
VERTEX
8
L1D0
10
-565.5
20
-88
0
VERTEX
8
L1D0
10
-564.5
20
-88
0
VERTEX
8
L1D0
10
-564.5
20
-89
0
VERTEX
8
L1D0
10
-563.5
20
-89
0
VERTEX
8
L1D0
10
-563.5
20
-91
0
VERTEX
8
L1D0
10
-561.5
20
-91
0
VERTEX
8
L1D0
10
-561.5
20
-92
0
VERTEX
8
L1D0
10
-559.5
20
-92
0
VERTEX
8
L1D0
10
-559.5
20
-93
0
VERTEX
8
L1D0
10
-557.5
20
-93
0
VERTEX
8
L1D0
10
-557.5
20
-94
0
VERTEX
8
L1D0
10
-554.5
20
-94
0
VERTEX
8
L1D0
10
-554.5
20
-95
0
VERTEX
8
L1D0
10
-549.5
20
-95
0
VERTEX
8
L1D0
10
-549.5
20
-96
0
VERTEX
8
L1D0
10
493.5
20
-96
0
VERTEX
8
L1D0
10
493.5
20
-95
0
VERTEX
8
L1D0
10
526.5
20
-95
0
VERTEX
8
L1D0
10
526.5
20
-96
0
VERTEX
8
L1D0
10
548.5
20
-96
0
VERTEX
8
L1D0
10
548.5
20
-95
0
VERTEX
8
L1D0
10
553.5
20
-95
0
VERTEX
8
L1D0
10
553.5
20
-94
0
VERTEX
8
L1D0
10
556.5
20
-94
0
VERTEX
8
L1D0
10
556.5
20
-93
0
VERTEX
8
L1D0
10
558.5
20
-93
0
VERTEX
8
L1D0
10
558.5
20
-92
0
VERTEX
8
L1D0
10
560.5
20
-92
0
VERTEX
8
L1D0
10
560.5
20
-91
0
VERTEX
8
L1D0
10
561.5
20
-91
0
VERTEX
8
L1D0
10
561.5
20
-90
0
VERTEX
8
L1D0
10
562.5
20
-90
0
VERTEX
8
L1D0
10
562.5
20
-89
0
VERTEX
8
L1D0
10
563.5
20
-89
0
VERTEX
8
L1D0
10
563.5
20
-87
0
VERTEX
8
L1D0
10
564.5
20
-87
0
VERTEX
8
L1D0
10
564.5
20
-84
0
VERTEX
8
L1D0
10
565.5
20
-84
0
VERTEX
8
L1D0
10
565.5
20
-81
0
VERTEX
8
L1D0
10
566.5
20
-81
0
VERTEX
8
L1D0
10
566.5
20
-23
0
VERTEX
8
L1D0
10
565.5
20
-23
0
VERTEX
8
L1D0
10
565.5
20
-24
0
VERTEX
8
L1D0
10
564.5
20
-24
0
VERTEX
8
L1D0
10
564.5
20
-25
0
VERTEX
8
L1D0
10
563.5
20
-25
0
VERTEX
8
L1D0
10
563.5
20
-26
0
VERTEX
8
L1D0
10
562.5
20
-26
0
VERTEX
8
L1D0
10
562.5
20
-27
0
VERTEX
8
L1D0
10
561.5
20
-27
0
VERTEX
8
L1D0
10
561.5
20
-28
0
VERTEX
8
L1D0
10
560.5
20
-28
0
VERTEX
8
L1D0
10
560.5
20
-29
0
VERTEX
8
L1D0
10
559.5
20
-29
0
VERTEX
8
L1D0
10
559.5
20
-30
0
VERTEX
8
L1D0
10
558.5
20
-30
0
VERTEX
8
L1D0
10
558.5
20
-31
0
VERTEX
8
L1D0
10
557.5
20
-31
0
VERTEX
8
L1D0
10
557.5
20
-32
0
VERTEX
8
L1D0
10
556.5
20
-32
0
VERTEX
8
L1D0
10
556.5
20
-33
0
VERTEX
8
L1D0
10
555.5
20
-33
0
VERTEX
8
L1D0
10
555.5
20
-34
0
VERTEX
8
L1D0
10
554.5
20
-34
0
VERTEX
8
L1D0
10
554.5
20
-35
0
VERTEX
8
L1D0
10
553.5
20
-35
0
VERTEX
8
L1D0
10
553.5
20
-36
0
VERTEX
8
L1D0
10
552.5
20
-36
0
VERTEX
8
L1D0
10
552.5
20
-37
0
VERTEX
8
L1D0
10
551.5
20
-37
0
VERTEX
8
L1D0
10
551.5
20
-38
0
VERTEX
8
L1D0
10
550.5
20
-38
0
VERTEX
8
L1D0
10
550.5
20
-39
0
VERTEX
8
L1D0
10
549.5
20
-39
0
VERTEX
8
L1D0
10
549.5
20
-40
0
VERTEX
8
L1D0
10
548.5
20
-40
0
VERTEX
8
L1D0
10
548.5
20
-41
0
VERTEX
8
L1D0
10
547.5
20
-41
0
VERTEX
8
L1D0
10
547.5
20
-42
0
VERTEX
8
L1D0
10
546.5
20
-42
0
VERTEX
8
L1D0
10
546.5
20
-43
0
VERTEX
8
L1D0
10
545.5
20
-43
0
VERTEX
8
L1D0
10
545.5
20
-44
0
VERTEX
8
L1D0
10
544.5
20
-44
0
VERTEX
8
L1D0
10
544.5
20
-45
0
VERTEX
8
L1D0
10
543.5
20
-45
0
VERTEX
8
L1D0
10
543.5
20
-46
0
VERTEX
8
L1D0
10
542.5
20
-46
0
VERTEX
8
L1D0
10
542.5
20
-47
0
VERTEX
8
L1D0
10
541.5
20
-47
0
VERTEX
8
L1D0
10
541.5
20
-48
0
VERTEX
8
L1D0
10
540.5
20
-48
0
VERTEX
8
L1D0
10
540.5
20
-49
0
VERTEX
8
L1D0
10
539.5
20
-49
0
VERTEX
8
L1D0
10
539.5
20
-50
0
VERTEX
8
L1D0
10
538.5
20
-50
0
VERTEX
8
L1D0
10
538.5
20
-51
0
VERTEX
8
L1D0
10
537.5
20
-51
0
VERTEX
8
L1D0
10
537.5
20
-52
0
VERTEX
8
L1D0
10
536.5
20
-52
0
VERTEX
8
L1D0
10
536.5
20
-53
0
VERTEX
8
L1D0
10
535.5
20
-53
0
VERTEX
8
L1D0
10
535.5
20
-54
0
VERTEX
8
L1D0
10
534.5
20
-54
0
VERTEX
8
L1D0
10
534.5
20
-55
0
VERTEX
8
L1D0
10
533.5
20
-55
0
VERTEX
8
L1D0
10
533.5
20
-56
0
VERTEX
8
L1D0
10
532.5
20
-56
0
VERTEX
8
L1D0
10
532.5
20
-57
0
VERTEX
8
L1D0
10
531.5
20
-57
0
VERTEX
8
L1D0
10
531.5
20
-58
0
VERTEX
8
L1D0
10
530.5
20
-58
0
VERTEX
8
L1D0
10
530.5
20
-59
0
VERTEX
8
L1D0
10
529.5
20
-59
0
VERTEX
8
L1D0
10
529.5
20
-60
0
VERTEX
8
L1D0
10
528.5
20
-60
0
VERTEX
8
L1D0
10
528.5
20
-61
0
VERTEX
8
L1D0
10
527.5
20
-61
0
VERTEX
8
L1D0
10
527.5
20
-62
0
VERTEX
8
L1D0
10
526.5
20
-62
0
VERTEX
8
L1D0
10
526.5
20
-63
0
VERTEX
8
L1D0
10
525.5
20
-63
0
VERTEX
8
L1D0
10
525.5
20
-64
0
VERTEX
8
L1D0
10
524.5
20
-64
0
VERTEX
8
L1D0
10
524.5
20
-63
0
VERTEX
8
L1D0
10
522.5
20
-63
0
VERTEX
8
L1D0
10
522.5
20
-61
0
VERTEX
8
L1D0
10
520.5
20
-61
0
VERTEX
8
L1D0
10
520.5
20
-59
0
VERTEX
8
L1D0
10
519.5
20
-59
0
VERTEX
8
L1D0
10
519.5
20
-58
0
VERTEX
8
L1D0
10
518.5
20
-58
0
VERTEX
8
L1D0
10
518.5
20
-57
0
VERTEX
8
L1D0
10
517.5
20
-57
0
VERTEX
8
L1D0
10
517.5
20
-56
0
VERTEX
8
L1D0
10
515.5
20
-56
0
VERTEX
8
L1D0
10
515.5
20
-54
0
VERTEX
8
L1D0
10
513.5
20
-54
0
VERTEX
8
L1D0
10
513.5
20
-52
0
VERTEX
8
L1D0
10
514.5
20
-52
0
VERTEX
8
L1D0
10
514.5
20
-51
0
VERTEX
8
L1D0
10
515.5
20
-51
0
VERTEX
8
L1D0
10
515.5
20
-50
0
VERTEX
8
L1D0
10
516.5
20
-50
0
VERTEX
8
L1D0
10
516.5
20
-49
0
VERTEX
8
L1D0
10
517.5
20
-49
0
VERTEX
8
L1D0
10
517.5
20
-48
0
VERTEX
8
L1D0
10
518.5
20
-48
0
VERTEX
8
L1D0
10
518.5
20
-47
0
VERTEX
8
L1D0
10
519.5
20
-47
0
VERTEX
8
L1D0
10
519.5
20
-46
0
VERTEX
8
L1D0
10
520.5
20
-46
0
VERTEX
8
L1D0
10
520.5
20
-45
0
VERTEX
8
L1D0
10
521.5
20
-45
0
VERTEX
8
L1D0
10
521.5
20
-44
0
VERTEX
8
L1D0
10
522.5
20
-44
0
VERTEX
8
L1D0
10
522.5
20
-43
0
VERTEX
8
L1D0
10
523.5
20
-43
0
VERTEX
8
L1D0
10
523.5
20
-42
0
VERTEX
8
L1D0
10
524.5
20
-42
0
VERTEX
8
L1D0
10
524.5
20
-41
0
VERTEX
8
L1D0
10
525.5
20
-41
0
VERTEX
8
L1D0
10
525.5
20
-40
0
VERTEX
8
L1D0
10
526.5
20
-40
0
VERTEX
8
L1D0
10
526.5
20
-39
0
VERTEX
8
L1D0
10
527.5
20
-39
0
VERTEX
8
L1D0
10
527.5
20
-38
0
VERTEX
8
L1D0
10
528.5
20
-38
0
VERTEX
8
L1D0
10
528.5
20
-37
0
VERTEX
8
L1D0
10
529.5
20
-37
0
VERTEX
8
L1D0
10
529.5
20
-36
0
VERTEX
8
L1D0
10
530.5
20
-36
0
VERTEX
8
L1D0
10
530.5
20
-35
0
VERTEX
8
L1D0
10
531.5
20
-35
0
VERTEX
8
L1D0
10
531.5
20
-34
0
VERTEX
8
L1D0
10
532.5
20
-34
0
VERTEX
8
L1D0
10
532.5
20
-33
0
VERTEX
8
L1D0
10
533.5
20
-33
0
VERTEX
8
L1D0
10
533.5
20
-32
0
VERTEX
8
L1D0
10
534.5
20
-32
0
VERTEX
8
L1D0
10
534.5
20
-31
0
VERTEX
8
L1D0
10
535.5
20
-31
0
VERTEX
8
L1D0
10
535.5
20
-30
0
VERTEX
8
L1D0
10
536.5
20
-30
0
VERTEX
8
L1D0
10
536.5
20
-29
0
VERTEX
8
L1D0
10
537.5
20
-29
0
VERTEX
8
L1D0
10
537.5
20
-28
0
VERTEX
8
L1D0
10
538.5
20
-28
0
VERTEX
8
L1D0
10
538.5
20
-27
0
VERTEX
8
L1D0
10
539.5
20
-27
0
VERTEX
8
L1D0
10
539.5
20
-26
0
VERTEX
8
L1D0
10
540.5
20
-26
0
VERTEX
8
L1D0
10
540.5
20
-25
0
VERTEX
8
L1D0
10
541.5
20
-25
0
VERTEX
8
L1D0
10
541.5
20
-24
0
VERTEX
8
L1D0
10
542.5
20
-24
0
VERTEX
8
L1D0
10
542.5
20
-23
0
VERTEX
8
L1D0
10
543.5
20
-23
0
VERTEX
8
L1D0
10
543.5
20
-22
0
VERTEX
8
L1D0
10
544.5
20
-22
0
VERTEX
8
L1D0
10
544.5
20
-21
0
VERTEX
8
L1D0
10
545.5
20
-21
0
VERTEX
8
L1D0
10
545.5
20
-20
0
VERTEX
8
L1D0
10
546.5
20
-20
0
VERTEX
8
L1D0
10
546.5
20
-19
0
VERTEX
8
L1D0
10
547.5
20
-19
0
VERTEX
8
L1D0
10
547.5
20
-18
0
VERTEX
8
L1D0
10
548.5
20
-18
0
VERTEX
8
L1D0
10
548.5
20
-17
0
VERTEX
8
L1D0
10
549.5
20
-17
0
VERTEX
8
L1D0
10
549.5
20
-16
0
VERTEX
8
L1D0
10
550.5
20
-16
0
VERTEX
8
L1D0
10
550.5
20
-15
0
VERTEX
8
L1D0
10
551.5
20
-15
0
VERTEX
8
L1D0
10
551.5
20
-14
0
VERTEX
8
L1D0
10
552.5
20
-14
0
VERTEX
8
L1D0
10
552.5
20
-13
0
VERTEX
8
L1D0
10
553.5
20
-13
0
VERTEX
8
L1D0
10
553.5
20
-12
0
VERTEX
8
L1D0
10
554.5
20
-12
0
VERTEX
8
L1D0
10
554.5
20
-11
0
VERTEX
8
L1D0
10
555.5
20
-11
0
VERTEX
8
L1D0
10
555.5
20
-10
0
VERTEX
8
L1D0
10
556.5
20
-10
0
VERTEX
8
L1D0
10
556.5
20
-9
0
VERTEX
8
L1D0
10
557.5
20
-9
0
VERTEX
8
L1D0
10
557.5
20
-8
0
VERTEX
8
L1D0
10
558.5
20
-8
0
VERTEX
8
L1D0
10
558.5
20
-7
0
VERTEX
8
L1D0
10
559.5
20
-7
0
VERTEX
8
L1D0
10
559.5
20
-6
0
VERTEX
8
L1D0
10
560.5
20
-6
0
VERTEX
8
L1D0
10
560.5
20
-5
0
VERTEX
8
L1D0
10
561.5
20
-5
0
VERTEX
8
L1D0
10
561.5
20
-4
0
VERTEX
8
L1D0
10
562.5
20
-4
0
VERTEX
8
L1D0
10
562.5
20
-3
0
VERTEX
8
L1D0
10
563.5
20
-3
0
VERTEX
8
L1D0
10
563.5
20
0
0
VERTEX
8
L1D0
10
561.5
20
0
0
VERTEX
8
L1D0
10
561.5
20
2
0
VERTEX
8
L1D0
10
559.5
20
2
0
VERTEX
8
L1D0
10
559.5
20
3
0
VERTEX
8
L1D0
10
558.5
20
3
0
VERTEX
8
L1D0
10
558.5
20
4
0
VERTEX
8
L1D0
10
557.5
20
4
0
VERTEX
8
L1D0
10
557.5
20
5
0
VERTEX
8
L1D0
10
556.5
20
5
0
VERTEX
8
L1D0
10
556.5
20
7
0
VERTEX
8
L1D0
10
554.5
20
7
0
VERTEX
8
L1D0
10
554.5
20
8
0
VERTEX
8
L1D0
10
553.5
20
8
0
VERTEX
8
L1D0
10
553.5
20
9
0
VERTEX
8
L1D0
10
552.5
20
9
0
VERTEX
8
L1D0
10
552.5
20
10
0
VERTEX
8
L1D0
10
551.5
20
10
0
VERTEX
8
L1D0
10
551.5
20
12
0
VERTEX
8
L1D0
10
549.5
20
12
0
VERTEX
8
L1D0
10
549.5
20
13
0
VERTEX
8
L1D0
10
548.5
20
13
0
VERTEX
8
L1D0
10
548.5
20
14
0
VERTEX
8
L1D0
10
547.5
20
14
0
VERTEX
8
L1D0
10
547.5
20
15
0
VERTEX
8
L1D0
10
546.5
20
15
0
VERTEX
8
L1D0
10
546.5
20
16
0
VERTEX
8
L1D0
10
545.5
20
16
0
VERTEX
8
L1D0
10
545.5
20
17
0
VERTEX
8
L1D0
10
544.5
20
17
0
VERTEX
8
L1D0
10
544.5
20
19
0
VERTEX
8
L1D0
10
542.5
20
19
0
VERTEX
8
L1D0
10
542.5
20
20
0
VERTEX
8
L1D0
10
541.5
20
20
0
VERTEX
8
L1D0
10
541.5
20
21
0
VERTEX
8
L1D0
10
540.5
20
21
0
VERTEX
8
L1D0
10
540.5
20
22
0
VERTEX
8
L1D0
10
539.5
20
22
0
VERTEX
8
L1D0
10
539.5
20
24
0
VERTEX
8
L1D0
10
537.5
20
24
0
VERTEX
8
L1D0
10
537.5
20
25
0
VERTEX
8
L1D0
10
536.5
20
25
0
VERTEX
8
L1D0
10
536.5
20
26
0
VERTEX
8
L1D0
10
535.5
20
26
0
VERTEX
8
L1D0
10
535.5
20
27
0
VERTEX
8
L1D0
10
534.5
20
27
0
VERTEX
8
L1D0
10
534.5
20
29
0
VERTEX
8
L1D0
10
532.5
20
29
0
VERTEX
8
L1D0
10
532.5
20
31
0
VERTEX
8
L1D0
10
530.5
20
31
0
VERTEX
8
L1D0
10
530.5
20
32
0
VERTEX
8
L1D0
10
529.5
20
32
0
VERTEX
8
L1D0
10
529.5
20
33
0
VERTEX
8
L1D0
10
528.5
20
33
0
VERTEX
8
L1D0
10
528.5
20
34
0
VERTEX
8
L1D0
10
527.5
20
34
0
VERTEX
8
L1D0
10
527.5
20
36
0
VERTEX
8
L1D0
10
525.5
20
36
0
VERTEX
8
L1D0
10
525.5
20
38
0
VERTEX
8
L1D0
10
523.5
20
38
0
VERTEX
8
L1D0
10
523.5
20
39
0
VERTEX
8
L1D0
10
522.5
20
39
0
VERTEX
8
L1D0
10
522.5
20
41
0
VERTEX
8
L1D0
10
520.5
20
41
0
VERTEX
8
L1D0
10
520.5
20
43
0
VERTEX
8
L1D0
10
518.5
20
43
0
VERTEX
8
L1D0
10
518.5
20
44
0
VERTEX
8
L1D0
10
517.5
20
44
0
VERTEX
8
L1D0
10
517.5
20
46
0
VERTEX
8
L1D0
10
515.5
20
46
0
VERTEX
8
L1D0
10
515.5
20
48
0
VERTEX
8
L1D0
10
513.5
20
48
0
VERTEX
8
L1D0
10
513.5
20
50
0
VERTEX
8
L1D0
10
514.5
20
50
0
VERTEX
8
L1D0
10
514.5
20
51
0
VERTEX
8
L1D0
10
515.5
20
51
0
VERTEX
8
L1D0
10
515.5
20
52
0
VERTEX
8
L1D0
10
516.5
20
52
0
VERTEX
8
L1D0
10
516.5
20
53
0
VERTEX
8
L1D0
10
517.5
20
53
0
VERTEX
8
L1D0
10
517.5
20
54
0
VERTEX
8
L1D0
10
518.5
20
54
0
VERTEX
8
L1D0
10
518.5
20
55
0
VERTEX
8
L1D0
10
519.5
20
55
0
VERTEX
8
L1D0
10
519.5
20
56
0
VERTEX
8
L1D0
10
520.5
20
56
0
VERTEX
8
L1D0
10
520.5
20
57
0
VERTEX
8
L1D0
10
521.5
20
57
0
VERTEX
8
L1D0
10
521.5
20
58
0
VERTEX
8
L1D0
10
522.5
20
58
0
VERTEX
8
L1D0
10
522.5
20
59
0
VERTEX
8
L1D0
10
523.5
20
59
0
VERTEX
8
L1D0
10
523.5
20
60
0
VERTEX
8
L1D0
10
524.5
20
60
0
VERTEX
8
L1D0
10
524.5
20
61
0
VERTEX
8
L1D0
10
525.5
20
61
0
VERTEX
8
L1D0
10
525.5
20
59
0
VERTEX
8
L1D0
10
527.5
20
59
0
VERTEX
8
L1D0
10
527.5
20
58
0
VERTEX
8
L1D0
10
528.5
20
58
0
VERTEX
8
L1D0
10
528.5
20
57
0
VERTEX
8
L1D0
10
529.5
20
57
0
VERTEX
8
L1D0
10
529.5
20
56
0
VERTEX
8
L1D0
10
530.5
20
56
0
VERTEX
8
L1D0
10
530.5
20
54
0
VERTEX
8
L1D0
10
532.5
20
54
0
VERTEX
8
L1D0
10
532.5
20
53
0
VERTEX
8
L1D0
10
533.5
20
53
0
VERTEX
8
L1D0
10
533.5
20
52
0
VERTEX
8
L1D0
10
534.5
20
52
0
VERTEX
8
L1D0
10
534.5
20
51
0
VERTEX
8
L1D0
10
535.5
20
51
0
VERTEX
8
L1D0
10
535.5
20
49
0
VERTEX
8
L1D0
10
537.5
20
49
0
VERTEX
8
L1D0
10
537.5
20
47
0
VERTEX
8
L1D0
10
539.5
20
47
0
VERTEX
8
L1D0
10
539.5
20
46
0
VERTEX
8
L1D0
10
540.5
20
46
0
VERTEX
8
L1D0
10
540.5
20
44
0
VERTEX
8
L1D0
10
542.5
20
44
0
VERTEX
8
L1D0
10
542.5
20
42
0
VERTEX
8
L1D0
10
544.5
20
42
0
VERTEX
8
L1D0
10
544.5
20
40
0
VERTEX
8
L1D0
10
546.5
20
40
0
VERTEX
8
L1D0
10
546.5
20
39
0
VERTEX
8
L1D0
10
547.5
20
39
0
VERTEX
8
L1D0
10
547.5
20
37
0
VERTEX
8
L1D0
10
549.5
20
37
0
VERTEX
8
L1D0
10
549.5
20
35
0
VERTEX
8
L1D0
10
551.5
20
35
0
VERTEX
8
L1D0
10
551.5
20
34
0
VERTEX
8
L1D0
10
552.5
20
34
0
VERTEX
8
L1D0
10
552.5
20
32
0
VERTEX
8
L1D0
10
554.5
20
32
0
VERTEX
8
L1D0
10
554.5
20
30
0
VERTEX
8
L1D0
10
556.5
20
30
0
VERTEX
8
L1D0
10
556.5
20
29
0
VERTEX
8
L1D0
10
557.5
20
29
0
VERTEX
8
L1D0
10
557.5
20
28
0
VERTEX
8
L1D0
10
558.5
20
28
0
VERTEX
8
L1D0
10
558.5
20
27
0
VERTEX
8
L1D0
10
559.5
20
27
0
VERTEX
8
L1D0
10
559.5
20
25
0
VERTEX
8
L1D0
10
561.5
20
25
0
VERTEX
8
L1D0
10
561.5
20
24
0
VERTEX
8
L1D0
10
562.5
20
24
0
VERTEX
8
L1D0
10
562.5
20
23
0
VERTEX
8
L1D0
10
563.5
20
23
0
VERTEX
8
L1D0
10
563.5
20
22
0
VERTEX
8
L1D0
10
564.5
20
22
0
VERTEX
8
L1D0
10
564.5
20
20
0
VERTEX
8
L1D0
10
566.5
20
20
0
VERTEX
8
L1D0
10
566.5
20
75
0
VERTEX
8
L1D0
10
565.5
20
75
0
VERTEX
8
L1D0
10
565.5
20
78
0
VERTEX
8
L1D0
10
564.5
20
78
0
VERTEX
8
L1D0
10
564.5
20
81
0
VERTEX
8
L1D0
10
563.5
20
81
0
VERTEX
8
L1D0
10
563.5
20
83
0
VERTEX
8
L1D0
10
562.5
20
83
0
VERTEX
8
L1D0
10
562.5
20
84
0
VERTEX
8
L1D0
10
561.5
20
84
0
VERTEX
8
L1D0
10
561.5
20
85
0
VERTEX
8
L1D0
10
560.5
20
85
0
VERTEX
8
L1D0
10
560.5
20
86
0
VERTEX
8
L1D0
10
558.5
20
86
0
VERTEX
8
L1D0
10
558.5
20
87
0
VERTEX
8
L1D0
10
556.5
20
87
0
VERTEX
8
L1D0
10
556.5
20
88
0
VERTEX
8
L1D0
10
553.5
20
88
0
VERTEX
8
L1D0
10
553.5
20
89
0
VERTEX
8
L1D0
10
548.5
20
89
0
VERTEX
8
L1D0
10
548.5
20
90
0
VERTEX
8
L1D0
10
-550.5
20
90
0
VERTEX
8
L1D0
10
-550.5
20
89
0
VERTEX
8
L1D0
10
-555.5
20
89
0
VERTEX
8
L1D0
10
-555.5
20
88
0
VERTEX
8
L1D0
10
-557.5
20
88
0
VERTEX
8
L1D0
10
-557.5
20
87
0
VERTEX
8
L1D0
10
-559.5
20
87
0
VERTEX
8
L1D0
10
-559.5
20
86
0
VERTEX
8
L1D0
10
-561.5
20
86
0
VERTEX
8
L1D0
10
-561.5
20
85
0
VERTEX
8
L1D0
10
-563.5
20
85
0
VERTEX
8
L1D0
10
-563.5
20
83
0
VERTEX
8
L1D0
10
-564.5
20
83
0
VERTEX
8
L1D0
10
-564.5
20
82
0
VERTEX
8
L1D0
10
-565.5
20
82
0
VERTEX
8
L1D0
10
-565.5
20
79
0
VERTEX
8
L1D0
10
-566.5
20
79
0
VERTEX
8
L1D0
10
-566.5
20
77
0
VERTEX
8
L1D0
10
-567.5
20
77
0
VERTEX
8
L1D0
10
-567.5
20
72
0
VERTEX
8
L1D0
10
-568.5
20
72
0
VERTEX
8
L1D0
10
-568.5
20
23
0
VERTEX
8
L1D0
10
-518.5
20
23
0
VERTEX
8
L1D0
10
-518.5
20
5
0
VERTEX
8
L1D0
10
-637.5
20
5
0
VERTEX
8
L1D0
10
-637.5
20
23
0
VERTEX
8
L1D0
10
-583.5
20
23
0
VERTEX
8
L1D0
10
-583.5
20
81
0
VERTEX
8
L1D0
10
-582.5
20
81
0
VERTEX
8
L1D0
10
-582.5
20
85
0
VERTEX
8
L1D0
10
-581.5
20
85
0
VERTEX
8
L1D0
10
-581.5
20
87
0
VERTEX
8
L1D0
10
-580.5
20
87
0
VERTEX
8
L1D0
10
-580.5
20
89
0
VERTEX
8
L1D0
10
-579.5
20
89
0
VERTEX
8
L1D0
10
-579.5
20
91
0
VERTEX
8
L1D0
10
-578.5
20
91
0
VERTEX
8
L1D0
10
-578.5
20
92
0
VERTEX
8
L1D0
10
-577.5
20
92
0
VERTEX
8
L1D0
10
-577.5
20
94
0
VERTEX
8
L1D0
10
-576.5
20
94
0
VERTEX
8
L1D0
10
-576.5
20
95
0
VERTEX
8
L1D0
10
-575.5
20
95
0
VERTEX
8
L1D0
10
-575.5
20
96
0
VERTEX
8
L1D0
10
-574.5
20
96
0
VERTEX
8
L1D0
10
-574.5
20
97
0
VERTEX
8
L1D0
10
-573.5
20
97
0
VERTEX
8
L1D0
10
-573.5
20
98
0
VERTEX
8
L1D0
10
-572.5
20
98
0
VERTEX
8
L1D0
10
-572.5
20
99
0
VERTEX
8
L1D0
10
-570.5
20
99
0
VERTEX
8
L1D0
10
-570.5
20
100
0
VERTEX
8
L1D0
10
-569.5
20
100
0
VERTEX
8
L1D0
10
-569.5
20
101
0
VERTEX
8
L1D0
10
-567.5
20
101
0
VERTEX
8
L1D0
10
-567.5
20
102
0
VERTEX
8
L1D0
10
-565.5
20
102
0
VERTEX
8
L1D0
10
-565.5
20
103
0
VERTEX
8
L1D0
10
-563.5
20
103
0
VERTEX
8
L1D0
10
-563.5
20
104
0
VERTEX
8
L1D0
10
-559.5
20
104
0
VERTEX
8
L1D0
10
-559.5
20
105
0
VERTEX
8
L1D0
10
-421.5
20
105
0
VERTEX
8
L1D0
10
-421.5
20
177
0
VERTEX
8
L1D0
10
-420.5
20
177
0
VERTEX
8
L1D0
10
-420.5
20
181
0
VERTEX
8
L1D0
10
-419.5
20
181
0
VERTEX
8
L1D0
10
-419.5
20
183
0
VERTEX
8
L1D0
10
-418.5
20
183
0
VERTEX
8
L1D0
10
-418.5
20
185
0
VERTEX
8
L1D0
10
-417.5
20
185
0
VERTEX
8
L1D0
10
-417.5
20
187
0
VERTEX
8
L1D0
10
-416.5
20
187
0
VERTEX
8
L1D0
10
-416.5
20
188
0
VERTEX
8
L1D0
10
-415.5
20
188
0
VERTEX
8
L1D0
10
-415.5
20
190
0
VERTEX
8
L1D0
10
-414.5
20
190
0
VERTEX
8
L1D0
10
-414.5
20
191
0
VERTEX
8
L1D0
10
-413.5
20
191
0
VERTEX
8
L1D0
10
-413.5
20
192
0
VERTEX
8
L1D0
10
-412.5
20
192
0
VERTEX
8
L1D0
10
-412.5
20
193
0
VERTEX
8
L1D0
10
-411.5
20
193
0
VERTEX
8
L1D0
10
-411.5
20
194
0
VERTEX
8
L1D0
10
-410.5
20
194
0
VERTEX
8
L1D0
10
-410.5
20
195
0
VERTEX
8
L1D0
10
-408.5
20
195
0
VERTEX
8
L1D0
10
-408.5
20
196
0
VERTEX
8
L1D0
10
-407.5
20
196
0
VERTEX
8
L1D0
10
-407.5
20
197
0
VERTEX
8
L1D0
10
-405.5
20
197
0
VERTEX
8
L1D0
10
-405.5
20
198
0
VERTEX
8
L1D0
10
-403.5
20
198
0
VERTEX
8
L1D0
10
-403.5
20
199
0
VERTEX
8
L1D0
10
-400.5
20
199
0
VERTEX
8
L1D0
10
-400.5
20
200
0
VERTEX
8
L1D0
10
-397.5
20
200
0
VERTEX
8
L1D0
10
-397.5
20
201
0
VERTEX
8
L1D0
10
-252.5
20
201
0
VERTEX
8
L1D0
10
-252.5
20
234
0
VERTEX
8
L1D0
10
-239.5
20
234
0
VERTEX
8
L1D0
10
-239.5
20
151
0
VERTEX
8
L1D0
10
-252.5
20
151
0
VERTEX
8
L1D0
10
-252.5
20
186
0
VERTEX
8
L1D0
10
-388.5
20
186
0
VERTEX
8
L1D0
10
-388.5
20
185
0
VERTEX
8
L1D0
10
-392.5
20
185
0
VERTEX
8
L1D0
10
-392.5
20
184
0
VERTEX
8
L1D0
10
-396.5
20
184
0
VERTEX
8
L1D0
10
-396.5
20
183
0
VERTEX
8
L1D0
10
-397.5
20
183
0
VERTEX
8
L1D0
10
-397.5
20
182
0
VERTEX
8
L1D0
10
-399.5
20
182
0
VERTEX
8
L1D0
10
-399.5
20
181
0
VERTEX
8
L1D0
10
-401.5
20
181
0
VERTEX
8
L1D0
10
-401.5
20
179
0
VERTEX
8
L1D0
10
-402.5
20
179
0
VERTEX
8
L1D0
10
-402.5
20
178
0
VERTEX
8
L1D0
10
-403.5
20
178
0
VERTEX
8
L1D0
10
-403.5
20
176
0
VERTEX
8
L1D0
10
-404.5
20
176
0
VERTEX
8
L1D0
10
-404.5
20
173
0
VERTEX
8
L1D0
10
-405.5
20
173
0
VERTEX
8
L1D0
10
-405.5
20
168
0
VERTEX
8
L1D0
10
-406.5
20
168
0
VERTEX
8
L1D0
10
-406.5
20
105
0
VERTEX
8
L1D0
10
557.5
20
105
0
VERTEX
8
L1D0
10
557.5
20
104
0
VERTEX
8
L1D0
10
561.5
20
104
0
VERTEX
8
L1D0
10
561.5
20
103
0
VERTEX
8
L1D0
10
564.5
20
103
0
VERTEX
8
L1D0
10
564.5
20
102
0
VERTEX
8
L1D0
10
566.5
20
102
0
VERTEX
8
L1D0
10
566.5
20
101
0
VERTEX
8
L1D0
10
567.5
20
101
0
VERTEX
8
L1D0
10
567.5
20
100
0
VERTEX
8
L1D0
10
569.5
20
100
0
VERTEX
8
L1D0
10
569.5
20
99
0
VERTEX
8
L1D0
10
570.5
20
99
0
VERTEX
8
L1D0
10
570.5
20
98
0
VERTEX
8
L1D0
10
571.5
20
98
0
VERTEX
8
L1D0
10
571.5
20
97
0
VERTEX
8
L1D0
10
572.5
20
97
0
VERTEX
8
L1D0
10
572.5
20
96
0
VERTEX
8
L1D0
10
573.5
20
96
0
VERTEX
8
L1D0
10
573.5
20
95
0
VERTEX
8
L1D0
10
574.5
20
95
0
VERTEX
8
L1D0
10
574.5
20
94
0
VERTEX
8
L1D0
10
575.5
20
94
0
VERTEX
8
L1D0
10
575.5
20
93
0
VERTEX
8
L1D0
10
576.5
20
93
0
VERTEX
8
L1D0
10
576.5
20
92
0
VERTEX
8
L1D0
10
577.5
20
92
0
VERTEX
8
L1D0
10
577.5
20
90
0
VERTEX
8
L1D0
10
578.5
20
90
0
VERTEX
8
L1D0
10
578.5
20
88
0
VERTEX
8
L1D0
10
579.5
20
88
0
VERTEX
8
L1D0
10
579.5
20
86
0
VERTEX
8
L1D0
10
580.5
20
86
0
VERTEX
8
L1D0
10
580.5
20
83
0
VERTEX
8
L1D0
10
581.5
20
83
0
VERTEX
8
L1D0
10
581.5
20
78
0
VERTEX
8
L1D0
10
582.5
20
78
0
VERTEX
8
L1D0
10
582.5
20
17
0
VERTEX
8
L1D0
10
583.5
20
17
0
VERTEX
8
L1D0
10
583.5
20
18
0
VERTEX
8
L1D0
10
584.5
20
18
0
VERTEX
8
L1D0
10
584.5
20
19
0
VERTEX
8
L1D0
10
585.5
20
19
0
VERTEX
8
L1D0
10
585.5
20
20
0
VERTEX
8
L1D0
10
586.5
20
20
0
VERTEX
8
L1D0
10
586.5
20
21
0
VERTEX
8
L1D0
10
587.5
20
21
0
VERTEX
8
L1D0
10
587.5
20
22
0
VERTEX
8
L1D0
10
588.5
20
22
0
VERTEX
8
L1D0
10
588.5
20
23
0
VERTEX
8
L1D0
10
589.5
20
23
0
VERTEX
8
L1D0
10
589.5
20
24
0
VERTEX
8
L1D0
10
590.5
20
24
0
VERTEX
8
L1D0
10
590.5
20
25
0
VERTEX
8
L1D0
10
591.5
20
25
0
VERTEX
8
L1D0
10
591.5
20
26
0
VERTEX
8
L1D0
10
592.5
20
26
0
VERTEX
8
L1D0
10
592.5
20
27
0
VERTEX
8
L1D0
10
593.5
20
27
0
VERTEX
8
L1D0
10
593.5
20
28
0
VERTEX
8
L1D0
10
594.5
20
28
0
VERTEX
8
L1D0
10
594.5
20
29
0
VERTEX
8
L1D0
10
595.5
20
29
0
VERTEX
8
L1D0
10
595.5
20
30
0
VERTEX
8
L1D0
10
596.5
20
30
0
VERTEX
8
L1D0
10
596.5
20
31
0
VERTEX
8
L1D0
10
597.5
20
31
0
VERTEX
8
L1D0
10
597.5
20
32
0
VERTEX
8
L1D0
10
598.5
20
32
0
VERTEX
8
L1D0
10
598.5
20
33
0
VERTEX
8
L1D0
10
599.5
20
33
0
VERTEX
8
L1D0
10
599.5
20
34
0
VERTEX
8
L1D0
10
600.5
20
34
0
VERTEX
8
L1D0
10
600.5
20
35
0
VERTEX
8
L1D0
10
601.5
20
35
0
VERTEX
8
L1D0
10
601.5
20
36
0
VERTEX
8
L1D0
10
602.5
20
36
0
VERTEX
8
L1D0
10
602.5
20
37
0
VERTEX
8
L1D0
10
603.5
20
37
0
VERTEX
8
L1D0
10
603.5
20
38
0
VERTEX
8
L1D0
10
604.5
20
38
0
VERTEX
8
L1D0
10
604.5
20
39
0
VERTEX
8
L1D0
10
605.5
20
39
0
VERTEX
8
L1D0
10
605.5
20
40
0
VERTEX
8
L1D0
10
606.5
20
40
0
VERTEX
8
L1D0
10
606.5
20
41
0
VERTEX
8
L1D0
10
607.5
20
41
0
VERTEX
8
L1D0
10
607.5
20
42
0
VERTEX
8
L1D0
10
608.5
20
42
0
VERTEX
8
L1D0
10
608.5
20
43
0
VERTEX
8
L1D0
10
609.5
20
43
0
VERTEX
8
L1D0
10
609.5
20
44
0
VERTEX
8
L1D0
10
610.5
20
44
0
VERTEX
8
L1D0
10
610.5
20
45
0
VERTEX
8
L1D0
10
611.5
20
45
0
VERTEX
8
L1D0
10
611.5
20
46
0
VERTEX
8
L1D0
10
612.5
20
46
0
VERTEX
8
L1D0
10
612.5
20
47
0
VERTEX
8
L1D0
10
613.5
20
47
0
VERTEX
8
L1D0
10
613.5
20
48
0
VERTEX
8
L1D0
10
614.5
20
48
0
VERTEX
8
L1D0
10
614.5
20
49
0
VERTEX
8
L1D0
10
615.5
20
49
0
VERTEX
8
L1D0
10
615.5
20
50
0
VERTEX
8
L1D0
10
616.5
20
50
0
VERTEX
8
L1D0
10
616.5
20
51
0
VERTEX
8
L1D0
10
617.5
20
51
0
VERTEX
8
L1D0
10
617.5
20
52
0
VERTEX
8
L1D0
10
618.5
20
52
0
VERTEX
8
L1D0
10
618.5
20
53
0
VERTEX
8
L1D0
10
619.5
20
53
0
VERTEX
8
L1D0
10
619.5
20
54
0
VERTEX
8
L1D0
10
620.5
20
54
0
VERTEX
8
L1D0
10
620.5
20
55
0
VERTEX
8
L1D0
10
621.5
20
55
0
VERTEX
8
L1D0
10
621.5
20
56
0
VERTEX
8
L1D0
10
622.5
20
56
0
VERTEX
8
L1D0
10
622.5
20
57
0
VERTEX
8
L1D0
10
623.5
20
57
0
VERTEX
8
L1D0
10
623.5
20
58
0
VERTEX
8
L1D0
10
624.5
20
58
0
VERTEX
8
L1D0
10
624.5
20
59
0
VERTEX
8
L1D0
10
625.5
20
59
0
VERTEX
8
L1D0
10
625.5
20
60
0
VERTEX
8
L1D0
10
627.5
20
60
0
VERTEX
8
L1D0
10
627.5
20
59
0
VERTEX
8
L1D0
10
629.5
20
59
0
VERTEX
8
L1D0
10
629.5
20
57
0
VERTEX
8
L1D0
10
631.5
20
57
0
VERTEX
8
L1D0
10
631.5
20
55
0
VERTEX
8
L1D0
10
632.5
20
55
0
VERTEX
8
L1D0
10
632.5
20
54
0
VERTEX
8
L1D0
10
634.5
20
54
0
VERTEX
8
L1D0
10
634.5
20
52
0
VERTEX
8
L1D0
10
636.5
20
52
0
VERTEX
8
L1D0
10
636.5
20
50
0
VERTEX
8
L1D0
10
637.5
20
50
0
VERTEX
8
L1D0
10
637.5
20
48
0
VERTEX
8
L1D0
10
636.5
20
48
0
VERTEX
8
L1D0
10
636.5
20
47
0
VERTEX
8
L1D0
10
635.5
20
47
0
VERTEX
8
L1D0
10
635.5
20
46
0
VERTEX
8
L1D0
10
634.5
20
46
0
VERTEX
8
L1D0
10
634.5
20
45
0
VERTEX
8
L1D0
10
633.5
20
45
0
VERTEX
8
L1D0
10
633.5
20
44
0
VERTEX
8
L1D0
10
632.5
20
44
0
VERTEX
8
L1D0
10
632.5
20
43
0
VERTEX
8
L1D0
10
631.5
20
43
0
VERTEX
8
L1D0
10
631.5
20
42
0
VERTEX
8
L1D0
10
630.5
20
42
0
VERTEX
8
L1D0
10
630.5
20
41
0
VERTEX
8
L1D0
10
629.5
20
41
0
VERTEX
8
L1D0
10
629.5
20
40
0
VERTEX
8
L1D0
10
628.5
20
40
0
VERTEX
8
L1D0
10
628.5
20
39
0
VERTEX
8
L1D0
10
627.5
20
39
0
VERTEX
8
L1D0
10
627.5
20
38
0
VERTEX
8
L1D0
10
626.5
20
38
0
VERTEX
8
L1D0
10
626.5
20
37
0
VERTEX
8
L1D0
10
625.5
20
37
0
VERTEX
8
L1D0
10
625.5
20
36
0
VERTEX
8
L1D0
10
624.5
20
36
0
VERTEX
8
L1D0
10
624.5
20
35
0
VERTEX
8
L1D0
10
623.5
20
35
0
VERTEX
8
L1D0
10
623.5
20
34
0
VERTEX
8
L1D0
10
622.5
20
34
0
VERTEX
8
L1D0
10
622.5
20
33
0
VERTEX
8
L1D0
10
621.5
20
33
0
VERTEX
8
L1D0
10
621.5
20
32
0
VERTEX
8
L1D0
10
620.5
20
32
0
VERTEX
8
L1D0
10
620.5
20
31
0
VERTEX
8
L1D0
10
619.5
20
31
0
VERTEX
8
L1D0
10
619.5
20
30
0
VERTEX
8
L1D0
10
618.5
20
30
0
VERTEX
8
L1D0
10
618.5
20
29
0
VERTEX
8
L1D0
10
617.5
20
29
0
VERTEX
8
L1D0
10
617.5
20
28
0
VERTEX
8
L1D0
10
616.5
20
28
0
VERTEX
8
L1D0
10
616.5
20
27
0
VERTEX
8
L1D0
10
615.5
20
27
0
VERTEX
8
L1D0
10
615.5
20
26
0
VERTEX
8
L1D0
10
614.5
20
26
0
VERTEX
8
L1D0
10
614.5
20
25
0
VERTEX
8
L1D0
10
613.5
20
25
0
VERTEX
8
L1D0
10
613.5
20
24
0
VERTEX
8
L1D0
10
612.5
20
24
0
VERTEX
8
L1D0
10
612.5
20
23
0
VERTEX
8
L1D0
10
611.5
20
23
0
VERTEX
8
L1D0
10
611.5
20
22
0
VERTEX
8
L1D0
10
610.5
20
22
0
VERTEX
8
L1D0
10
610.5
20
21
0
VERTEX
8
L1D0
10
609.5
20
21
0
VERTEX
8
L1D0
10
609.5
20
20
0
VERTEX
8
L1D0
10
608.5
20
20
0
VERTEX
8
L1D0
10
608.5
20
19
0
VERTEX
8
L1D0
10
607.5
20
19
0
VERTEX
8
L1D0
10
607.5
20
18
0
VERTEX
8
L1D0
10
606.5
20
18
0
VERTEX
8
L1D0
10
606.5
20
17
0
VERTEX
8
L1D0
10
605.5
20
17
0
VERTEX
8
L1D0
10
605.5
20
16
0
VERTEX
8
L1D0
10
604.5
20
16
0
VERTEX
8
L1D0
10
604.5
20
15
0
VERTEX
8
L1D0
10
603.5
20
15
0
VERTEX
8
L1D0
10
603.5
20
14
0
VERTEX
8
L1D0
10
602.5
20
14
0
VERTEX
8
L1D0
10
602.5
20
13
0
VERTEX
8
L1D0
10
601.5
20
13
0
VERTEX
8
L1D0
10
601.5
20
12
0
VERTEX
8
L1D0
10
600.5
20
12
0
VERTEX
8
L1D0
10
600.5
20
11
0
VERTEX
8
L1D0
10
599.5
20
11
0
VERTEX
8
L1D0
10
599.5
20
10
0
VERTEX
8
L1D0
10
598.5
20
10
0
VERTEX
8
L1D0
10
598.5
20
9
0
VERTEX
8
L1D0
10
597.5
20
9
0
VERTEX
8
L1D0
10
597.5
20
8
0
VERTEX
8
L1D0
10
596.5
20
8
0
VERTEX
8
L1D0
10
596.5
20
7
0
VERTEX
8
L1D0
10
595.5
20
7
0
VERTEX
8
L1D0
10
595.5
20
6
0
VERTEX
8
L1D0
10
594.5
20
6
0
VERTEX
8
L1D0
10
594.5
20
5
0
VERTEX
8
L1D0
10
593.5
20
5
0
VERTEX
8
L1D0
10
593.5
20
4
0
VERTEX
8
L1D0
10
592.5
20
4
0
VERTEX
8
L1D0
10
592.5
20
3
0
VERTEX
8
L1D0
10
591.5
20
3
0
VERTEX
8
L1D0
10
591.5
20
2
0
VERTEX
8
L1D0
10
590.5
20
2
0
VERTEX
8
L1D0
10
590.5
20
1
0
VERTEX
8
L1D0
10
589.5
20
1
0
VERTEX
8
L1D0
10
589.5
20
0
0
VERTEX
8
L1D0
10
588.5
20
0
0
VERTEX
8
L1D0
10
588.5
20
-1
0
VERTEX
8
L1D0
10
587.5
20
-1
0
VERTEX
8
L1D0
10
587.5
20
-2
0
VERTEX
8
L1D0
10
588.5
20
-2
0
VERTEX
8
L1D0
10
588.5
20
-4
0
VERTEX
8
L1D0
10
590.5
20
-4
0
VERTEX
8
L1D0
10
590.5
20
-5
0
VERTEX
8
L1D0
10
591.5
20
-5
0
VERTEX
8
L1D0
10
591.5
20
-6
0
VERTEX
8
L1D0
10
592.5
20
-6
0
VERTEX
8
L1D0
10
592.5
20
-7
0
VERTEX
8
L1D0
10
593.5
20
-7
0
VERTEX
8
L1D0
10
593.5
20
-8
0
VERTEX
8
L1D0
10
594.5
20
-8
0
VERTEX
8
L1D0
10
594.5
20
-9
0
VERTEX
8
L1D0
10
595.5
20
-9
0
VERTEX
8
L1D0
10
595.5
20
-11
0
VERTEX
8
L1D0
10
597.5
20
-11
0
VERTEX
8
L1D0
10
597.5
20
-12
0
VERTEX
8
L1D0
10
598.5
20
-12
0
VERTEX
8
L1D0
10
598.5
20
-13
0
VERTEX
8
L1D0
10
599.5
20
-13
0
VERTEX
8
L1D0
10
599.5
20
-14
0
VERTEX
8
L1D0
10
600.5
20
-14
0
VERTEX
8
L1D0
10
600.5
20
-16
0
VERTEX
8
L1D0
10
602.5
20
-16
0
VERTEX
8
L1D0
10
602.5
20
-17
0
VERTEX
8
L1D0
10
603.5
20
-17
0
VERTEX
8
L1D0
10
603.5
20
-18
0
VERTEX
8
L1D0
10
604.5
20
-18
0
VERTEX
8
L1D0
10
604.5
20
-19
0
VERTEX
8
L1D0
10
605.5
20
-19
0
VERTEX
8
L1D0
10
605.5
20
-21
0
VERTEX
8
L1D0
10
607.5
20
-21
0
VERTEX
8
L1D0
10
607.5
20
-23
0
VERTEX
8
L1D0
10
609.5
20
-23
0
VERTEX
8
L1D0
10
609.5
20
-24
0
VERTEX
8
L1D0
10
610.5
20
-24
0
VERTEX
8
L1D0
10
610.5
20
-25
0
VERTEX
8
L1D0
10
611.5
20
-25
0
VERTEX
8
L1D0
10
611.5
20
-26
0
VERTEX
8
L1D0
10
612.5
20
-26
0
VERTEX
8
L1D0
10
612.5
20
-28
0
VERTEX
8
L1D0
10
614.5
20
-28
0
VERTEX
8
L1D0
10
614.5
20
-29
0
VERTEX
8
L1D0
10
615.5
20
-29
0
VERTEX
8
L1D0
10
615.5
20
-30
0
VERTEX
8
L1D0
10
616.5
20
-30
0
VERTEX
8
L1D0
10
616.5
20
-31
0
VERTEX
8
L1D0
10
617.5
20
-31
0
VERTEX
8
L1D0
10
617.5
20
-33
0
VERTEX
8
L1D0
10
619.5
20
-33
0
VERTEX
8
L1D0
10
619.5
20
-35
0
VERTEX
8
L1D0
10
621.5
20
-35
0
VERTEX
8
L1D0
10
621.5
20
-36
0
VERTEX
8
L1D0
10
622.5
20
-36
0
VERTEX
8
L1D0
10
622.5
20
-38
0
VERTEX
8
L1D0
10
624.5
20
-38
0
VERTEX
8
L1D0
10
624.5
20
-40
0
VERTEX
8
L1D0
10
626.5
20
-40
0
VERTEX
8
L1D0
10
626.5
20
-41
0
VERTEX
8
L1D0
10
627.5
20
-41
0
VERTEX
8
L1D0
10
627.5
20
-42
0
VERTEX
8
L1D0
10
628.5
20
-42
0
VERTEX
8
L1D0
10
628.5
20
-43
0
VERTEX
8
L1D0
10
629.5
20
-43
0
VERTEX
8
L1D0
10
629.5
20
-45
0
VERTEX
8
L1D0
10
631.5
20
-45
0
VERTEX
8
L1D0
10
631.5
20
-46
0
VERTEX
8
L1D0
10
632.5
20
-46
0
VERTEX
8
L1D0
10
632.5
20
-47
0
VERTEX
8
L1D0
10
633.5
20
-47
0
VERTEX
8
L1D0
10
633.5
20
-48
0
VERTEX
8
L1D0
10
634.5
20
-48
0
VERTEX
8
L1D0
10
634.5
20
-50
0
VERTEX
8
L1D0
10
636.5
20
-50
0
VERTEX
8
L1D0
10
636.5
20
-51
0
VERTEX
8
L1D0
10
637.5
20
-51
0
VERTEX
8
L1D0
10
637.5
20
-54
0
VERTEX
8
L1D0
10
636.5
20
-54
0
VERTEX
8
L1D0
10
636.5
20
-55
0
VERTEX
8
L1D0
10
635.5
20
-55
0
VERTEX
8
L1D0
10
635.5
20
-56
0
VERTEX
8
L1D0
10
634.5
20
-56
0
VERTEX
8
L1D0
10
634.5
20
-57
0
VERTEX
8
L1D0
10
633.5
20
-57
0
VERTEX
8
L1D0
10
633.5
20
-58
0
VERTEX
8
L1D0
10
632.5
20
-58
0
VERTEX
8
L1D0
10
632.5
20
-59
0
VERTEX
8
L1D0
10
631.5
20
-59
0
VERTEX
8
L1D0
10
631.5
20
-60
0
VERTEX
8
L1D0
10
630.5
20
-60
0
VERTEX
8
L1D0
10
630.5
20
-61
0
VERTEX
8
L1D0
10
629.5
20
-61
0
VERTEX
8
L1D0
10
629.5
20
-62
0
VERTEX
8
L1D0
10
628.5
20
-62
0
VERTEX
8
L1D0
10
628.5
20
-63
0
VERTEX
8
L1D0
10
627.5
20
-63
0
VERTEX
8
L1D0
10
627.5
20
-64
0
VERTEX
8
L1D0
10
626.5
20
-64
0
VERTEX
8
L1D0
10
626.5
20
-63
0
VERTEX
8
L1D0
10
624.5
20
-63
0
VERTEX
8
L1D0
10
624.5
20
-62
0
VERTEX
8
L1D0
10
623.5
20
-62
0
VERTEX
8
L1D0
10
623.5
20
-61
0
VERTEX
8
L1D0
10
622.5
20
-61
0
VERTEX
8
L1D0
10
622.5
20
-60
0
VERTEX
8
L1D0
10
621.5
20
-60
0
VERTEX
8
L1D0
10
621.5
20
-58
0
VERTEX
8
L1D0
10
619.5
20
-58
0
VERTEX
8
L1D0
10
619.5
20
-57
0
VERTEX
8
L1D0
10
618.5
20
-57
0
VERTEX
8
L1D0
10
618.5
20
-56
0
VERTEX
8
L1D0
10
617.5
20
-56
0
VERTEX
8
L1D0
10
617.5
20
-55
0
VERTEX
8
L1D0
10
616.5
20
-55
0
VERTEX
8
L1D0
10
616.5
20
-54
0
VERTEX
8
L1D0
10
615.5
20
-54
0
VERTEX
8
L1D0
10
615.5
20
-53
0
VERTEX
8
L1D0
10
614.5
20
-53
0
VERTEX
8
L1D0
10
614.5
20
-51
0
VERTEX
8
L1D0
10
612.5
20
-51
0
VERTEX
8
L1D0
10
612.5
20
-50
0
VERTEX
8
L1D0
10
611.5
20
-50
0
VERTEX
8
L1D0
10
611.5
20
-49
0
VERTEX
8
L1D0
10
610.5
20
-49
0
VERTEX
8
L1D0
10
610.5
20
-48
0
VERTEX
8
L1D0
10
609.5
20
-48
0
VERTEX
8
L1D0
10
609.5
20
-46
0
VERTEX
8
L1D0
10
607.5
20
-46
0
VERTEX
8
L1D0
10
607.5
20
-44
0
VERTEX
8
L1D0
10
605.5
20
-44
0
VERTEX
8
L1D0
10
605.5
20
-43
0
VERTEX
8
L1D0
10
604.5
20
-43
0
VERTEX
8
L1D0
10
604.5
20
-41
0
VERTEX
8
L1D0
10
602.5
20
-41
0
VERTEX
8
L1D0
10
602.5
20
-39
0
VERTEX
8
L1D0
10
600.5
20
-39
0
VERTEX
8
L1D0
10
600.5
20
-38
0
VERTEX
8
L1D0
10
599.5
20
-38
0
VERTEX
8
L1D0
10
599.5
20
-36
0
VERTEX
8
L1D0
10
597.5
20
-36
0
VERTEX
8
L1D0
10
597.5
20
-34
0
VERTEX
8
L1D0
10
595.5
20
-34
0
VERTEX
8
L1D0
10
595.5
20
-32
0
VERTEX
8
L1D0
10
593.5
20
-32
0
VERTEX
8
L1D0
10
593.5
20
-31
0
VERTEX
8
L1D0
10
592.5
20
-31
0
VERTEX
8
L1D0
10
592.5
20
-29
0
VERTEX
8
L1D0
10
590.5
20
-29
0
VERTEX
8
L1D0
10
590.5
20
-27
0
VERTEX
8
L1D0
10
588.5
20
-27
0
VERTEX
8
L1D0
10
588.5
20
-26
0
VERTEX
8
L1D0
10
587.5
20
-26
0
VERTEX
8
L1D0
10
587.5
20
-24
0
VERTEX
8
L1D0
10
585.5
20
-24
0
VERTEX
8
L1D0
10
585.5
20
-22
0
VERTEX
8
L1D0
10
583.5
20
-22
0
VERTEX
8
L1D0
10
583.5
20
-21
0
VERTEX
8
L1D0
10
582.5
20
-21
0
VERTEX
8
L1D0
10
582.5
20
-84
0
VERTEX
8
L1D0
10
581.5
20
-84
0
VERTEX
8
L1D0
10
581.5
20
-89
0
VERTEX
8
L1D0
10
580.5
20
-89
0
VERTEX
8
L1D0
10
580.5
20
-92
0
VERTEX
8
L1D0
10
579.5
20
-92
0
VERTEX
8
L1D0
10
579.5
20
-94
0
VERTEX
8
L1D0
10
578.5
20
-94
0
VERTEX
8
L1D0
10
578.5
20
-96
0
VERTEX
8
L1D0
10
577.5
20
-96
0
VERTEX
8
L1D0
10
577.5
20
-98
0
VERTEX
8
L1D0
10
576.5
20
-98
0
VERTEX
8
L1D0
10
576.5
20
-99
0
VERTEX
8
L1D0
10
575.5
20
-99
0
VERTEX
8
L1D0
10
575.5
20
-100
0
VERTEX
8
L1D0
10
574.5
20
-100
0
VERTEX
8
L1D0
10
574.5
20
-101
0
VERTEX
8
L1D0
10
573.5
20
-101
0
VERTEX
8
L1D0
10
573.5
20
-102
0
VERTEX
8
L1D0
10
572.5
20
-102
0
VERTEX
8
L1D0
10
572.5
20
-103
0
VERTEX
8
L1D0
10
571.5
20
-103
0
VERTEX
8
L1D0
10
571.5
20
-104
0
VERTEX
8
L1D0
10
570.5
20
-104
0
VERTEX
8
L1D0
10
570.5
20
-105
0
VERTEX
8
L1D0
10
569.5
20
-105
0
VERTEX
8
L1D0
10
569.5
20
-106
0
VERTEX
8
L1D0
10
567.5
20
-106
0
VERTEX
8
L1D0
10
567.5
20
-107
0
VERTEX
8
L1D0
10
566.5
20
-107
0
VERTEX
8
L1D0
10
566.5
20
-108
0
VERTEX
8
L1D0
10
564.5
20
-108
0
VERTEX
8
L1D0
10
564.5
20
-109
0
VERTEX
8
L1D0
10
561.5
20
-109
0
VERTEX
8
L1D0
10
561.5
20
-110
0
VERTEX
8
L1D0
10
557.5
20
-110
0
VERTEX
8
L1D0
10
557.5
20
-111
0
VERTEX
8
L1D0
10
394.5
20
-111
0
VERTEX
8
L1D0
10
394.5
20
-175
0
VERTEX
8
L1D0
10
393.5
20
-175
0
VERTEX
8
L1D0
10
393.5
20
-179
0
VERTEX
8
L1D0
10
392.5
20
-179
0
VERTEX
8
L1D0
10
392.5
20
-181
0
VERTEX
8
L1D0
10
391.5
20
-181
0
VERTEX
8
L1D0
10
391.5
20
-183
0
VERTEX
8
L1D0
10
390.5
20
-183
0
VERTEX
8
L1D0
10
390.5
20
-185
0
VERTEX
8
L1D0
10
389.5
20
-185
0
VERTEX
8
L1D0
10
389.5
20
-186
0
VERTEX
8
L1D0
10
388.5
20
-186
0
VERTEX
8
L1D0
10
388.5
20
-188
0
VERTEX
8
L1D0
10
387.5
20
-188
0
VERTEX
8
L1D0
10
387.5
20
-189
0
VERTEX
8
L1D0
10
386.5
20
-189
0
VERTEX
8
L1D0
10
386.5
20
-190
0
VERTEX
8
L1D0
10
385.5
20
-190
0
VERTEX
8
L1D0
10
385.5
20
-191
0
VERTEX
8
L1D0
10
384.5
20
-191
0
VERTEX
8
L1D0
10
384.5
20
-192
0
VERTEX
8
L1D0
10
383.5
20
-192
0
VERTEX
8
L1D0
10
383.5
20
-193
0
VERTEX
8
L1D0
10
381.5
20
-193
0
VERTEX
8
L1D0
10
381.5
20
-194
0
VERTEX
8
L1D0
10
380.5
20
-194
0
VERTEX
8
L1D0
10
380.5
20
-195
0
VERTEX
8
L1D0
10
378.5
20
-195
0
VERTEX
8
L1D0
10
378.5
20
-196
0
VERTEX
8
L1D0
10
376.5
20
-196
0
VERTEX
8
L1D0
10
376.5
20
-197
0
VERTEX
8
L1D0
10
374.5
20
-197
0
VERTEX
8
L1D0
10
374.5
20
-198
0
VERTEX
8
L1D0
10
370.5
20
-198
0
VERTEX
8
L1D0
10
370.5
20
-199
0
VERTEX
8
L1D0
10
40.5
20
-199
0
VERTEX
8
L1D0
10
40.5
20
-228
0
SEQEND
0
POLYLINE
8
L1D0
70
1
40
0
41
0
66
1
0
VERTEX
8
L1D0
10
-52.5
20
127
0
VERTEX
8
L1D0
10
-52.5
20
186
0
VERTEX
8
L1D0
10
-208.5
20
186
0
VERTEX
8
L1D0
10
-208.5
20
151
0
VERTEX
8
L1D0
10
-221.5
20
151
0
VERTEX
8
L1D0
10
-221.5
20
234
0
VERTEX
8
L1D0
10
-208.5
20
234
0
VERTEX
8
L1D0
10
-208.5
20
201
0
VERTEX
8
L1D0
10
-52.5
20
201
0
VERTEX
8
L1D0
10
-52.5
20
254
0
VERTEX
8
L1D0
10
-39.5
20
254
0
VERTEX
8
L1D0
10
-39.5
20
127
0
SEQEND
0
POLYLINE
8
L1D0
70
1
40
0
41
0
66
1
0
VERTEX
8
L1D0
10
-2.5
20
-255
0
VERTEX
8
L1D0
10
-2.5
20
-128
0
VERTEX
8
L1D0
10
9.5
20
-128
0
VERTEX
8
L1D0
10
9.5
20
-255
0
SEQEND
0
POLYLINE
8
L1D0
70
1
40
0
41
0
66
1
0
VERTEX
8
L1D0
10
196.5
20
-57
0
VERTEX
8
L1D0
10
196.5
20
-35
0
VERTEX
8
L1D0
10
218.5
20
-35
0
VERTEX
8
L1D0
10
218.5
20
-57
0
SEQEND
0
POLYLINE
8
L1D0
70
1
40
0
41
0
66
1
0
VERTEX
8
L1D0
10
240.5
20
-57
0
VERTEX
8
L1D0
10
240.5
20
56
0
VERTEX
8
L1D0
10
262.5
20
56
0
VERTEX
8
L1D0
10
262.5
20
-57
0
SEQEND
0
POLYLINE
8
L1D0
70
1
40
0
41
0
66
1
0
VERTEX
8
L1D0
10
299.5
20
128
0
VERTEX
8
L1D0
10
299.5
20
255
0
VERTEX
8
L1D0
10
311.5
20
255
0
VERTEX
8
L1D0
10
311.5
20
128
0
SEQEND
0
ENDSEC
0
EOF
